<?xml version="1.0" encoding="utf-8"?>
<!-- Generator: Adobe Illustrator 24.1.0, SVG Export Plug-In . SVG Version: 6.00 Build 0)  -->
<svg version="1.1" id="Calque_1" xmlns="http://www.w3.org/2000/svg" xmlns:xlink="http://www.w3.org/1999/xlink" x="0px" y="0px"
	 viewBox="0 0 379.67 200.73" style="enable-background:new 0 0 379.67 200.73;" xml:space="preserve">
<style type="text/css">
	.st0{fill:#BF152D;}
</style>
<g>
	<path class="st0" d="M158.25,136.06c-4.77,30.27-44.23,64.02-88.3,57.96c-42.97-5.91-66.02-47.61-69.47-79.56
		c-3.87-35.91,16.7-62.52,22.64-70.21C46.55,13.95,78.46,5.98,89.54,3.39c46.05-10.77,95.68,6.41,96.13,19.68
		c0.4,11.65-37.4,10.79-46.93,35.55C128.74,84.62,163.27,104.28,158.25,136.06z"/>
	<path class="st0" d="M352.25,142.06c-4.77,30.27-44.23,64.02-88.3,57.96c-42.97-5.91-66.02-47.61-69.47-79.56
		c-3.87-35.91,16.7-62.52,22.64-70.21c23.42-30.3,55.34-38.27,66.41-40.86c46.05-10.77,95.68,6.41,96.13,19.68
		c0.4,11.65-37.4,10.79-46.93,35.55C322.74,90.62,357.27,110.28,352.25,142.06z"/>
</g>
</svg>
