<?xml version="1.0" encoding="utf-8"?>
<!-- Generator: Adobe Illustrator 24.1.0, SVG Export Plug-In . SVG Version: 6.00 Build 0)  -->
<svg version="1.1" id="Calque_1" xmlns="http://www.w3.org/2000/svg" xmlns:xlink="http://www.w3.org/1999/xlink" x="0px" y="0px"
	 viewBox="0 0 1280 1024" style="enable-background:new 0 0 1280 1024;" xml:space="preserve">
<style type="text/css">
	.st0{fill:#BF152D;}
</style>
<g>
	<path class="st0" d="M672.67,477.67c4.77-30.27,44.23-64.02,88.3-57.96c42.97,5.91,66.02,47.61,69.47,79.56
		c3.87,35.91-16.7,62.52-22.64,70.21c-23.42,30.3-55.34,38.27-66.41,40.86c-46.05,10.77-95.68-6.41-96.13-19.68
		c-0.4-11.65,37.4-10.79,46.93-35.55C702.19,529.11,667.66,509.45,672.67,477.67z"/>
	<path class="st0" d="M478.67,471.67c4.77-30.27,44.23-64.02,88.3-57.96c42.97,5.91,66.02,47.61,69.47,79.56
		c3.87,35.91-16.7,62.52-22.64,70.21c-23.42,30.3-55.34,38.27-66.41,40.86c-46.05,10.77-95.68-6.41-96.13-19.68
		c-0.4-11.65,37.4-10.79,46.93-35.55C508.19,523.11,473.66,503.45,478.67,471.67z"/>
</g>
</svg>
