<svg id="Calque_1" data-name="Calque 1" xmlns="http://www.w3.org/2000/svg" viewBox="0 0 379.67 200.73"><defs><style>.cls-1{fill:#bf152d;}</style></defs><path class="cls-1" d="M221.42,64.67c4.78-30.26,44.23-64,88.3-58,43,5.91,66,47.61,69.47,79.57,3.87,35.91-16.7,62.52-22.64,70.2-23.42,30.3-55.34,38.27-66.41,40.86-46,10.77-95.68-6.4-96.14-19.67-.4-11.65,37.4-10.8,46.93-35.55C250.94,116.11,216.41,96.46,221.42,64.67Z"/><path class="cls-1" d="M27.42,58.67c4.78-30.26,44.23-64,88.3-58,43,5.91,66,47.61,69.47,79.57,3.87,35.91-16.7,62.52-22.64,70.2-23.42,30.3-55.34,38.27-66.41,40.86C50.09,202.11.46,184.94,0,171.67c-.4-11.65,37.4-10.8,46.93-35.55C56.94,110.11,22.41,90.46,27.42,58.67Z"/></svg>