<svg id="Calque_1" data-name="Calque 1" xmlns="http://www.w3.org/2000/svg" viewBox="0 0 179.87 207.54"><defs><style>.cls-1,.cls-5{fill:#fff;}.cls-1{stroke:#f4d500;}.cls-1,.cls-10,.cls-2,.cls-5,.cls-6,.cls-7,.cls-8,.cls-9{stroke-miterlimit:10;}.cls-1,.cls-2,.cls-5,.cls-7,.cls-9{stroke-width:2px;}.cls-2{fill:#f4f2f2;stroke:#050201;}.cls-3{fill:#050201;}.cls-4{fill:#f4d500;}.cls-5,.cls-6,.cls-7,.cls-8{stroke:#000;}.cls-10,.cls-7,.cls-8,.cls-9{fill:none;}.cls-10,.cls-9{stroke:#bf152d;}.cls-10{stroke-width:4px;}</style></defs><path class="cls-1" d="M685.13,412.91c-.6,4.45-2.91,11.21-6.08,17.16-6,11.18-10.16,11.23-13,19.25-4.31,12.24,3.26,19.17-1.68,24.9-1.31,1.52-3.38,2.81-24.69,2.72-18.55-.08-20.88-1.08-22.6-2.93-4.49-4.87-.53-11.07-3.34-21.34-2.47-9-8.52-15.17-13-18.84a52.25,52.25,0,0,1-5.44-20.92c-.53-18.75,16.14-48.11,44.89-48.13C669.55,364.77,687.5,395.27,685.13,412.91Z" transform="translate(-551.73 -313.62)"/><path class="cls-2" d="M695.37,494.52" transform="translate(-551.73 -313.62)"/><rect class="cls-3" x="63.5" y="164.81" width="51.6" height="8.83" rx="2.52"/><rect class="cls-4" x="620.31" y="331.53" width="41.43" height="5.62" rx="1.6" transform="translate(-245.04 661.74) rotate(-90)"/><rect class="cls-4" x="669.56" y="349.67" width="41.43" height="5.62" rx="1.6" transform="translate(-598.79 277.72) rotate(-45)"/><rect class="cls-4" x="549.77" y="384.06" width="41.43" height="5.62" rx="1.6" transform="translate(319.38 693.53) rotate(-150)"/><rect class="cls-4" x="574.62" y="347.58" width="41.43" height="5.62" rx="1.6" transform="translate(166.9 716.47) rotate(-130.76)"/><rect class="cls-4" x="692.12" y="379.72" width="41.43" height="5.62" rx="1.6" transform="translate(-647.49 94.05) rotate(-30)"/><rect class="cls-3" x="63.5" y="176.11" width="51.6" height="8.83" rx="2.52"/><rect class="cls-3" x="63.5" y="187.41" width="51.6" height="8.83" rx="2.52"/><rect class="cls-3" x="70.46" y="198.71" width="36.3" height="8.83" rx="2.52"/><path class="cls-5" d="M665.68,394l-7,15.49-13.16-5.65,5-17c2.07,1.24,4.37,2.5,6.9,3.72A86.38,86.38,0,0,0,665.68,394Z" transform="translate(-551.73 -313.62)"/><circle class="cls-6" cx="80.98" cy="73.83" r="5.3"/><path class="cls-6" d="M638.86,423.38h-12.3V401.2a6.33,6.33,0,0,1,12.3,0Z" transform="translate(-551.73 -313.62)"/><path class="cls-6" d="M647.66,425.31h-21v-3.86h21a2.12,2.12,0,0,1,2.17,1.45A2.18,2.18,0,0,1,647.66,425.31Z" transform="translate(-551.73 -313.62)"/><path class="cls-6" d="M645.94,409.79,632,403.52l.83-1.85L646.77,408c.73.31,1.18.9,1.13,1.34S647,410.19,645.94,409.79Z" transform="translate(-551.73 -313.62)"/><path class="cls-6" d="M646.67,407.48l8.8-12.51,1.65,1.16-8.79,12.51a1.63,1.63,0,0,1-1.53.86C646.26,409.33,646.09,408.39,646.67,407.48Z" transform="translate(-551.73 -313.62)"/><path class="cls-6" d="M650.15,423.19l4.58,20.47-3.76.84L646.38,424a2.12,2.12,0,0,1,.94-2.43A2.19,2.19,0,0,1,650.15,423.19Z" transform="translate(-551.73 -313.62)"/><path class="cls-6" d="M663,446l-10.93,1.12a2,2,0,1,1-.41-4L662.63,442c.57-.08,1.11.56,1.29,1.38C664.14,444.44,663.8,445.84,663,446Z" transform="translate(-551.73 -313.62)"/><line class="cls-7" x1="102.59" y1="76.97" x2="110.51" y2="80.52"/><line class="cls-7" x1="101.42" y1="79.58" x2="109.34" y2="83.13"/><polygon class="cls-7" points="105.59 91.21 97.85 87.53 100.52 81.58 108.26 85.26 105.59 91.21"/><path class="cls-8" d="M661.21,382.53a11.14,11.14,0,0,0,.19,6,10.78,10.78,0,0,0,3.3,4.81c.37.3.7.55.94.72" transform="translate(-551.73 -313.62)"/><path class="cls-8" d="M659.13,383.82a11.37,11.37,0,0,0,1.29,5.28A11,11,0,0,0,664,393c.35.24.65.42.88.55" transform="translate(-551.73 -313.62)"/><path class="cls-8" d="M658.17,384.56a9.68,9.68,0,0,0,1.41,5,9.25,9.25,0,0,0,3.75,3.3c.37.18.69.32.93.41" transform="translate(-551.73 -313.62)"/><path class="cls-8" d="M663.61,381.38a11.68,11.68,0,0,0-1,6.21,11.17,11.17,0,0,0,2.47,5.55c.31.39.61.7.82.92" transform="translate(-551.73 -313.62)"/><line class="cls-9" x1="69.77" y1="138.49" x2="69.77" y2="111.71"/><line class="cls-9" x1="93.94" y1="138.49" x2="93.94" y2="111.71"/><line class="cls-9" x1="90.97" y1="126.59" x2="90.97" y2="110.97"/><line class="cls-9" x1="72.75" y1="127.33" x2="72.75" y2="111.71"/><line class="cls-10" x1="69.77" y1="111.71" x2="95.8" y2="111.34"/><line class="cls-10" x1="69.77" y1="112.27" x2="69.77" y2="86.24"/></svg>