<?xml version="1.0" encoding="utf-8"?>
<!-- Generator: Adobe Illustrator 24.1.0, SVG Export Plug-In . SVG Version: 6.00 Build 0)  -->
<svg version="1.1" id="Calque_1" xmlns="http://www.w3.org/2000/svg" xmlns:xlink="http://www.w3.org/1999/xlink" x="0px" y="0px"
	 viewBox="0 0 1280 1024" style="enable-background:new 0 0 1280 1024;" xml:space="preserve">
<style type="text/css">
	.st0{fill:#C2B3B0;}
	.st1{fill:none;stroke:#BF152D;stroke-width:2;stroke-miterlimit:10;}
	.st2{fill:none;stroke:#BF152D;stroke-width:4;stroke-miterlimit:10;}
</style>
<path class="st0" d="M515.58,330.37c-3.02,34.69-40.37,77.65-89.06,77.63c-48.52-0.03-80.39-42.74-89.06-77.63
	c-9.74-39.21,9.02-71.82,14.44-81.24c21.36-37.13,55.52-50.81,67.4-55.36c45.59-17.47,103.36-11.87,109.52,7.22
	c4.47,13.85-22.45,21.65-28.88,52.95C493.21,286.71,518.25,299.76,515.58,330.37z"/>
<g>
	<line class="st1" x1="397" y1="358" x2="397" y2="286"/>
	<line class="st1" x1="462" y1="358" x2="462" y2="286"/>
	<line class="st1" x1="454" y1="326" x2="454" y2="284"/>
	<line class="st1" x1="405" y1="328" x2="405" y2="286"/>
	<line class="st2" x1="397" y1="286" x2="467" y2="285"/>
	<line class="st2" x1="397" y1="287.5" x2="397" y2="217.5"/>
</g>
</svg>
