<?xml version="1.0" encoding="utf-8"?>
<!-- Generator: Adobe Illustrator 24.1.0, SVG Export Plug-In . SVG Version: 6.00 Build 0)  -->
<svg version="1.1" id="Calque_1" xmlns="http://www.w3.org/2000/svg" xmlns:xlink="http://www.w3.org/1999/xlink" x="0px" y="0px"
	 viewBox="0 0 1920 1080" style="enable-background:new 0 0 1920 1080;" xml:space="preserve">
<style type="text/css">
	.st0{fill:#4169E1;}
	.st1{fill:#FF8E96;}
	.st2{fill:none;stroke:#FF8E96;stroke-miterlimit:10;}
</style>
<g>
	<rect x="5.5" y="8.5" class="st0" width="1905" height="1063"/>
	<path d="M1910,9v1062H6V9H1910 M1911,8H5v1064h1906V8L1911,8z"/>
</g>
<g>
	<g>
		<path class="st1" d="M265.9,351.8h-20.5l-4.3,20.7h22.7l-0.5,1h-23.6l8.9-41.9h22.7l-0.2,1h-21.5l-3.8,18.1h20.5L265.9,351.8z"/>
		<path class="st1" d="M275.6,350.9c0.5-2.6,1.3-6.1,1.5-7.3h1.1c-0.2,1.4-0.8,4.3-1.4,7.1c1.7-3.5,4.8-7.7,11.3-7.7
			c4.7,0,9.1,2.8,7.3,11.2l-4.1,19.3h-1.1l4.1-19.4c1.3-5.9-0.8-10-6.4-10c-7.4,0-11.1,6.6-12.6,13.7l-3.3,15.8h-1.1L275.6,350.9z"
			/>
		<path class="st1" d="M302.7,343.6h5.3l2-9.1h1.1l-1.9,9.1h6.9l-0.2,1h-7l-4.9,22.9c-0.7,2.9-0.4,5.3,3,5.3c0.8,0,2.2-0.1,3.5-0.6
			l-0.2,1.1c-0.9,0.4-2.6,0.6-3.4,0.6c-3.5,0-5-1.6-4-6.7l4.9-22.7h-5.3L302.7,343.6z"/>
		<path class="st1" d="M319.4,353.9c1.4-6.5,1.6-8,2-10.3h1.1c-0.2,1.1-0.4,2.7-1.7,8.5c2.7-5.5,8.1-8.9,12.3-9l-0.2,1.2
			c-6.1,0.5-11.6,6-13.2,13.6l-3.3,15.6h-1.1L319.4,353.9z"/>
		<path class="st1" d="M335.2,357.8c-0.5,2.3-0.5,4.1-0.5,5.2c0,6.1,2.9,9.9,8.6,9.9c5.4,0,8.5-3.2,10.5-7.1h1.1
			c-2.5,5.8-6.9,8.1-11.9,8.1c-6.5,0-9.5-4.6-9.5-10.8c0-8.4,4.2-20.2,14.7-20.2c6.6,0,9.1,4.6,9.1,9.5c0,1.6-0.2,3.3-0.7,5.3
			L335.2,357.8L335.2,357.8z M355.7,356.8c0.3-1.6,0.4-2.7,0.4-4.2c0-4.8-2.4-8.6-8.1-8.6c-5.9,0-10.6,4.6-12.7,12.8H355.7z"/>
		<path class="st1" d="M362.5,343.6h5.3l2-9.1h1.1l-1.9,9.1h6.9l-0.2,1h-7l-4.9,22.9c-0.7,2.9-0.4,5.3,3,5.3c0.8,0,2.2-0.1,3.5-0.6
			l-0.2,1.1c-0.9,0.4-2.6,0.6-3.4,0.6c-3.5,0-5-1.6-4-6.7l4.9-22.7h-5.3L362.5,343.6z"/>
		<path class="st1" d="M377.4,357.8c-0.5,2.3-0.5,4.1-0.5,5.2c0,6.1,2.9,9.9,8.6,9.9c5.4,0,8.5-3.2,10.5-7.1h1.1
			c-2.5,5.8-6.9,8.1-11.9,8.1c-6.5,0-9.5-4.6-9.5-10.8c0-8.4,4.2-20.2,14.7-20.2c6.6,0,9.1,4.6,9.1,9.5c0,1.6-0.2,3.3-0.7,5.3
			L377.4,357.8L377.4,357.8z M397.9,356.8c0.3-1.6,0.4-2.7,0.4-4.2c0-4.8-2.4-8.6-8.1-8.6c-5.9,0-10.6,4.6-12.7,12.8H397.9z"/>
		<path class="st1" d="M408,350.9c0.5-2.6,1.3-6.1,1.5-7.3h1.1c-0.2,1.4-0.8,4.3-1.4,7.1c1.7-3.5,4.8-7.7,11.3-7.7
			c4.7,0,9.1,2.8,7.3,11.2l-4.1,19.3h-1.1l4.1-19.4c1.3-5.9-0.8-10-6.4-10c-7.4,0-11.1,6.6-12.6,13.7l-3.3,15.8h-1.1L408,350.9z"/>
		<path class="st1" d="M440,343.6h1.1l-6.3,29.9h-1.1L440,343.6z M443,329.5h1.1l-1.1,5.1h-1.1L443,329.5z"/>
		<path class="st1" d="M449,353.9c1.4-6.5,1.6-8,2-10.3h1.1c-0.2,1.1-0.4,2.7-1.7,8.5c2.7-5.5,8.1-8.9,12.3-9l-0.2,1.2
			c-6.1,0.5-11.6,6-13.2,13.6l-3.3,15.6h-1.1L449,353.9z"/>
		<path class="st1" d="M476.3,364.9c0.1,5,2.7,8.1,8.7,8.1c4.6,0,8.6-2.3,8.6-7.5c0-3.2-1.7-5.3-7.1-7.3c-6-2.3-7.5-4.4-7.5-7.5
			c0-4,3.1-7.6,8.9-7.6c6.7,0,8.8,4.4,8.7,8h-1c-0.1-2.9-1.6-7-7.9-7c-4.6,0-7.6,2.8-7.6,6.5c0,3.1,1.7,4.7,6.9,6.7
			c5.7,2.2,7.7,4.6,7.7,8.1c0,5.4-4,8.6-9.9,8.6c-5.8,0-9.7-2.9-9.6-9.1L476.3,364.9L476.3,364.9z"/>
		<path class="st1" d="M525.3,353.7c0,8.5-4,20.3-14.6,20.3c-6.4,0-9.7-4-9.7-11.1c0-8.1,4.3-19.9,14.8-19.9
			C521.5,343,525.3,346.6,525.3,353.7z M502,362.6c0,6.7,3,10.4,8.6,10.4c9.6,0,13.4-10.9,13.4-19.3c0-6-3.1-9.6-8.6-9.6
			C506.1,344,502,354.8,502,362.6z"/>
		<path class="st1" d="M534.5,350.9c0.5-2.6,1.3-6.1,1.5-7.3h1.1c-0.2,1.4-0.8,4.3-1.4,7.1c1.7-3.5,4.8-7.7,11.3-7.7
			c4.7,0,9.1,2.8,7.3,11.2l-4.1,19.3H549l4.1-19.4c1.3-5.9-0.8-10-6.4-10c-7.4,0-11.1,6.6-12.6,13.7l-3.3,15.8h-1.1L534.5,350.9z"/>
		<path class="st1" d="M576.2,357.8c-0.5,2.3-0.5,4.1-0.5,5.2c0,6.1,2.9,9.9,8.6,9.9c5.4,0,8.5-3.2,10.5-7.1h1.1
			c-2.5,5.8-6.9,8.1-11.9,8.1c-6.5,0-9.5-4.6-9.5-10.8c0-8.4,4.2-20.2,14.7-20.2c6.6,0,9.1,4.6,9.1,9.5c0,1.6-0.2,3.3-0.7,5.3
			L576.2,357.8L576.2,357.8z M596.7,356.8c0.3-1.6,0.4-2.7,0.4-4.2c0-4.8-2.4-8.6-8.1-8.6c-5.9,0-10.6,4.6-12.7,12.8H596.7z"/>
		<path class="st1" d="M602.3,364.9c0.1,5,2.7,8.1,8.7,8.1c4.6,0,8.6-2.3,8.6-7.5c0-3.2-1.7-5.3-7.1-7.3c-6-2.3-7.5-4.4-7.5-7.5
			c0-4,3.1-7.6,8.9-7.6c6.7,0,8.8,4.4,8.7,8h-1c-0.1-2.9-1.6-7-7.9-7c-4.6,0-7.6,2.8-7.6,6.5c0,3.1,1.7,4.7,6.9,6.7
			c5.7,2.2,7.7,4.6,7.7,8.1c0,5.4-4,8.6-9.9,8.6c-5.8,0-9.7-2.9-9.6-9.1L602.3,364.9L602.3,364.9z"/>
		<path class="st1" d="M629,365.8l-4.2,20.2h-1.1l7.2-33.7c0.8-4.1,1.4-6.8,1.8-8.7h1c-0.1,0.6-0.8,4.6-1.5,7.4
			c2.5-4.9,5.9-8,11.5-8c5.5,0,8.9,4.3,8.9,11c0,7.9-4.2,20-14.8,20C632.3,374,629.5,370.9,629,365.8z M651.5,354.1
			c0-6.8-3.2-10.1-8-10.1c-6.2,0-10.9,5.2-12.9,14.7c-1.8,8.4,0.2,14.2,7.4,14.2C647.2,373,651.5,361.9,651.5,354.1z"/>
		<path class="st1" d="M661,353.9c1.4-6.5,1.6-8,2-10.3h1.1c-0.2,1.1-0.4,2.7-1.7,8.5c2.7-5.5,8.1-8.9,12.3-9l-0.2,1.2
			c-6.1,0.5-11.6,6-13.2,13.6l-3.3,15.6h-1.1L661,353.9z"/>
		<path class="st1" d="M680.7,343.6h1.1l-6.3,29.9h-1.1L680.7,343.6z M683.7,329.5h1.1l-1.1,5.1h-1.1L683.7,329.5z"/>
		<path class="st1" d="M687,343.6h5.3l2-9.1h1.1l-1.9,9.1h6.9l-0.2,1h-7l-4.9,22.9c-0.7,2.9-0.4,5.3,3,5.3c0.8,0,2.2-0.1,3.5-0.6
			l-0.2,1.1c-0.9,0.4-2.6,0.6-3.4,0.6c-3.5,0-5-1.6-4-6.7l4.9-22.7h-5.3L687,343.6z"/>
		<path class="st1" d="M735.3,365.6c-2.3,5.3-5.7,8.3-11.9,8.3c-6.3,0-9.7-4.5-9.7-11.6c0-9.4,4.9-19.3,14.5-19.3
			c6.8,0,9.1,4.9,9.1,9.2h-1.1c-0.1-4.1-2-8.2-8.2-8.2c-8.9,0-13.1,10.1-13.1,18.1c0,6.7,3.1,10.9,8.8,10.9c5.3,0,8.4-2.7,10.6-7.3
			L735.3,365.6L735.3,365.6z"/>
		<path class="st1" d="M744.7,353.9c1.4-6.5,1.6-8,2-10.3h1.1c-0.2,1.1-0.4,2.7-1.7,8.5c2.7-5.5,8.1-8.9,12.3-9l-0.2,1.2
			c-6.1,0.5-11.6,6-13.2,13.6l-3.3,15.6h-1.1L744.7,353.9z"/>
		<path class="st1" d="M764.4,343.6h1.1l-6.3,29.9h-1.1L764.4,343.6z M767.4,329.5h1.1l-1.1,5.1h-1.1L767.4,329.5z"/>
		<path class="st1" d="M770.7,343.6h5.3l2-9.1h1.1l-1.9,9.1h6.9l-0.2,1h-7l-4.9,22.9c-0.7,2.9-0.4,5.3,3,5.3c0.8,0,2.2-0.1,3.5-0.6
			l-0.2,1.1c-0.9,0.4-2.6,0.6-3.4,0.6c-3.5,0-5-1.6-4-6.7l4.9-22.7h-5.3L770.7,343.6z"/>
		<path class="st1" d="M789.5,343.6h1.1l-6.3,29.9h-1.1L789.5,343.6z M792.5,329.5h1.1l-1.1,5.1h-1.1L792.5,329.5z"/>
		<path class="st1" d="M815.1,366.4c-1.6,3.3-4.7,7.6-11.3,7.6c-5.2,0-8.9-3.6-8.9-10.9c0-8.3,5-20.1,15.1-20.1c7,0,8.5,5.2,8.6,7.2
			c0.5-2.8,1.1-4.9,1.5-6.6h1.1c-0.4,1.4-1.3,5.8-1.8,8L812,386h-1.1L815.1,366.4z M795.9,363.1c0,5.8,2.5,9.9,8,9.9
			c6.3,0,10.8-4.7,13-14.8c2.2-10-1-14.1-7.2-14.1C801,344,795.9,354.7,795.9,363.1z"/>
		<path class="st1" d="M846.6,365.6c-0.6,2.9-1.4,6.5-1.6,7.9h-1.1c0.1-0.6,0.7-4,1.4-7c-2.1,4.2-5.3,7.4-11.4,7.4
			c-4,0-8.9-1.9-7-10.8l4.1-19.6h1.1l-4.2,19.9c-1,4.6-0.1,9.4,6.1,9.4c5.5,0,10.5-3.5,12.4-12.5l3.5-16.9h1.1L846.6,365.6z"/>
		<path class="st1" d="M857.2,357.8c-0.5,2.3-0.5,4.1-0.5,5.2c0,6.1,2.9,9.9,8.6,9.9c5.4,0,8.5-3.2,10.5-7.1h1.1
			c-2.5,5.8-6.9,8.1-11.9,8.1c-6.5,0-9.5-4.6-9.5-10.8c0-8.4,4.2-20.2,14.7-20.2c6.6,0,9.1,4.6,9.1,9.5c0,1.6-0.2,3.3-0.7,5.3
			L857.2,357.8L857.2,357.8z M877.8,356.8c0.3-1.6,0.4-2.7,0.4-4.2c0-4.8-2.4-8.6-8.1-8.6c-5.9,0-10.6,4.6-12.7,12.8H877.8z"/>
		<path class="st1" d="M899.3,365.8l-4.2,20.2H894l7.2-33.7c0.8-4.1,1.4-6.8,1.8-8.7h1c-0.1,0.6-0.8,4.6-1.5,7.4
			c2.5-4.9,5.9-8,11.5-8c5.5,0,8.9,4.3,8.9,11c0,7.9-4.2,20-14.8,20C902.7,374,899.9,370.9,899.3,365.8z M921.8,354.1
			c0-6.8-3.2-10.1-8-10.1c-6.2,0-10.9,5.2-12.9,14.7c-1.8,8.4,0.2,14.2,7.4,14.2C917.5,373,921.8,361.9,921.8,354.1z"/>
		<path class="st1" d="M929.6,357.8c-0.5,2.3-0.5,4.1-0.5,5.2c0,6.1,2.9,9.9,8.6,9.9c5.4,0,8.5-3.2,10.5-7.1h1.1
			c-2.5,5.8-6.9,8.1-11.9,8.1c-6.5,0-9.5-4.6-9.5-10.8c0-8.4,4.2-20.2,14.7-20.2c6.6,0,9.1,4.6,9.1,9.5c0,1.6-0.2,3.3-0.7,5.3
			L929.6,357.8L929.6,357.8z M950.1,356.8c0.3-1.6,0.4-2.7,0.4-4.2c0-4.8-2.4-8.6-8.1-8.6c-5.9,0-10.6,4.6-12.7,12.8H950.1z"/>
		<path class="st1" d="M959.6,353.9c1.4-6.5,1.6-8,2-10.3h1.1c-0.2,1.1-0.4,2.7-1.7,8.5c2.7-5.5,8.1-8.9,12.3-9l-0.2,1.2
			c-6.1,0.5-11.6,6-13.2,13.6l-3.3,15.6h-1.1L959.6,353.9z"/>
		<path class="st1" d="M977.9,350.4c0.5-2.5,1.1-5.5,1.4-6.8h1.1c-0.1,0.8-0.7,4-1.3,6.4c1.3-2.5,4-7,10-7c4,0,6.7,2,6.7,7.1
			c1.2-2.8,4.5-7.1,10.1-7.1c4.6,0,8.4,2.5,6.7,10.8l-4.2,19.7h-1.2l4.3-19.6c1.2-5.6,0.1-9.8-5.6-9.8c-5.3,0-9.4,4.8-10.7,11.1
			l-3.9,18.4h-1.1l4.2-19.9c1.3-6.1-0.6-9.6-5.5-9.6c-5.9,0-9.8,6.1-11,11.9l-3.7,17.5H973L977.9,350.4z"/>
		<path class="st1" d="M1021,357.8c-0.5,2.3-0.5,4.1-0.5,5.2c0,6.1,2.9,9.9,8.6,9.9c5.4,0,8.5-3.2,10.5-7.1h1.1
			c-2.5,5.8-6.9,8.1-11.9,8.1c-6.5,0-9.5-4.6-9.5-10.8c0-8.4,4.2-20.2,14.7-20.2c6.6,0,9.1,4.6,9.1,9.5c0,1.6-0.2,3.3-0.7,5.3
			L1021,357.8L1021,357.8z M1041.6,356.8c0.3-1.6,0.4-2.7,0.4-4.2c0-4.8-2.4-8.6-8.1-8.6c-5.9,0-10.6,4.6-12.7,12.8H1041.6z"/>
		<path class="st1" d="M1048.3,343.6h5.3l2-9.1h1.1l-1.9,9.1h6.9l-0.2,1h-7l-4.9,22.9c-0.7,2.9-0.4,5.3,3,5.3c0.8,0,2.2-0.1,3.5-0.6
			l-0.2,1.1c-0.9,0.4-2.6,0.6-3.4,0.6c-3.5,0-5-1.6-4-6.7l4.9-22.7h-5.3L1048.3,343.6z"/>
		<path class="st1" d="M1104.4,329.5l-7.8,36.9c-0.5,2.1-1.1,5.5-1.3,7.1h-1c0-0.7,0.6-4.1,1.3-7.3c-2.2,4.4-5.3,7.7-11.6,7.7
			c-5.8,0-8.8-4-8.8-11.2c0-7.7,4.5-19.8,15.1-19.8c5.7,0,8.4,3.5,8.6,7.9l4.4-21.4L1104.4,329.5L1104.4,329.5z M1076.2,362.6
			c0,6.7,2.8,10.3,8,10.3c6.2,0,10.8-4.6,13-14.9c2.3-10.8-1.7-14-7.3-14C1080.9,344,1076.2,355.1,1076.2,362.6z"/>
		<path class="st1" d="M1107.5,357.8c-0.5,2.3-0.5,4.1-0.5,5.2c0,6.1,2.9,9.9,8.6,9.9c5.4,0,8.5-3.2,10.5-7.1h1.1
			c-2.5,5.8-6.9,8.1-11.9,8.1c-6.5,0-9.5-4.6-9.5-10.8c0-8.4,4.2-20.2,14.7-20.2c6.6,0,9.1,4.6,9.1,9.5c0,1.6-0.2,3.3-0.7,5.3
			L1107.5,357.8L1107.5,357.8z M1128,356.8c0.3-1.6,0.4-2.7,0.4-4.2c0-4.8-2.4-8.6-8.1-8.6c-5.9,0-10.6,4.6-12.7,12.8H1128z"/>
		<path class="st1" d="M1147.2,364.9c0.1,5,2.7,8.1,8.7,8.1c4.6,0,8.6-2.3,8.6-7.5c0-3.2-1.7-5.3-7.1-7.3c-6-2.3-7.5-4.4-7.5-7.5
			c0-4,3.1-7.6,8.9-7.6c6.7,0,8.8,4.4,8.7,8h-1c-0.1-2.9-1.6-7-7.9-7c-4.6,0-7.6,2.8-7.6,6.5c0,3.1,1.7,4.7,6.9,6.7
			c5.7,2.2,7.7,4.6,7.7,8.1c0,5.4-4,8.6-9.9,8.6c-5.8,0-9.7-2.9-9.6-9.1L1147.2,364.9L1147.2,364.9z"/>
		<path class="st1" d="M1173.6,357.8c-0.5,2.3-0.5,4.1-0.5,5.2c0,6.1,2.9,9.9,8.6,9.9c5.4,0,8.5-3.2,10.5-7.1h1.1
			c-2.5,5.8-6.9,8.1-11.9,8.1c-6.5,0-9.5-4.6-9.5-10.8c0-8.4,4.2-20.2,14.7-20.2c6.6,0,9.1,4.6,9.1,9.5c0,1.6-0.2,3.3-0.7,5.3
			L1173.6,357.8L1173.6,357.8z M1194.1,356.8c0.3-1.6,0.4-2.7,0.4-4.2c0-4.8-2.4-8.6-8.1-8.6c-5.9,0-10.6,4.6-12.7,12.8H1194.1z"/>
		<path class="st1" d="M1243,329.5l-7.8,36.9c-0.5,2.1-1.1,5.5-1.3,7.1h-1c0-0.7,0.6-4.1,1.3-7.3c-2.2,4.4-5.3,7.7-11.6,7.7
			c-5.8,0-8.8-4-8.8-11.2c0-7.7,4.5-19.8,15.1-19.8c5.7,0,8.4,3.5,8.6,7.9l4.4-21.4L1243,329.5L1243,329.5z M1214.9,362.6
			c0,6.7,2.8,10.3,8,10.3c6.2,0,10.8-4.6,13-14.9c2.3-10.8-1.7-14-7.3-14C1219.5,344,1214.9,355.1,1214.9,362.6z"/>
		<path class="st1" d="M1250.1,343.6h1.1l-6.3,29.9h-1.1L1250.1,343.6z M1253.1,329.5h1.1l-1.1,5.1h-1.1L1253.1,329.5z"/>
		<path class="st1" d="M1255.2,364.9c0.1,5,2.7,8.1,8.7,8.1c4.6,0,8.6-2.3,8.6-7.5c0-3.2-1.7-5.3-7.1-7.3c-6-2.3-7.5-4.4-7.5-7.5
			c0-4,3.1-7.6,8.9-7.6c6.7,0,8.8,4.4,8.7,8h-1c-0.1-2.9-1.6-7-7.9-7c-4.6,0-7.6,2.8-7.6,6.5c0,3.1,1.7,4.7,6.9,6.7
			c5.7,2.2,7.7,4.6,7.7,8.1c0,5.4-4,8.6-9.9,8.6c-5.8,0-9.7-2.9-9.6-9.1L1255.2,364.9L1255.2,364.9z"/>
		<path class="st1" d="M1279.5,364.9c0.1,5,2.7,8.1,8.7,8.1c4.6,0,8.6-2.3,8.6-7.5c0-3.2-1.7-5.3-7.1-7.3c-6-2.3-7.5-4.4-7.5-7.5
			c0-4,3.1-7.6,8.9-7.6c6.7,0,8.8,4.4,8.7,8h-1c-0.1-2.9-1.6-7-7.9-7c-4.6,0-7.6,2.8-7.6,6.5c0,3.1,1.7,4.7,6.9,6.7
			c5.7,2.2,7.7,4.6,7.7,8.1c0,5.4-4,8.6-9.9,8.6c-5.8,0-9.7-2.9-9.6-9.1L1279.5,364.9L1279.5,364.9z"/>
		<path class="st1" d="M1328.5,353.7c0,8.5-4,20.3-14.6,20.3c-6.4,0-9.7-4-9.7-11.1c0-8.1,4.3-19.9,14.8-19.9
			C1324.8,343,1328.5,346.6,1328.5,353.7z M1305.3,362.6c0,6.7,3,10.4,8.6,10.4c9.6,0,13.4-10.9,13.4-19.3c0-6-3.1-9.6-8.6-9.6
			C1309.3,344,1305.3,354.8,1305.3,362.6z"/>
		<path class="st1" d="M1355.1,365.6c-2.3,5.3-5.7,8.3-11.9,8.3c-6.3,0-9.7-4.5-9.7-11.6c0-9.4,4.9-19.3,14.5-19.3
			c6.8,0,9.1,4.9,9.1,9.2h-1.1c-0.1-4.1-2-8.2-8.2-8.2c-8.9,0-13.1,10.1-13.1,18.1c0,6.7,3.1,10.9,8.8,10.9c5.3,0,8.4-2.7,10.6-7.3
			L1355.1,365.6L1355.1,365.6z"/>
		<path class="st1" d="M1366.7,343.6h1.1l-6.3,29.9h-1.1L1366.7,343.6z M1369.7,329.5h1.1l-1.1,5.1h-1.1L1369.7,329.5z"/>
		<path class="st1" d="M1374,357.8c-0.5,2.3-0.5,4.1-0.5,5.2c0,6.1,2.9,9.9,8.6,9.9c5.4,0,8.5-3.2,10.5-7.1h1.1
			c-2.5,5.8-6.9,8.1-11.9,8.1c-6.5,0-9.5-4.6-9.5-10.8c0-8.4,4.2-20.2,14.7-20.2c6.6,0,9.1,4.6,9.1,9.5c0,1.6-0.2,3.3-0.7,5.3
			L1374,357.8L1374,357.8z M1394.5,356.8c0.3-1.6,0.4-2.7,0.4-4.2c0-4.8-2.4-8.6-8.1-8.6c-5.9,0-10.6,4.6-12.7,12.8H1394.5z"/>
		<path class="st1" d="M1404,353.9c1.4-6.5,1.6-8,2-10.3h1.1c-0.2,1.1-0.4,2.7-1.7,8.5c2.7-5.5,8.1-8.9,12.3-9l-0.2,1.2
			c-6.1,0.5-11.6,6-13.2,13.6l-3.3,15.6h-1.1L1404,353.9z"/>
		<path class="st1" d="M1461,329.5l-7.8,36.9c-0.5,2.1-1.1,5.5-1.3,7.1h-1c0-0.7,0.6-4.1,1.3-7.3c-2.2,4.4-5.3,7.7-11.6,7.7
			c-5.8,0-8.8-4-8.8-11.2c0-7.7,4.5-19.8,15.1-19.8c5.7,0,8.4,3.5,8.6,7.9l4.4-21.4L1461,329.5L1461,329.5z M1432.8,362.6
			c0,6.7,2.8,10.3,8,10.3c6.2,0,10.8-4.6,13-14.9c2.3-10.8-1.7-14-7.3-14C1437.4,344,1432.8,355.1,1432.8,362.6z"/>
		<path class="st1" d="M1464.1,357.8c-0.5,2.3-0.5,4.1-0.5,5.2c0,6.1,2.9,9.9,8.6,9.9c5.4,0,8.5-3.2,10.5-7.1h1.1
			c-2.5,5.8-6.9,8.1-11.9,8.1c-6.5,0-9.5-4.6-9.5-10.8c0-8.4,4.2-20.2,14.7-20.2c6.6,0,9.1,4.6,9.1,9.5c0,1.6-0.2,3.3-0.7,5.3
			L1464.1,357.8L1464.1,357.8z M1484.6,356.8c0.3-1.6,0.4-2.7,0.4-4.2c0-4.8-2.4-8.6-8.1-8.6c-5.9,0-10.6,4.6-12.7,12.8H1484.6z"/>
		<path class="st1" d="M1503.5,373.5l9.3-44h1.1l-9.3,44H1503.5z"/>
		<path class="st1" d="M1534.2,366.9c-0.5,2.3-1.2,5.8-1.3,6.6h-1.1c0.2-1.5,0.8-4.3,1.3-6.2c-2.5,4.9-5.9,6.7-10.9,6.7
			c-5.9,0-8.1-3.8-8.1-7.4c0-5.6,3.9-9,10.4-10.1c3.4-0.6,9.5-0.8,10.9-0.8l0.7-3.2c0.8-3.8,0.1-8.5-7.3-8.5c-5.8,0-7.9,2.6-9.1,6.8
			h-1.1c1-3.8,3.1-7.9,10.4-7.9c6.8,0,9.4,4,8.2,9.6L1534.2,366.9z M1535.2,356.7c-3.4,0.1-7.3,0.2-10.5,0.7
			c-5.3,0.9-9.4,3.5-9.4,9.1c0,3.8,2.6,6.4,7.1,6.4c5.6,0,10-3.1,11.8-11.8L1535.2,356.7z"/>
		<path class="st1" d="M1561.3,350.4c0.5-2.5,1.1-5.5,1.4-6.8h1.1c-0.1,0.8-0.7,4-1.3,6.4c1.3-2.5,4-7,10-7c4,0,6.7,2,6.7,7.1
			c1.2-2.8,4.5-7.1,10.1-7.1c4.6,0,8.4,2.5,6.7,10.8l-4.2,19.7h-1.2l4.3-19.6c1.2-5.6,0.1-9.8-5.6-9.8c-5.3,0-9.4,4.8-10.7,11.1
			l-3.9,18.4h-1.1l4.2-19.9c1.3-6.1-0.6-9.6-5.5-9.6c-5.9,0-9.8,6.1-11,11.9l-3.7,17.5h-1.1L1561.3,350.4z"/>
		<path class="st1" d="M1621.6,366.9c-0.5,2.3-1.2,5.8-1.3,6.6h-1.1c0.2-1.5,0.8-4.3,1.3-6.2c-2.5,4.9-5.9,6.7-10.9,6.7
			c-5.9,0-8.1-3.8-8.1-7.4c0-5.6,3.9-9,10.4-10.1c3.4-0.6,9.5-0.8,10.9-0.8l0.7-3.2c0.8-3.8,0.1-8.5-7.3-8.5c-5.8,0-7.9,2.6-9.1,6.8
			h-1.1c1-3.8,3.1-7.9,10.4-7.9c6.8,0,9.4,4,8.2,9.6L1621.6,366.9z M1622.7,356.7c-3.4,0.1-7.3,0.2-10.5,0.7
			c-5.3,0.9-9.4,3.5-9.4,9.1c0,3.8,2.6,6.4,7.1,6.4c5.6,0,10-3.1,11.8-11.8L1622.7,356.7z"/>
		<path class="st1" d="M1630.6,364.9c0.1,5,2.7,8.1,8.7,8.1c4.6,0,8.6-2.3,8.6-7.5c0-3.2-1.7-5.3-7.1-7.3c-6-2.3-7.5-4.4-7.5-7.5
			c0-4,3.1-7.6,8.9-7.6c6.7,0,8.8,4.4,8.7,8h-1c-0.1-2.9-1.6-7-7.9-7c-4.6,0-7.6,2.8-7.6,6.5c0,3.1,1.7,4.7,6.9,6.7
			c5.7,2.2,7.7,4.6,7.7,8.1c0,5.4-4,8.6-9.9,8.6c-5.8,0-9.7-2.9-9.6-9.1L1630.6,364.9L1630.6,364.9z"/>
		<path class="st1" d="M1654.9,364.9c0.1,5,2.7,8.1,8.7,8.1c4.6,0,8.6-2.3,8.6-7.5c0-3.2-1.7-5.3-7.1-7.3c-6-2.3-7.5-4.4-7.5-7.5
			c0-4,3.1-7.6,8.9-7.6c6.7,0,8.8,4.4,8.7,8h-1c-0.1-2.9-1.6-7-7.9-7c-4.6,0-7.6,2.8-7.6,6.5c0,3.1,1.7,4.7,6.9,6.7
			c5.7,2.2,7.7,4.6,7.7,8.1c0,5.4-4,8.6-9.9,8.6c-5.8,0-9.7-2.9-9.6-9.1L1654.9,364.9L1654.9,364.9z"/>
		<path class="st1" d="M1681.3,357.8c-0.5,2.3-0.5,4.1-0.5,5.2c0,6.1,2.9,9.9,8.6,9.9c5.4,0,8.5-3.2,10.5-7.1h1.1
			c-2.5,5.8-6.9,8.1-11.9,8.1c-6.5,0-9.5-4.6-9.5-10.8c0-8.4,4.2-20.2,14.7-20.2c6.6,0,9.1,4.6,9.1,9.5c0,1.6-0.2,3.3-0.7,5.3
			L1681.3,357.8L1681.3,357.8z M1701.8,356.8c0.3-1.6,0.4-2.7,0.4-4.2c0-4.8-2.4-8.6-8.1-8.6c-5.9,0-10.6,4.6-12.7,12.8H1701.8z"/>
		<path class="st1" d="M1702.5,380.8c2.5-3.2,4.9-8.8,6.1-13.6h1.1c-1.4,6.6-4.6,11.8-6,13.6H1702.5z"/>
		<path class="st1" d="M239.4,436.9c0.1,5,2.7,8.1,8.7,8.1c4.6,0,8.6-2.3,8.6-7.5c0-3.2-1.7-5.3-7.1-7.3c-6-2.3-7.5-4.4-7.5-7.5
			c0-4,3.1-7.6,8.9-7.6c6.7,0,8.8,4.4,8.7,8h-1c-0.1-2.9-1.6-7-7.9-7c-4.6,0-7.6,2.8-7.6,6.5c0,3.1,1.7,4.7,6.9,6.7
			c5.7,2.2,7.7,4.6,7.7,8.1c0,5.4-4,8.6-9.9,8.6c-5.8,0-9.7-2.9-9.6-9.1L239.4,436.9L239.4,436.9z"/>
		<path class="st1" d="M283,438.9c-0.5,2.3-1.2,5.8-1.3,6.6h-1.1c0.2-1.5,0.8-4.3,1.3-6.2c-2.5,4.9-5.9,6.7-10.9,6.7
			c-5.9,0-8.1-3.8-8.1-7.4c0-5.6,3.9-9,10.4-10.1c3.4-0.6,9.5-0.8,10.9-0.8l0.7-3.2c0.8-3.8,0.1-8.5-7.3-8.5c-5.8,0-7.9,2.6-9.1,6.8
			h-1.1c1-3.8,3.1-7.9,10.4-7.9c6.8,0,9.4,4,8.2,9.6L283,438.9z M284,428.7c-3.4,0.1-7.3,0.2-10.5,0.7c-5.3,0.9-9.4,3.5-9.4,9.1
			c0,3.8,2.6,6.4,7.1,6.4c5.6,0,10-3.1,11.8-11.8L284,428.7z"/>
		<path class="st1" d="M296.4,422.9c0.5-2.6,1.3-6.1,1.5-7.3h1.1c-0.2,1.4-0.8,4.3-1.4,7.1c1.7-3.5,4.8-7.7,11.3-7.7
			c4.7,0,9.1,2.8,7.3,11.2l-4.1,19.3H311l4.1-19.4c1.3-5.9-0.8-10-6.4-10c-7.4,0-11.1,6.6-12.6,13.7l-3.3,15.8h-1.1L296.4,422.9z"/>
		<path class="st1" d="M322.4,436.9c0.1,5,2.7,8.1,8.7,8.1c4.6,0,8.6-2.3,8.6-7.5c0-3.2-1.7-5.3-7.1-7.3c-6-2.3-7.5-4.4-7.5-7.5
			c0-4,3.1-7.6,8.9-7.6c6.7,0,8.8,4.4,8.7,8h-1c-0.1-2.9-1.6-7-7.9-7c-4.6,0-7.6,2.8-7.6,6.5c0,3.1,1.7,4.7,6.9,6.7
			c5.7,2.2,7.7,4.6,7.7,8.1c0,5.4-4,8.6-9.9,8.6c-5.8,0-9.7-2.9-9.6-9.1L322.4,436.9L322.4,436.9z"/>
		<path class="st1" d="M382.2,437.6c-2.3,5.3-5.7,8.3-11.9,8.3c-6.3,0-9.7-4.5-9.7-11.6c0-9.4,4.9-19.3,14.5-19.3
			c6.8,0,9.1,4.9,9.1,9.2H383c-0.1-4.1-2-8.2-8.2-8.2c-8.9,0-13.1,10.1-13.1,18.1c0,6.7,3.1,10.9,8.8,10.9c5.3,0,8.4-2.7,10.6-7.3
			L382.2,437.6L382.2,437.6z"/>
		<path class="st1" d="M389.9,429.8c-0.5,2.3-0.5,4.1-0.5,5.2c0,6.1,2.9,9.9,8.6,9.9c5.4,0,8.5-3.2,10.5-7.1h1.1
			c-2.5,5.8-6.9,8.1-11.9,8.1c-6.5,0-9.5-4.6-9.5-10.8c0-8.4,4.2-20.2,14.7-20.2c6.6,0,9.1,4.6,9.1,9.5c0,1.6-0.2,3.3-0.7,5.3
			L389.9,429.8L389.9,429.8z M410.4,428.8c0.3-1.6,0.4-2.7,0.4-4.2c0-4.8-2.4-8.6-8.1-8.6c-5.9,0-10.6,4.6-12.7,12.8H410.4z"/>
		<path class="st1" d="M415.7,445.5l9.3-44h1.1l-9.3,44H415.7z"/>
		<path class="st1" d="M446.4,438.9c-0.5,2.3-1.2,5.8-1.3,6.6H444c0.2-1.5,0.8-4.3,1.3-6.2c-2.5,4.9-5.9,6.7-10.9,6.7
			c-5.9,0-8.1-3.8-8.1-7.4c0-5.6,3.9-9,10.4-10.1c3.4-0.6,9.5-0.8,10.9-0.8l0.7-3.2c0.8-3.8,0.1-8.5-7.3-8.5c-5.8,0-7.9,2.6-9.1,6.8
			h-1.1c1-3.8,3.1-7.9,10.4-7.9c6.8,0,9.4,4,8.2,9.6L446.4,438.9z M447.5,428.7c-3.4,0.1-7.3,0.2-10.5,0.7c-5.3,0.9-9.4,3.5-9.4,9.1
			c0,3.8,2.6,6.4,7.1,6.4c5.6,0,10-3.1,11.8-11.8L447.5,428.7z"/>
		<path class="st1" d="M473.4,422.9c0.5-2.6,1.3-6.1,1.5-7.3h1.1c-0.2,1.4-0.8,4.3-1.4,7.1c1.7-3.5,4.8-7.7,11.3-7.7
			c4.7,0,9.1,2.8,7.3,11.2l-4.1,19.3H488l4.1-19.4c1.3-5.9-0.8-10-6.4-10c-7.4,0-11.1,6.6-12.6,13.7l-3.3,15.8h-1.1L473.4,422.9z"/>
		<path class="st1" d="M524.1,425.7c0,8.5-4,20.3-14.6,20.3c-6.4,0-9.7-4-9.7-11.1c0-8.1,4.3-19.9,14.8-19.9
			C520.3,415,524.1,418.6,524.1,425.7z M500.9,434.6c0,6.7,3,10.4,8.6,10.4c9.6,0,13.4-10.9,13.4-19.3c0-6-3.1-9.6-8.6-9.6
			C504.9,416,500.9,426.8,500.9,434.6z"/>
		<path class="st1" d="M550.3,437.6c-0.6,2.9-1.4,6.5-1.6,7.9h-1.1c0.1-0.6,0.7-4,1.4-7c-2.1,4.2-5.3,7.4-11.4,7.4
			c-4,0-8.9-1.9-7-10.8l4.1-19.6h1.1l-4.2,19.9c-1,4.6-0.1,9.4,6.1,9.4c5.5,0,10.5-3.5,12.4-12.5l3.5-16.9h1.1L550.3,437.6z"/>
		<path class="st1" d="M558.9,436.9c0.1,5,2.7,8.1,8.7,8.1c4.6,0,8.6-2.3,8.6-7.5c0-3.2-1.7-5.3-7.1-7.3c-6-2.3-7.5-4.4-7.5-7.5
			c0-4,3.1-7.6,8.9-7.6c6.7,0,8.8,4.4,8.7,8h-1c-0.1-2.9-1.6-7-7.9-7c-4.6,0-7.6,2.8-7.6,6.5c0,3.1,1.7,4.7,6.9,6.7
			c5.7,2.2,7.7,4.6,7.7,8.1c0,5.4-4,8.6-9.9,8.6c-5.8,0-9.7-2.9-9.6-9.1L558.9,436.9L558.9,436.9z"/>
		<path class="st1" d="M601.2,422.9c0.5-2.6,1.3-6.1,1.5-7.3h1.1c-0.2,1.4-0.8,4.3-1.4,7.1c1.7-3.5,4.8-7.7,11.3-7.7
			c4.7,0,9.1,2.8,7.3,11.2l-4.1,19.3h-1.1l4.1-19.4c1.3-5.9-0.8-10-6.4-10c-7.4,0-11.1,6.6-12.6,13.7l-3.3,15.8h-1.1L601.2,422.9z"
			/>
		<path class="st1" d="M629.4,429.8c-0.5,2.3-0.5,4.1-0.5,5.2c0,6.1,2.9,9.9,8.6,9.9c5.4,0,8.5-3.2,10.5-7.1h1.1
			c-2.5,5.8-6.9,8.1-11.9,8.1c-6.5,0-9.5-4.6-9.5-10.8c0-8.4,4.2-20.2,14.7-20.2c6.6,0,9.1,4.6,9.1,9.5c0,1.6-0.2,3.3-0.7,5.3
			L629.4,429.8L629.4,429.8z M649.9,428.8c0.3-1.6,0.4-2.7,0.4-4.2c0-4.8-2.4-8.6-8.1-8.6c-5.9,0-10.6,4.6-12.7,12.8H649.9z"/>
		<path class="st1" d="M669.1,436.9c0.1,5,2.7,8.1,8.7,8.1c4.6,0,8.6-2.3,8.6-7.5c0-3.2-1.7-5.3-7.1-7.3c-6-2.3-7.5-4.4-7.5-7.5
			c0-4,3.1-7.6,8.9-7.6c6.7,0,8.8,4.4,8.7,8h-1c-0.1-2.9-1.6-7-7.9-7c-4.6,0-7.6,2.8-7.6,6.5c0,3.1,1.7,4.7,6.9,6.7
			c5.7,2.2,7.7,4.6,7.7,8.1c0,5.4-4,8.6-9.9,8.6c-5.8,0-9.7-2.9-9.6-9.1L669.1,436.9L669.1,436.9z"/>
		<path class="st1" d="M718,425.7c0,8.5-4,20.3-14.6,20.3c-6.4,0-9.7-4-9.7-11.1c0-8.1,4.3-19.9,14.8-19.9
			C714.3,415,718,418.6,718,425.7z M694.8,434.6c0,6.7,3,10.4,8.6,10.4c9.6,0,13.4-10.9,13.4-19.3c0-6-3.1-9.6-8.6-9.6
			C698.8,416,694.8,426.8,694.8,434.6z"/>
		<path class="st1" d="M727.3,422.4c0.5-2.5,1.1-5.5,1.4-6.8h1.1c-0.1,0.8-0.7,4-1.3,6.4c1.3-2.5,4-7,10-7c4,0,6.7,2,6.7,7.1
			c1.2-2.8,4.5-7.1,10.1-7.1c4.6,0,8.4,2.5,6.7,10.8l-4.2,19.7h-1.2l4.3-19.6c1.2-5.6,0.1-9.8-5.6-9.8c-5.3,0-9.4,4.8-10.7,11.1
			l-3.9,18.4h-1.1l4.2-19.9c1.3-6.1-0.6-9.6-5.5-9.6c-5.9,0-9.8,6.1-11,11.9l-3.7,17.5h-1.1L727.3,422.4z"/>
		<path class="st1" d="M773,422.4c0.5-2.5,1.1-5.5,1.4-6.8h1.1c-0.1,0.8-0.7,4-1.3,6.4c1.3-2.5,4-7,10-7c4,0,6.7,2,6.7,7.1
			c1.2-2.8,4.5-7.1,10.1-7.1c4.6,0,8.4,2.5,6.7,10.8l-4.2,19.7h-1.2l4.3-19.6c1.2-5.6,0.1-9.8-5.6-9.8c-5.3,0-9.4,4.8-10.7,11.1
			l-3.9,18.4h-1.1l4.2-19.9c1.3-6.1-0.6-9.6-5.5-9.6c-5.9,0-9.8,6.1-11,11.9l-3.7,17.5h-1.1L773,422.4z"/>
		<path class="st1" d="M816.1,429.8c-0.5,2.3-0.5,4.1-0.5,5.2c0,6.1,2.9,9.9,8.6,9.9c5.4,0,8.5-3.2,10.5-7.1h1.1
			c-2.5,5.8-6.9,8.1-11.9,8.1c-6.5,0-9.5-4.6-9.5-10.8c0-8.4,4.2-20.2,14.7-20.2c6.6,0,9.1,4.6,9.1,9.5c0,1.6-0.2,3.3-0.7,5.3
			L816.1,429.8L816.1,429.8z M836.6,428.8c0.3-1.6,0.4-2.7,0.4-4.2c0-4.8-2.4-8.6-8.1-8.6c-5.9,0-10.6,4.6-12.7,12.8H836.6z"/>
		<path class="st1" d="M842.2,436.9c0.1,5,2.7,8.1,8.7,8.1c4.6,0,8.6-2.3,8.6-7.5c0-3.2-1.7-5.3-7.1-7.3c-6-2.3-7.5-4.4-7.5-7.5
			c0-4,3.1-7.6,8.9-7.6c6.7,0,8.8,4.4,8.7,8h-1c-0.1-2.9-1.6-7-7.9-7c-4.6,0-7.6,2.8-7.6,6.5c0,3.1,1.7,4.7,6.9,6.7
			c5.7,2.2,7.7,4.6,7.7,8.1c0,5.4-4,8.6-9.9,8.6c-5.8,0-9.7-2.9-9.6-9.1L842.2,436.9L842.2,436.9z"/>
		<path class="st1" d="M900.5,438.4c-1.6,3.3-4.7,7.6-11.3,7.6c-5.2,0-8.9-3.6-8.9-10.9c0-8.3,5-20.1,15.1-20.1c7,0,8.5,5.2,8.6,7.2
			c0.5-2.8,1.1-4.9,1.5-6.6h1.1c-0.4,1.4-1.3,5.8-1.8,8l-7.3,34.4h-1.1L900.5,438.4z M881.4,435.1c0,5.8,2.5,9.9,8,9.9
			c6.3,0,10.8-4.7,13-14.8c2.2-10-1-14.1-7.2-14.1C886.4,416,881.4,426.7,881.4,435.1z"/>
		<path class="st1" d="M932,437.6c-0.6,2.9-1.4,6.5-1.6,7.9h-1.1c0.1-0.6,0.7-4,1.4-7c-2.1,4.2-5.3,7.4-11.4,7.4
			c-4,0-8.9-1.9-7-10.8l4.1-19.6h1.1l-4.2,19.9c-1,4.6-0.1,9.4,6.1,9.4c5.5,0,10.5-3.5,12.4-12.5l3.5-16.9h1.1L932,437.6z"/>
		<path class="st1" d="M942.7,429.8c-0.5,2.3-0.5,4.1-0.5,5.2c0,6.1,2.9,9.9,8.6,9.9c5.4,0,8.5-3.2,10.5-7.1h1.1
			c-2.5,5.8-6.9,8.1-11.9,8.1c-6.5,0-9.5-4.6-9.5-10.8c0-8.4,4.2-20.2,14.7-20.2c6.6,0,9.1,4.6,9.1,9.5c0,1.6-0.2,3.3-0.7,5.3
			L942.7,429.8L942.7,429.8z M963.2,428.8c0.3-1.6,0.4-2.7,0.4-4.2c0-4.8-2.4-8.6-8.1-8.6c-5.9,0-10.6,4.6-12.7,12.8H963.2z"/>
		<path class="st1" d="M982.1,445.5l9.3-44h1.1l-9.3,44H982.1z"/>
		<path class="st1" d="M995.6,429.8c-0.5,2.3-0.5,4.1-0.5,5.2c0,6.1,2.9,9.9,8.6,9.9c5.4,0,8.5-3.2,10.5-7.1h1.1
			c-2.5,5.8-6.9,8.1-11.9,8.1c-6.5,0-9.5-4.6-9.5-10.8c0-8.4,4.2-20.2,14.7-20.2c6.6,0,9.1,4.6,9.1,9.5c0,1.6-0.2,3.3-0.7,5.3
			L995.6,429.8L995.6,429.8z M1016.1,428.8c0.3-1.6,0.4-2.7,0.4-4.2c0-4.8-2.4-8.6-8.1-8.6c-5.9,0-10.6,4.6-12.7,12.8H1016.1z"/>
		<path class="st1" d="M1021.8,436.9c0.1,5,2.7,8.1,8.7,8.1c4.6,0,8.6-2.3,8.6-7.5c0-3.2-1.7-5.3-7.1-7.3c-6-2.3-7.5-4.4-7.5-7.5
			c0-4,3.1-7.6,8.9-7.6c6.7,0,8.8,4.4,8.7,8h-1c-0.1-2.9-1.6-7-7.9-7c-4.6,0-7.6,2.8-7.6,6.5c0,3.1,1.7,4.7,6.9,6.7
			c5.7,2.2,7.7,4.6,7.7,8.1c0,5.4-4,8.6-9.9,8.6c-5.8,0-9.7-2.9-9.6-9.1L1021.8,436.9L1021.8,436.9z"/>
		<path class="st1" d="M1063.5,425.9c1.4-6.5,1.6-8,2-10.3h1.1c-0.2,1.1-0.4,2.7-1.7,8.5c2.7-5.5,8.1-8.9,12.3-9l-0.2,1.2
			c-6.1,0.5-11.6,6-13.2,13.6l-3.3,15.6h-1.1L1063.5,425.9z"/>
		<path class="st1" d="M1101.9,425.7c0,8.5-4,20.3-14.6,20.3c-6.4,0-9.7-4-9.7-11.1c0-8.1,4.3-19.9,14.8-19.9
			C1098.2,415,1101.9,418.6,1101.9,425.7z M1078.7,434.6c0,6.7,3,10.4,8.6,10.4c9.6,0,13.4-10.9,13.4-19.3c0-6-3.1-9.6-8.6-9.6
			C1082.7,416,1078.7,426.8,1078.7,434.6z"/>
		<path class="st1" d="M1128.2,437.6c-0.6,2.9-1.4,6.5-1.6,7.9h-1.1c0.1-0.6,0.7-4,1.4-7c-2.1,4.2-5.3,7.4-11.4,7.4
			c-4,0-8.9-1.9-7-10.8l4.1-19.6h1.1l-4.2,19.9c-1,4.6-0.1,9.4,6.1,9.4c5.5,0,10.5-3.5,12.4-12.5l3.5-16.9h1.1L1128.2,437.6z"/>
		<path class="st1" d="M1156.1,438.9c-0.5,2.3-1.2,5.8-1.3,6.6h-1.1c0.2-1.5,0.8-4.3,1.3-6.2c-2.5,4.9-5.9,6.7-10.9,6.7
			c-5.9,0-8.1-3.8-8.1-7.4c0-5.6,3.9-9,10.4-10.1c3.4-0.6,9.5-0.8,10.9-0.8l0.7-3.2c0.8-3.8,0.1-8.5-7.3-8.5c-5.8,0-7.9,2.6-9.1,6.8
			h-1.1c1-3.8,3.1-7.9,10.4-7.9c6.8,0,9.4,4,8.2,9.6L1156.1,438.9z M1157.1,428.7c-3.4,0.1-7.3,0.2-10.5,0.7
			c-5.3,0.9-9.4,3.5-9.4,9.1c0,3.8,2.6,6.4,7.1,6.4c5.6,0,10-3.1,11.8-11.8L1157.1,428.7z"/>
		<path class="st1" d="M1185.2,444.8c-1.8,8.5-4.3,13.6-13.3,13.6c-7.6,0-9.7-4.7-9.6-8.3h1.1c0.1,4.4,3,7.3,8.7,7.3
			c8.1,0,10.3-4.9,11.9-12.7l1.4-6.3c-2,4.2-5.8,7.1-10.9,7.1c-5.3,0-9.1-3.7-9.1-11c0-7.9,4.5-19.5,14.7-19.5
			c6.3,0,8.3,4.1,8.6,7.4c0.5-2.2,1.3-5.9,1.6-6.8h1.1c-0.4,1.2-1,4.1-1.9,8.2L1185.2,444.8z M1166.6,434.5c0,6.8,3.4,10,8.1,10
			c7.8,0,10.9-6.7,12.5-14.2c1.7-8,0.7-14.3-7.3-14.3C1171.1,416,1166.6,426.8,1166.6,434.5z"/>
		<path class="st1" d="M1197.4,429.8c-0.5,2.3-0.5,4.1-0.5,5.2c0,6.1,2.9,9.9,8.6,9.9c5.4,0,8.5-3.2,10.5-7.1h1.1
			c-2.5,5.8-6.9,8.1-11.9,8.1c-6.5,0-9.5-4.6-9.5-10.8c0-8.4,4.2-20.2,14.7-20.2c6.6,0,9.1,4.6,9.1,9.5c0,1.6-0.2,3.3-0.7,5.3
			L1197.4,429.8L1197.4,429.8z M1217.9,428.8c0.3-1.6,0.4-2.7,0.4-4.2c0-4.8-2.4-8.6-8.1-8.6c-5.9,0-10.6,4.6-12.7,12.8H1217.9z"/>
		<path class="st1" d="M1223.6,436.9c0.1,5,2.7,8.1,8.7,8.1c4.6,0,8.6-2.3,8.6-7.5c0-3.2-1.7-5.3-7.1-7.3c-6-2.3-7.5-4.4-7.5-7.5
			c0-4,3.1-7.6,8.9-7.6c6.7,0,8.8,4.4,8.7,8h-1c-0.1-2.9-1.6-7-7.9-7c-4.6,0-7.6,2.8-7.6,6.5c0,3.1,1.7,4.7,6.9,6.7
			c5.7,2.2,7.7,4.6,7.7,8.1c0,5.4-4,8.6-9.9,8.6c-5.8,0-9.7-2.9-9.6-9.1L1223.6,436.9L1223.6,436.9z"/>
		<path class="st1" d="M1291.1,401.5l-7.8,36.9c-0.5,2.1-1.1,5.5-1.3,7.1h-1c0-0.7,0.6-4.1,1.3-7.3c-2.2,4.4-5.3,7.7-11.6,7.7
			c-5.8,0-8.8-4-8.8-11.2c0-7.7,4.5-19.8,15.1-19.8c5.7,0,8.4,3.5,8.6,7.9l4.4-21.4L1291.1,401.5L1291.1,401.5z M1263,434.6
			c0,6.7,2.8,10.3,8,10.3c6.2,0,10.8-4.6,13-14.9c2.3-10.8-1.7-14-7.3-14C1267.6,416,1263,427.1,1263,434.6z"/>
		<path class="st1" d="M1313.7,437.6c-0.6,2.9-1.4,6.5-1.6,7.9h-1.1c0.1-0.6,0.7-4,1.4-7c-2.1,4.2-5.3,7.4-11.4,7.4
			c-4,0-8.9-1.9-7-10.8l4.1-19.6h1.1l-4.2,19.9c-1,4.6-0.1,9.4,6.1,9.4c5.5,0,10.5-3.5,12.4-12.5l3.5-16.9h1.1L1313.7,437.6z"/>
		<path class="st1" d="M1340.4,422.4c0.5-2.5,1.1-5.5,1.4-6.8h1.1c-0.1,0.8-0.7,4-1.3,6.4c1.3-2.5,4-7,10-7c4,0,6.7,2,6.7,7.1
			c1.2-2.8,4.5-7.1,10.1-7.1c4.6,0,8.4,2.5,6.7,10.8l-4.2,19.7h-1.2l4.3-19.6c1.2-5.6,0.1-9.8-5.6-9.8c-5.3,0-9.4,4.8-10.7,11.1
			l-3.9,18.4h-1.1l4.2-19.9c1.3-6.1-0.6-9.6-5.5-9.6c-5.9,0-9.8,6.1-11,11.9l-3.7,17.5h-1.1L1340.4,422.4z"/>
		<path class="st1" d="M1383.5,429.8c-0.5,2.3-0.5,4.1-0.5,5.2c0,6.1,2.9,9.9,8.6,9.9c5.4,0,8.5-3.2,10.5-7.1h1.1
			c-2.5,5.8-6.9,8.1-11.9,8.1c-6.5,0-9.5-4.6-9.5-10.8c0-8.4,4.2-20.2,14.7-20.2c6.6,0,9.1,4.6,9.1,9.5c0,1.6-0.2,3.3-0.7,5.3
			L1383.5,429.8L1383.5,429.8z M1404,428.8c0.3-1.6,0.4-2.7,0.4-4.2c0-4.8-2.4-8.6-8.1-8.6c-5.9,0-10.6,4.6-12.7,12.8H1404z
			 M1407.6,400.4l-10.1,9.2h-1.4l10.1-9.2H1407.6z"/>
		<path class="st1" d="M1431.6,437.6c-2.3,5.3-5.7,8.3-11.9,8.3c-6.3,0-9.7-4.5-9.7-11.6c0-9.4,4.9-19.3,14.5-19.3
			c6.8,0,9.1,4.9,9.1,9.2h-1.1c-0.1-4.1-2-8.2-8.2-8.2c-8.9,0-13.1,10.1-13.1,18.1c0,6.7,3.1,10.9,8.8,10.9c5.3,0,8.4-2.7,10.6-7.3
			L1431.6,437.6L1431.6,437.6z"/>
		<path class="st1" d="M1456.5,438.9c-0.5,2.3-1.2,5.8-1.3,6.6h-1.1c0.2-1.5,0.8-4.3,1.3-6.2c-2.5,4.9-5.9,6.7-10.9,6.7
			c-5.9,0-8.1-3.8-8.1-7.4c0-5.6,3.9-9,10.4-10.1c3.4-0.6,9.5-0.8,10.9-0.8l0.7-3.2c0.8-3.8,0.1-8.5-7.3-8.5c-5.8,0-7.9,2.6-9.1,6.8
			h-1.1c1-3.8,3.1-7.9,10.4-7.9c6.8,0,9.4,4,8.2,9.6L1456.5,438.9z M1457.5,428.7c-3.4,0.1-7.3,0.2-10.5,0.7
			c-5.3,0.9-9.4,3.5-9.4,9.1c0,3.8,2.6,6.4,7.1,6.4c5.6,0,10-3.1,11.8-11.8L1457.5,428.7z"/>
		<path class="st1" d="M1469.8,422.9c0.5-2.6,1.3-6.1,1.5-7.3h1.1c-0.2,1.4-0.8,4.3-1.4,7.1c1.7-3.5,4.8-7.7,11.3-7.7
			c4.7,0,9.1,2.8,7.3,11.2l-4.1,19.3h-1.1l4.1-19.4c1.3-5.9-0.8-10-6.4-10c-7.4,0-11.1,6.6-12.6,13.7l-3.3,15.8h-1.1L1469.8,422.9z"
			/>
		<path class="st1" d="M1501.9,415.6h1.1l-6.3,29.9h-1.1L1501.9,415.6z M1504.9,401.5h1.1l-1.1,5.1h-1.1L1504.9,401.5z"/>
		<path class="st1" d="M1507,436.9c0.1,5,2.7,8.1,8.7,8.1c4.6,0,8.6-2.3,8.6-7.5c0-3.2-1.7-5.3-7.1-7.3c-6-2.3-7.5-4.4-7.5-7.5
			c0-4,3.1-7.6,8.9-7.6c6.7,0,8.8,4.4,8.7,8h-1c-0.1-2.9-1.6-7-7.9-7c-4.6,0-7.6,2.8-7.6,6.5c0,3.1,1.7,4.7,6.9,6.7
			c5.7,2.2,7.7,4.6,7.7,8.1c0,5.4-4,8.6-9.9,8.6c-5.8,0-9.7-2.9-9.6-9.1L1507,436.9L1507,436.9z"/>
		<path class="st1" d="M1535.9,422.4c0.5-2.5,1.1-5.5,1.4-6.8h1.1c-0.1,0.8-0.7,4-1.3,6.4c1.3-2.5,4-7,10-7c4,0,6.7,2,6.7,7.1
			c1.2-2.8,4.5-7.1,10.1-7.1c4.6,0,8.4,2.5,6.7,10.8l-4.2,19.7h-1.2l4.3-19.6c1.2-5.6,0.1-9.8-5.6-9.8c-5.3,0-9.4,4.8-10.7,11.1
			l-3.9,18.4h-1.1l4.2-19.9c1.3-6.1-0.6-9.6-5.5-9.6c-5.9,0-9.8,6.1-11,11.9l-3.7,17.5h-1.1L1535.9,422.4z"/>
		<path class="st1" d="M1579,429.8c-0.5,2.3-0.5,4.1-0.5,5.2c0,6.1,2.9,9.9,8.6,9.9c5.4,0,8.5-3.2,10.5-7.1h1.1
			c-2.5,5.8-6.9,8.1-11.9,8.1c-6.5,0-9.5-4.6-9.5-10.8c0-8.4,4.2-20.2,14.7-20.2c6.6,0,9.1,4.6,9.1,9.5c0,1.6-0.2,3.3-0.7,5.3
			L1579,429.8L1579,429.8z M1599.6,428.8c0.3-1.6,0.4-2.7,0.4-4.2c0-4.8-2.4-8.6-8.1-8.6c-5.9,0-10.6,4.6-12.7,12.8H1599.6z"/>
		<path class="st1" d="M1648.5,401.5l-7.8,36.9c-0.5,2.1-1.1,5.5-1.3,7.1h-1c0-0.7,0.6-4.1,1.3-7.3c-2.2,4.4-5.3,7.7-11.6,7.7
			c-5.8,0-8.8-4-8.8-11.2c0-7.7,4.5-19.8,15.1-19.8c5.7,0,8.4,3.5,8.6,7.9l4.4-21.4L1648.5,401.5L1648.5,401.5z M1620.3,434.6
			c0,6.7,2.8,10.3,8,10.3c6.2,0,10.8-4.6,13-14.9c2.3-10.8-1.7-14-7.3-14C1624.9,416,1620.3,427.1,1620.3,434.6z"/>
		<path class="st1" d="M1651.6,429.8c-0.5,2.3-0.5,4.1-0.5,5.2c0,6.1,2.9,9.9,8.6,9.9c5.4,0,8.5-3.2,10.5-7.1h1.1
			c-2.5,5.8-6.9,8.1-11.9,8.1c-6.5,0-9.5-4.6-9.5-10.8c0-8.4,4.2-20.2,14.7-20.2c6.6,0,9.1,4.6,9.1,9.5c0,1.6-0.2,3.3-0.7,5.3
			L1651.6,429.8L1651.6,429.8z M1672.1,428.8c0.3-1.6,0.4-2.7,0.4-4.2c0-4.8-2.4-8.6-8.1-8.6c-5.9,0-10.6,4.6-12.7,12.8H1672.1z"/>
		<path class="st1" d="M239.1,517.5l9.3-44h1.1l-9.3,44H239.1z"/>
		<path class="st1" d="M269.8,510.9c-0.5,2.3-1.2,5.8-1.3,6.6h-1.1c0.2-1.5,0.8-4.3,1.3-6.2c-2.5,4.9-5.9,6.7-10.9,6.7
			c-5.9,0-8.1-3.8-8.1-7.4c0-5.6,3.9-9,10.4-10.1c3.4-0.6,9.5-0.8,10.9-0.8l0.7-3.2c0.8-3.8,0.1-8.5-7.3-8.5c-5.8,0-7.9,2.6-9.1,6.8
			h-1.1c1-3.8,3.1-7.9,10.4-7.9c6.8,0,9.4,4,8.2,9.6L269.8,510.9z M270.8,500.7c-3.4,0.1-7.3,0.2-10.5,0.7c-5.3,0.9-9.4,3.5-9.4,9.1
			c0,3.8,2.6,6.4,7.1,6.4c5.6,0,10-3.1,11.8-11.8L270.8,500.7z"/>
		<path class="st1" d="M296.9,494.4c0.5-2.5,1.1-5.5,1.4-6.8h1.1c-0.1,0.8-0.7,4-1.3,6.4c1.3-2.5,4-7,10-7c4,0,6.7,2,6.7,7.1
			c1.2-2.8,4.5-7.1,10.1-7.1c4.6,0,8.4,2.5,6.7,10.8l-4.2,19.7h-1.2l4.3-19.6c1.2-5.6,0.1-9.8-5.6-9.8c-5.3,0-9.4,4.8-10.7,11.1
			l-3.9,18.4h-1.1l4.2-19.9c1.3-6.1-0.6-9.6-5.5-9.6c-5.9,0-9.8,6.1-11,11.9l-3.7,17.5H292L296.9,494.4z"/>
		<path class="st1" d="M357.2,510.9c-0.5,2.3-1.2,5.8-1.3,6.6h-1.1c0.2-1.5,0.8-4.3,1.3-6.2c-2.5,4.9-5.9,6.7-10.9,6.7
			c-5.9,0-8.1-3.8-8.1-7.4c0-5.6,3.9-9,10.4-10.1c3.4-0.6,9.5-0.8,10.9-0.8l0.7-3.2c0.8-3.8,0.1-8.5-7.3-8.5c-5.8,0-7.9,2.6-9.1,6.8
			h-1.1c1-3.8,3.1-7.9,10.4-7.9c6.8,0,9.4,4,8.2,9.6L357.2,510.9z M358.2,500.7c-3.4,0.1-7.3,0.2-10.5,0.7c-5.3,0.9-9.4,3.5-9.4,9.1
			c0,3.8,2.6,6.4,7.1,6.4c5.6,0,10-3.1,11.8-11.8L358.2,500.7z"/>
		<path class="st1" d="M388.1,509.6c-2.3,5.3-5.7,8.3-11.9,8.3c-6.3,0-9.7-4.5-9.7-11.6c0-9.4,4.9-19.3,14.5-19.3
			c6.8,0,9.1,4.9,9.1,9.2h-1.1c-0.1-4.1-2-8.2-8.2-8.2c-8.9,0-13.1,10.1-13.1,18.1c0,6.7,3.1,10.9,8.8,10.9c5.3,0,8.4-2.7,10.6-7.3
			H388.1z"/>
		<path class="st1" d="M403.8,473.5l-4.4,20.9c1.6-3.1,4.6-7.4,11.2-7.4c5.8,0,8.9,3.5,7.4,10.9l-4.1,19.6h-1.1l4.1-19.4
			c1.4-6.4-0.4-10.1-6.4-10.1c-6.9,0-10.8,5.7-12.2,12.5l-3.6,16.9h-1.1l9.3-44H403.8z"/>
		<path class="st1" d="M430.1,487.6h1.1l-6.3,29.9h-1.1L430.1,487.6z M433.1,473.5h1.1l-1.1,5.1H432L433.1,473.5z"/>
		<path class="st1" d="M439.7,494.9c0.5-2.6,1.3-6.1,1.5-7.3h1.1c-0.2,1.4-0.8,4.3-1.4,7.1c1.7-3.5,4.8-7.7,11.3-7.7
			c4.7,0,9.1,2.8,7.3,11.2l-4.1,19.3h-1.1l4.1-19.4c1.3-5.9-0.8-10-6.4-10c-7.4,0-11.1,6.6-12.6,13.7l-3.3,15.8H435L439.7,494.9z"/>
		<path class="st1" d="M467.9,501.8c-0.5,2.3-0.5,4.1-0.5,5.2c0,6.1,2.9,9.9,8.6,9.9c5.4,0,8.5-3.2,10.5-7.1h1.1
			c-2.5,5.8-6.9,8.1-11.9,8.1c-6.5,0-9.5-4.6-9.5-10.8c0-8.4,4.2-20.2,14.7-20.2c6.6,0,9.1,4.6,9.1,9.5c0,1.6-0.2,3.3-0.7,5.3
			L467.9,501.8L467.9,501.8z M488.4,500.8c0.3-1.6,0.4-2.7,0.4-4.2c0-4.8-2.4-8.6-8.1-8.6c-5.9,0-10.6,4.6-12.7,12.8H488.4z"/>
		<path class="st1" d="M508.7,487.6h5.3l2-9.1h1.1l-1.9,9.1h6.9l-0.2,1h-7l-4.9,22.9c-0.7,2.9-0.4,5.3,3,5.3c0.8,0,2.2-0.1,3.5-0.6
			l-0.2,1.1c-0.9,0.4-2.6,0.6-3.4,0.6c-3.5,0-5-1.6-4-6.7l4.9-22.7h-5.3L508.7,487.6z"/>
		<path class="st1" d="M546.2,497.7c0,8.5-4,20.3-14.6,20.3c-6.4,0-9.7-4-9.7-11.1c0-8.1,4.3-19.9,14.8-19.9
			C542.4,487,546.2,490.6,546.2,497.7z M522.9,506.6c0,6.7,3,10.4,8.6,10.4c9.6,0,13.4-10.9,13.4-19.3c0-6-3.1-9.6-8.6-9.6
			C527,488,522.9,498.8,522.9,506.6z"/>
		<path class="st1" d="M552,487.6h5.3l2-9.1h1.1l-1.9,9.1h6.9l-0.2,1h-7l-4.9,22.9c-0.7,2.9-0.4,5.3,3,5.3c0.8,0,2.2-0.1,3.5-0.6
			l-0.2,1.1c-0.9,0.4-2.6,0.6-3.4,0.6c-3.5,0-5-1.6-4-6.7l4.9-22.7h-5.3L552,487.6z"/>
		<path class="st1" d="M584.1,510.9c-0.5,2.3-1.2,5.8-1.3,6.6h-1.1c0.2-1.5,0.8-4.3,1.3-6.2c-2.5,4.9-5.9,6.7-10.9,6.7
			c-5.9,0-8.1-3.8-8.1-7.4c0-5.6,3.9-9,10.4-10.1c3.4-0.6,9.5-0.8,10.9-0.8l0.7-3.2c0.8-3.8,0.1-8.5-7.3-8.5c-5.8,0-7.9,2.6-9.1,6.8
			h-1.1c1-3.8,3.1-7.9,10.4-7.9c6.8,0,9.4,4,8.2,9.6L584.1,510.9z M585.2,500.7c-3.4,0.1-7.3,0.2-10.5,0.7c-5.3,0.9-9.4,3.5-9.4,9.1
			c0,3.8,2.6,6.4,7.1,6.4c5.6,0,10-3.1,11.8-11.8L585.2,500.7z"/>
		<path class="st1" d="M592.8,517.5l9.3-44h1.1l-9.3,44H592.8z"/>
		<path class="st1" d="M610.2,487.6h1.1l-6.3,29.9h-1.1L610.2,487.6z M613.2,473.5h1.1l-1.1,5.1h-1.1L613.2,473.5z"/>
		<path class="st1" d="M616.5,487.6h5.3l2-9.1h1.1l-1.9,9.1h6.9l-0.2,1h-7l-4.9,22.9c-0.7,2.9-0.4,5.3,3,5.3c0.8,0,2.2-0.1,3.5-0.6
			l-0.2,1.1c-0.9,0.4-2.6,0.6-3.4,0.6c-3.5,0-5-1.6-4-6.7l4.9-22.7h-5.3L616.5,487.6z"/>
		<path class="st1" d="M648.6,510.9c-0.5,2.3-1.2,5.8-1.3,6.6h-1.1c0.2-1.5,0.8-4.3,1.3-6.2c-2.5,4.9-5.9,6.7-10.9,6.7
			c-5.9,0-8.1-3.8-8.1-7.4c0-5.6,3.9-9,10.4-10.1c3.4-0.6,9.5-0.8,10.9-0.8l0.7-3.2c0.8-3.8,0.1-8.5-7.3-8.5c-5.8,0-7.9,2.6-9.1,6.8
			h-1.1c1-3.8,3.1-7.9,10.4-7.9c6.8,0,9.4,4,8.2,9.6L648.6,510.9z M649.6,500.7c-3.4,0.1-7.3,0.2-10.5,0.7c-5.3,0.9-9.4,3.5-9.4,9.1
			c0,3.8,2.6,6.4,7.1,6.4c5.6,0,10-3.1,11.8-11.8L649.6,500.7z"/>
		<path class="st1" d="M663.5,487.6h1.1l-6.3,29.9h-1.1L663.5,487.6z M666.5,473.5h1.1l-1.1,5.1h-1.1L666.5,473.5z"/>
		<path class="st1" d="M672.5,497.9c1.4-6.5,1.6-8,2-10.3h1.1c-0.2,1.1-0.4,2.7-1.7,8.5c2.7-5.5,8.1-8.9,12.3-9l-0.2,1.2
			c-6.1,0.5-11.6,6-13.2,13.6l-3.3,15.6h-1.1L672.5,497.9z"/>
		<path class="st1" d="M688.3,501.8c-0.5,2.3-0.5,4.1-0.5,5.2c0,6.1,2.9,9.9,8.6,9.9c5.4,0,8.5-3.2,10.5-7.1h1.1
			c-2.5,5.8-6.9,8.1-11.9,8.1c-6.5,0-9.5-4.6-9.5-10.8c0-8.4,4.2-20.2,14.7-20.2c6.6,0,9.1,4.6,9.1,9.5c0,1.6-0.2,3.3-0.7,5.3
			L688.3,501.8L688.3,501.8z M708.9,500.8c0.3-1.6,0.4-2.7,0.4-4.2c0-4.8-2.4-8.6-8.1-8.6c-5.9,0-10.6,4.6-12.7,12.8H708.9z"/>
		<path class="st1" d="M713.2,517.5l1.3-6.4h1.1l-1.3,6.4H713.2z"/>
	</g>
</g>
<line class="st2" x1="13" y1="89" x2="822" y2="89"/>
<line class="st2" x1="1080" y1="749.5" x2="1889" y2="742.5"/>
<g>
	<path class="st1" d="M137.6,251c-2.3,14.6-21.3,30.9-42.6,28c-20.7-2.9-31.8-23-33.5-38.4c-1.9-17.3,8-30.1,10.9-33.9
		c11.3-14.6,26.7-18.5,32-19.7c22.2-5.2,46.2,3.1,46.4,9.5c0.2,5.6-18,5.2-22.6,17.1C123.3,226.1,140,235.6,137.6,251z"/>
	<path class="st1" d="M248,251c-2.3,14.6-21.3,30.9-42.6,28c-20.7-2.9-31.8-23-33.5-38.4c-1.9-17.3,8.1-30.1,10.9-33.9
		c11.3-14.6,26.7-18.5,32-19.7c22.2-5.2,46.2,3.1,46.4,9.5c0.2,5.6-18,5.2-22.6,17.1C233.8,226.1,250.4,235.6,248,251z"/>
</g>
<g>
	<path class="st1" d="M1758.7,556.7c2.4-14.9,21.8-31.5,43.5-28.6c21.2,2.9,32.5,23.5,34.2,39.2c1.9,17.7-8.2,30.8-11.2,34.6
		c-11.6,14.9-27.3,18.9-32.7,20.1c-22.7,5.3-47.2-3.1-47.4-9.7c-0.2-5.7,18.4-5.3,23.1-17.5C1773.3,582,1756.3,572.3,1758.7,556.7z"
		/>
	<path class="st1" d="M1650.3,556.7c2.4-14.9,21.8-31.5,43.5-28.6c21.2,2.9,32.5,23.5,34.2,39.2c1.9,17.7-8.2,30.8-11.2,34.6
		c-11.6,14.9-27.3,18.9-32.7,20.1c-22.7,5.3-47.2-3.2-47.4-9.7c-0.2-5.7,18.4-5.3,23.1-17.5C1664.8,582,1647.8,572.3,1650.3,556.7z"
		/>
</g>
</svg>
