<?xml version="1.0" encoding="utf-8"?>
<!-- Generator: Adobe Illustrator 24.1.0, SVG Export Plug-In . SVG Version: 6.00 Build 0)  -->
<svg version="1.1" id="Calque_1" xmlns="http://www.w3.org/2000/svg" xmlns:xlink="http://www.w3.org/1999/xlink" x="0px" y="0px"
	 viewBox="0 0 2117.2 1152.7" style="enable-background:new 0 0 2117.2 1152.7;" xml:space="preserve">
<style type="text/css">
	.st0{fill:#4169E1;}
	.st1{fill:#FF8E96;}
	.st2{fill:none;stroke:#FF8E96;stroke-miterlimit:10;}
</style>
<g>
	<rect x="0.6" y="0.5" class="st0" width="2116.1" height="1151.7"/>
	<path d="M2116.1,1.1v1150.6H1.1V1.1H2116.1 M2117.2,0H0v1152.7h2117.2V0L2117.2,0z"/>
</g>
<g>
	<g>
		<path class="st1" d="M357,360.5h-20.5l-4.3,20.7H355l-0.5,1h-23.6l8.9-41.9h22.7l-0.2,1h-21.5l-3.8,18.1h20.5L357,360.5z"/>
		<path class="st1" d="M366.7,359.7c0.5-2.6,1.3-6.1,1.5-7.3h1.1c-0.2,1.4-0.8,4.3-1.4,7.1c1.7-3.5,4.8-7.7,11.3-7.7
			c4.7,0,9.1,2.8,7.3,11.2l-4.1,19.3h-1.1l4.1-19.4c1.3-5.9-0.8-10-6.4-10c-7.4,0-11.1,6.6-12.6,13.7l-3.3,15.8h-1.1L366.7,359.7z"
			/>
		<path class="st1" d="M393.9,352.4h5.3l2-9.1h1.1l-1.9,9.1h6.9l-0.2,1h-7l-4.9,22.9c-0.7,2.9-0.4,5.3,3,5.3c0.8,0,2.2-0.1,3.5-0.6
			l-0.2,1.1c-0.9,0.4-2.6,0.6-3.4,0.6c-3.5,0-5-1.6-4-6.7l4.9-22.7h-5.3L393.9,352.4z"/>
		<path class="st1" d="M410.5,362.6c1.4-6.5,1.6-8,2-10.3h1.1c-0.2,1.1-0.4,2.7-1.7,8.5c2.7-5.5,8.1-8.9,12.3-9L424,353
			c-6.1,0.5-11.6,6-13.2,13.6l-3.3,15.6h-1.1L410.5,362.6z"/>
		<path class="st1" d="M426.3,366.6c-0.5,2.3-0.5,4.1-0.5,5.2c0,6.1,2.9,9.9,8.6,9.9c5.4,0,8.5-3.2,10.5-7.1h1.1
			c-2.5,5.8-6.9,8.1-11.9,8.1c-6.5,0-9.5-4.6-9.5-10.8c0-8.4,4.2-20.2,14.7-20.2c6.6,0,9.1,4.6,9.1,9.5c0,1.6-0.2,3.3-0.7,5.3
			L426.3,366.6L426.3,366.6z M446.8,365.6c0.3-1.6,0.4-2.7,0.4-4.2c0-4.8-2.4-8.6-8.1-8.6c-5.9,0-10.6,4.6-12.7,12.8H446.8z"/>
		<path class="st1" d="M453.6,352.4h5.3l2-9.1h1.1l-1.9,9.1h6.9l-0.2,1h-7l-4.9,22.9c-0.7,2.9-0.4,5.3,3,5.3c0.8,0,2.2-0.1,3.5-0.6
			l-0.2,1.1c-0.9,0.4-2.6,0.6-3.4,0.6c-3.5,0-5-1.6-4-6.7l4.9-22.7h-5.3L453.6,352.4z"/>
		<path class="st1" d="M468.5,366.6c-0.5,2.3-0.5,4.1-0.5,5.2c0,6.1,2.9,9.9,8.6,9.9c5.4,0,8.5-3.2,10.5-7.1h1.1
			c-2.5,5.8-6.9,8.1-11.9,8.1c-6.5,0-9.5-4.6-9.5-10.8c0-8.4,4.2-20.2,14.7-20.2c6.6,0,9.1,4.6,9.1,9.5c0,1.6-0.2,3.3-0.7,5.3
			L468.5,366.6L468.5,366.6z M489,365.6c0.3-1.6,0.4-2.7,0.4-4.2c0-4.8-2.4-8.6-8.1-8.6c-5.9,0-10.6,4.6-12.7,12.8H489z"/>
		<path class="st1" d="M499.1,359.7c0.5-2.6,1.3-6.1,1.5-7.3h1.1c-0.2,1.4-0.8,4.3-1.4,7.1c1.7-3.5,4.8-7.7,11.3-7.7
			c4.7,0,9.1,2.8,7.3,11.2l-4.1,19.3h-1.1l4.1-19.4c1.3-5.9-0.8-10-6.4-10c-7.4,0-11.1,6.6-12.6,13.7l-3.3,15.8h-1.1L499.1,359.7z"
			/>
		<path class="st1" d="M531.1,352.4h1.1l-6.3,29.9h-1.1L531.1,352.4z M534.1,338.3h1.1l-1.1,5.1h-1.1L534.1,338.3z"/>
		<path class="st1" d="M540.1,362.6c1.4-6.5,1.6-8,2-10.3h1.1c-0.2,1.1-0.4,2.7-1.7,8.5c2.7-5.5,8.1-8.9,12.3-9l-0.2,1.2
			c-6.1,0.5-11.6,6-13.2,13.6l-3.3,15.6H536L540.1,362.6z"/>
		<path class="st1" d="M567.4,373.6c0.1,5,2.7,8.1,8.7,8.1c4.6,0,8.6-2.3,8.6-7.5c0-3.2-1.7-5.3-7.1-7.3c-6-2.3-7.5-4.4-7.5-7.5
			c0-4,3.1-7.6,8.9-7.6c6.7,0,8.8,4.4,8.7,8h-1c-0.1-2.9-1.6-7-7.9-7c-4.6,0-7.6,2.8-7.6,6.5c0,3.1,1.7,4.7,6.9,6.7
			c5.7,2.2,7.7,4.6,7.7,8.1c0,5.4-4,8.6-9.9,8.6c-5.8,0-9.7-2.9-9.6-9.1L567.4,373.6L567.4,373.6z"/>
		<path class="st1" d="M616.4,362.4c0,8.5-4,20.3-14.6,20.3c-6.4,0-9.7-4-9.7-11.1c0-8.1,4.3-19.9,14.8-19.9
			C612.7,351.8,616.4,355.4,616.4,362.4z M593.2,371.3c0,6.7,3,10.4,8.6,10.4c9.6,0,13.4-10.9,13.4-19.3c0-6-3.1-9.6-8.6-9.6
			C597.2,352.8,593.2,363.5,593.2,371.3z"/>
		<path class="st1" d="M625.6,359.7c0.5-2.6,1.3-6.1,1.5-7.3h1.1c-0.2,1.4-0.8,4.3-1.4,7.1c1.7-3.5,4.8-7.7,11.3-7.7
			c4.7,0,9.1,2.8,7.3,11.2l-4.1,19.3h-1.1l4.1-19.4c1.3-5.9-0.8-10-6.4-10c-7.4,0-11.1,6.6-12.6,13.7l-3.3,15.8h-1.1L625.6,359.7z"
			/>
		<path class="st1" d="M667.3,366.6c-0.5,2.3-0.5,4.1-0.5,5.2c0,6.1,2.9,9.9,8.6,9.9c5.4,0,8.5-3.2,10.5-7.1h1.1
			c-2.5,5.8-6.9,8.1-11.9,8.1c-6.5,0-9.5-4.6-9.5-10.8c0-8.4,4.2-20.2,14.7-20.2c6.6,0,9.1,4.6,9.1,9.5c0,1.6-0.2,3.3-0.7,5.3
			L667.3,366.6L667.3,366.6z M687.8,365.6c0.3-1.6,0.4-2.7,0.4-4.2c0-4.8-2.4-8.6-8.1-8.6c-5.9,0-10.6,4.6-12.7,12.8H687.8z"/>
		<path class="st1" d="M693.4,373.6c0.1,5,2.7,8.1,8.7,8.1c4.6,0,8.6-2.3,8.6-7.5c0-3.2-1.7-5.3-7.1-7.3c-6-2.3-7.5-4.4-7.5-7.5
			c0-4,3.1-7.6,8.9-7.6c6.7,0,8.8,4.4,8.7,8h-1c-0.1-2.9-1.6-7-7.9-7c-4.6,0-7.6,2.8-7.6,6.5c0,3.1,1.7,4.7,6.9,6.7
			c5.7,2.2,7.7,4.6,7.7,8.1c0,5.4-4,8.6-9.9,8.6c-5.8,0-9.7-2.9-9.6-9.1L693.4,373.6L693.4,373.6z"/>
		<path class="st1" d="M720.1,374.6l-4.2,20.2h-1.1l7.2-33.7c0.8-4.1,1.4-6.8,1.8-8.7h1c-0.1,0.6-0.8,4.6-1.5,7.4
			c2.5-4.9,5.9-8,11.5-8c5.5,0,8.9,4.3,8.9,11c0,7.9-4.2,20-14.8,20C723.4,382.7,720.7,379.6,720.1,374.6z M742.6,362.9
			c0-6.8-3.2-10.1-8-10.1c-6.2,0-10.9,5.2-12.9,14.7c-1.8,8.4,0.2,14.2,7.4,14.2C738.3,381.7,742.6,370.6,742.6,362.9z"/>
		<path class="st1" d="M752.1,362.6c1.4-6.5,1.6-8,2-10.3h1.1c-0.2,1.1-0.4,2.7-1.7,8.5c2.7-5.5,8.1-8.9,12.3-9l-0.2,1.2
			c-6.1,0.5-11.6,6-13.2,13.6l-3.3,15.6H748L752.1,362.6z"/>
		<path class="st1" d="M771.9,352.4h1.1l-6.3,29.9h-1.1L771.9,352.4z M774.9,338.3h1.1l-1.1,5.1h-1.1L774.9,338.3z"/>
		<path class="st1" d="M778.2,352.4h5.3l2-9.1h1.1l-1.9,9.1h6.9l-0.2,1h-7l-4.9,22.9c-0.7,2.9-0.4,5.3,3,5.3c0.8,0,2.2-0.1,3.5-0.6
			l-0.2,1.1c-0.9,0.4-2.6,0.6-3.4,0.6c-3.5,0-5-1.6-4-6.7l4.9-22.7h-5.3L778.2,352.4z"/>
		<path class="st1" d="M826.4,374.4c-2.3,5.3-5.7,8.3-11.9,8.3c-6.3,0-9.7-4.5-9.7-11.6c0-9.4,4.9-19.3,14.5-19.3
			c6.8,0,9.1,4.9,9.1,9.2h-1.1c-0.1-4.1-2-8.2-8.2-8.2c-8.9,0-13.1,10.1-13.1,18.1c0,6.7,3.1,10.9,8.8,10.9c5.3,0,8.4-2.7,10.6-7.3
			L826.4,374.4L826.4,374.4z"/>
		<path class="st1" d="M835.8,362.6c1.4-6.5,1.6-8,2-10.3h1.1c-0.2,1.1-0.4,2.7-1.7,8.5c2.7-5.5,8.1-8.9,12.3-9l-0.2,1.2
			c-6.1,0.5-11.6,6-13.2,13.6l-3.3,15.6h-1.1L835.8,362.6z"/>
		<path class="st1" d="M855.6,352.4h1.1l-6.3,29.9h-1.1L855.6,352.4z M858.6,338.3h1.1l-1.1,5.1h-1.1L858.6,338.3z"/>
		<path class="st1" d="M861.9,352.4h5.3l2-9.1h1.1l-1.9,9.1h6.9l-0.2,1h-7l-4.9,22.9c-0.7,2.9-0.4,5.3,3,5.3c0.8,0,2.2-0.1,3.5-0.6
			l-0.2,1.1c-0.9,0.4-2.6,0.6-3.4,0.6c-3.5,0-5-1.6-4-6.7l4.9-22.7h-5.3L861.9,352.4z"/>
		<path class="st1" d="M880.6,352.4h1.1l-6.3,29.9h-1.1L880.6,352.4z M883.6,338.3h1.1l-1.1,5.1h-1.1L883.6,338.3z"/>
		<path class="st1" d="M906.2,375.1c-1.6,3.3-4.7,7.6-11.3,7.6c-5.2,0-8.9-3.6-8.9-10.9c0-8.3,5-20.1,15.1-20.1c7,0,8.5,5.2,8.6,7.2
			c0.5-2.8,1.1-4.9,1.5-6.6h1.1c-0.4,1.4-1.3,5.8-1.8,8l-7.3,34.4H902L906.2,375.1z M887.1,371.8c0,5.8,2.5,9.9,8,9.9
			c6.3,0,10.8-4.7,13-14.8c2.2-10-1-14.1-7.2-14.1C892.1,352.8,887.1,363.5,887.1,371.8z"/>
		<path class="st1" d="M937.7,374.3c-0.6,2.9-1.4,6.5-1.6,7.9H935c0.1-0.6,0.7-4,1.4-7c-2.1,4.2-5.3,7.4-11.4,7.4
			c-4,0-8.9-1.9-7-10.8l4.1-19.6h1.1l-4.2,19.9c-1,4.6-0.1,9.4,6.1,9.4c5.5,0,10.5-3.5,12.4-12.5l3.5-16.9h1.1L937.7,374.3z"/>
		<path class="st1" d="M948.4,366.6c-0.5,2.3-0.5,4.1-0.5,5.2c0,6.1,2.9,9.9,8.6,9.9c5.4,0,8.5-3.2,10.5-7.1h1.1
			c-2.5,5.8-6.9,8.1-11.9,8.1c-6.5,0-9.5-4.6-9.5-10.8c0-8.4,4.2-20.2,14.7-20.2c6.6,0,9.1,4.6,9.1,9.5c0,1.6-0.2,3.3-0.7,5.3
			L948.4,366.6L948.4,366.6z M968.9,365.6c0.3-1.6,0.4-2.7,0.4-4.2c0-4.8-2.4-8.6-8.1-8.6c-5.9,0-10.6,4.6-12.7,12.8H968.9z"/>
		<path class="st1" d="M990.4,374.6l-4.2,20.2h-1.1l7.2-33.7c0.8-4.1,1.4-6.8,1.8-8.7h1c-0.1,0.6-0.8,4.6-1.5,7.4
			c2.5-4.9,5.9-8,11.5-8c5.5,0,8.9,4.3,8.9,11c0,7.9-4.2,20-14.8,20C993.8,382.7,991,379.6,990.4,374.6z M1012.9,362.9
			c0-6.8-3.2-10.1-8-10.1c-6.2,0-10.9,5.2-12.9,14.7c-1.8,8.4,0.2,14.2,7.4,14.2C1008.7,381.7,1012.9,370.6,1012.9,362.9z"/>
		<path class="st1" d="M1020.7,366.6c-0.5,2.3-0.5,4.1-0.5,5.2c0,6.1,2.9,9.9,8.6,9.9c5.4,0,8.5-3.2,10.5-7.1h1.1
			c-2.5,5.8-6.9,8.1-11.9,8.1c-6.5,0-9.5-4.6-9.5-10.8c0-8.4,4.2-20.2,14.7-20.2c6.6,0,9.1,4.6,9.1,9.5c0,1.6-0.2,3.3-0.7,5.3
			L1020.7,366.6L1020.7,366.6z M1041.3,365.6c0.3-1.6,0.4-2.7,0.4-4.2c0-4.8-2.4-8.6-8.1-8.6c-5.9,0-10.6,4.6-12.7,12.8H1041.3z"/>
		<path class="st1" d="M1050.7,362.6c1.4-6.5,1.6-8,2-10.3h1.1c-0.2,1.1-0.4,2.7-1.7,8.5c2.7-5.5,8.1-8.9,12.3-9l-0.2,1.2
			c-6.1,0.5-11.6,6-13.2,13.6l-3.3,15.6h-1.1L1050.7,362.6z"/>
		<path class="st1" d="M1069,359.1c0.5-2.5,1.1-5.5,1.4-6.8h1.1c-0.1,0.8-0.7,4-1.3,6.4c1.3-2.5,4-7,10-7c4,0,6.7,2,6.7,7.1
			c1.2-2.8,4.5-7.1,10.1-7.1c4.6,0,8.4,2.5,6.7,10.8l-4.2,19.7h-1.2l4.3-19.6c1.2-5.6,0.1-9.8-5.6-9.8c-5.3,0-9.4,4.8-10.7,11.1
			l-3.9,18.4h-1.1l4.2-19.9c1.3-6.1-0.6-9.6-5.5-9.6c-5.9,0-9.8,6.1-11,11.9l-3.7,17.5h-1.1L1069,359.1z"/>
		<path class="st1" d="M1112.2,366.6c-0.5,2.3-0.5,4.1-0.5,5.2c0,6.1,2.9,9.9,8.6,9.9c5.4,0,8.5-3.2,10.5-7.1h1.1
			c-2.5,5.8-6.9,8.1-11.9,8.1c-6.5,0-9.5-4.6-9.5-10.8c0-8.4,4.2-20.2,14.7-20.2c6.6,0,9.1,4.6,9.1,9.5c0,1.6-0.2,3.3-0.7,5.3
			L1112.2,366.6L1112.2,366.6z M1132.7,365.6c0.3-1.6,0.4-2.7,0.4-4.2c0-4.8-2.4-8.6-8.1-8.6c-5.9,0-10.6,4.6-12.7,12.8H1132.7z"/>
		<path class="st1" d="M1139.5,352.4h5.3l2-9.1h1.1l-1.9,9.1h6.9l-0.2,1h-7l-4.9,22.9c-0.7,2.9-0.4,5.3,3,5.3c0.8,0,2.2-0.1,3.5-0.6
			l-0.2,1.1c-0.9,0.4-2.6,0.6-3.4,0.6c-3.5,0-5-1.6-4-6.7l4.9-22.7h-5.3L1139.5,352.4z"/>
		<path class="st1" d="M1195.5,338.3l-7.8,36.9c-0.5,2.1-1.1,5.5-1.3,7.1h-1c0-0.7,0.6-4.1,1.3-7.3c-2.2,4.4-5.3,7.7-11.6,7.7
			c-5.8,0-8.8-4-8.8-11.2c0-7.7,4.5-19.8,15.1-19.8c5.7,0,8.4,3.5,8.6,7.9l4.4-21.4L1195.5,338.3L1195.5,338.3z M1167.4,371.4
			c0,6.7,2.8,10.3,8,10.3c6.2,0,10.8-4.6,13-14.9c2.3-10.8-1.7-14-7.3-14C1172,352.8,1167.4,363.8,1167.4,371.4z"/>
		<path class="st1" d="M1198.6,366.6c-0.5,2.3-0.5,4.1-0.5,5.2c0,6.1,2.9,9.9,8.6,9.9c5.4,0,8.5-3.2,10.5-7.1h1.1
			c-2.5,5.8-6.9,8.1-11.9,8.1c-6.5,0-9.5-4.6-9.5-10.8c0-8.4,4.2-20.2,14.7-20.2c6.6,0,9.1,4.6,9.1,9.5c0,1.6-0.2,3.3-0.7,5.3
			L1198.6,366.6L1198.6,366.6z M1219.2,365.6c0.3-1.6,0.4-2.7,0.4-4.2c0-4.8-2.4-8.6-8.1-8.6c-5.9,0-10.6,4.6-12.7,12.8H1219.2z"/>
		<path class="st1" d="M1238.3,373.6c0.1,5,2.7,8.1,8.7,8.1c4.6,0,8.6-2.3,8.6-7.5c0-3.2-1.7-5.3-7.1-7.3c-6-2.3-7.5-4.4-7.5-7.5
			c0-4,3.1-7.6,8.9-7.6c6.7,0,8.8,4.4,8.7,8h-1c-0.1-2.9-1.6-7-7.9-7c-4.6,0-7.6,2.8-7.6,6.5c0,3.1,1.7,4.7,6.9,6.7
			c5.7,2.2,7.7,4.6,7.7,8.1c0,5.4-4,8.6-9.9,8.6c-5.8,0-9.7-2.9-9.6-9.1L1238.3,373.6L1238.3,373.6z"/>
		<path class="st1" d="M1264.7,366.6c-0.5,2.3-0.5,4.1-0.5,5.2c0,6.1,2.9,9.9,8.6,9.9c5.4,0,8.5-3.2,10.5-7.1h1.1
			c-2.5,5.8-6.9,8.1-11.9,8.1c-6.5,0-9.5-4.6-9.5-10.8c0-8.4,4.2-20.2,14.7-20.2c6.6,0,9.1,4.6,9.1,9.5c0,1.6-0.2,3.3-0.7,5.3
			L1264.7,366.6L1264.7,366.6z M1285.3,365.6c0.3-1.6,0.4-2.7,0.4-4.2c0-4.8-2.4-8.6-8.1-8.6c-5.9,0-10.6,4.6-12.7,12.8H1285.3z"/>
		<path class="st1" d="M1334.2,338.3l-7.8,36.9c-0.5,2.1-1.1,5.5-1.3,7.1h-1c0-0.7,0.6-4.1,1.3-7.3c-2.2,4.4-5.3,7.7-11.6,7.7
			c-5.8,0-8.8-4-8.8-11.2c0-7.7,4.5-19.8,15.1-19.8c5.7,0,8.4,3.5,8.6,7.9l4.4-21.4L1334.2,338.3L1334.2,338.3z M1306,371.4
			c0,6.7,2.8,10.3,8,10.3c6.2,0,10.8-4.6,13-14.9c2.3-10.8-1.7-14-7.3-14C1310.6,352.8,1306,363.8,1306,371.4z"/>
		<path class="st1" d="M1341.2,352.4h1.1l-6.3,29.9h-1.1L1341.2,352.4z M1344.2,338.3h1.1l-1.1,5.1h-1.1L1344.2,338.3z"/>
		<path class="st1" d="M1346.3,373.6c0.1,5,2.7,8.1,8.7,8.1c4.6,0,8.6-2.3,8.6-7.5c0-3.2-1.7-5.3-7.1-7.3c-6-2.3-7.5-4.4-7.5-7.5
			c0-4,3.1-7.6,8.9-7.6c6.7,0,8.8,4.4,8.7,8h-1c-0.1-2.9-1.6-7-7.9-7c-4.6,0-7.6,2.8-7.6,6.5c0,3.1,1.7,4.7,6.9,6.7
			c5.7,2.2,7.7,4.6,7.7,8.1c0,5.4-4,8.6-9.9,8.6c-5.8,0-9.7-2.9-9.6-9.1L1346.3,373.6L1346.3,373.6z"/>
		<path class="st1" d="M1370.6,373.6c0.1,5,2.7,8.1,8.7,8.1c4.6,0,8.6-2.3,8.6-7.5c0-3.2-1.7-5.3-7.1-7.3c-6-2.3-7.5-4.4-7.5-7.5
			c0-4,3.1-7.6,8.9-7.6c6.7,0,8.8,4.4,8.7,8h-1c-0.1-2.9-1.6-7-7.9-7c-4.6,0-7.6,2.8-7.6,6.5c0,3.1,1.7,4.7,6.9,6.7
			c5.7,2.2,7.7,4.6,7.7,8.1c0,5.4-4,8.6-9.9,8.6c-5.8,0-9.7-2.9-9.6-9.1L1370.6,373.6L1370.6,373.6z"/>
		<path class="st1" d="M1419.6,362.4c0,8.5-4,20.3-14.6,20.3c-6.4,0-9.7-4-9.7-11.1c0-8.1,4.3-19.9,14.8-19.9
			C1415.9,351.8,1419.6,355.4,1419.6,362.4z M1396.4,371.3c0,6.7,3,10.4,8.6,10.4c9.6,0,13.4-10.9,13.4-19.3c0-6-3.1-9.6-8.6-9.6
			C1400.4,352.8,1396.4,363.5,1396.4,371.3z"/>
		<path class="st1" d="M1446.2,374.4c-2.3,5.3-5.7,8.3-11.9,8.3c-6.3,0-9.7-4.5-9.7-11.6c0-9.4,4.9-19.3,14.5-19.3
			c6.8,0,9.1,4.9,9.1,9.2h-1.1c-0.1-4.1-2-8.2-8.2-8.2c-8.9,0-13.1,10.1-13.1,18.1c0,6.7,3.1,10.9,8.8,10.9c5.3,0,8.4-2.7,10.6-7.3
			L1446.2,374.4L1446.2,374.4z"/>
		<path class="st1" d="M1457.8,352.4h1.1l-6.3,29.9h-1.1L1457.8,352.4z M1460.8,338.3h1.1l-1.1,5.1h-1.1L1460.8,338.3z"/>
		<path class="st1" d="M1465.1,366.6c-0.5,2.3-0.5,4.1-0.5,5.2c0,6.1,2.9,9.9,8.6,9.9c5.4,0,8.5-3.2,10.5-7.1h1.1
			c-2.5,5.8-6.9,8.1-11.9,8.1c-6.5,0-9.5-4.6-9.5-10.8c0-8.4,4.2-20.2,14.7-20.2c6.6,0,9.1,4.6,9.1,9.5c0,1.6-0.2,3.3-0.7,5.3
			L1465.1,366.6L1465.1,366.6z M1485.6,365.6c0.3-1.6,0.4-2.7,0.4-4.2c0-4.8-2.4-8.6-8.1-8.6c-5.9,0-10.6,4.6-12.7,12.8H1485.6z"/>
		<path class="st1" d="M1495.1,362.6c1.4-6.5,1.6-8,2-10.3h1.1c-0.2,1.1-0.4,2.7-1.7,8.5c2.7-5.5,8.1-8.9,12.3-9l-0.2,1.2
			c-6.1,0.5-11.6,6-13.2,13.6l-3.3,15.6h-1.1L1495.1,362.6z"/>
		<path class="st1" d="M1552.1,338.3l-7.8,36.9c-0.5,2.1-1.1,5.5-1.3,7.1h-1c0-0.7,0.6-4.1,1.3-7.3c-2.2,4.4-5.3,7.7-11.6,7.7
			c-5.8,0-8.8-4-8.8-11.2c0-7.7,4.5-19.8,15.1-19.8c5.7,0,8.4,3.5,8.6,7.9l4.4-21.4L1552.1,338.3L1552.1,338.3z M1523.9,371.4
			c0,6.7,2.8,10.3,8,10.3c6.2,0,10.8-4.6,13-14.9c2.3-10.8-1.7-14-7.3-14C1528.6,352.8,1523.9,363.8,1523.9,371.4z"/>
		<path class="st1" d="M1555.2,366.6c-0.5,2.3-0.5,4.1-0.5,5.2c0,6.1,2.9,9.9,8.6,9.9c5.4,0,8.5-3.2,10.5-7.1h1.1
			c-2.5,5.8-6.9,8.1-11.9,8.1c-6.5,0-9.5-4.6-9.5-10.8c0-8.4,4.2-20.2,14.7-20.2c6.6,0,9.1,4.6,9.1,9.5c0,1.6-0.2,3.3-0.7,5.3
			L1555.2,366.6L1555.2,366.6z M1575.7,365.6c0.3-1.6,0.4-2.7,0.4-4.2c0-4.8-2.4-8.6-8.1-8.6c-5.9,0-10.6,4.6-12.7,12.8H1575.7z"/>
		<path class="st1" d="M1594.6,382.2l9.3-44h1.1l-9.3,44H1594.6z"/>
		<path class="st1" d="M1625.3,375.6c-0.5,2.3-1.2,5.8-1.3,6.6h-1.1c0.2-1.5,0.8-4.3,1.3-6.2c-2.5,4.9-5.9,6.7-10.9,6.7
			c-5.9,0-8.1-3.8-8.1-7.4c0-5.6,3.9-9,10.4-10.1c3.4-0.6,9.5-0.8,10.9-0.8l0.7-3.2c0.8-3.8,0.1-8.5-7.3-8.5c-5.8,0-7.9,2.6-9.1,6.8
			h-1.1c1-3.8,3.1-7.9,10.4-7.9c6.8,0,9.4,4,8.2,9.6L1625.3,375.6z M1626.4,365.4c-3.4,0.1-7.3,0.2-10.5,0.7
			c-5.3,0.9-9.4,3.5-9.4,9.1c0,3.8,2.6,6.4,7.1,6.4c5.6,0,10-3.1,11.8-11.8L1626.4,365.4z"/>
		<path class="st1" d="M1652.4,359.1c0.5-2.5,1.1-5.5,1.4-6.8h1.1c-0.1,0.8-0.7,4-1.3,6.4c1.3-2.5,4-7,10-7c4,0,6.7,2,6.7,7.1
			c1.2-2.8,4.5-7.1,10.1-7.1c4.6,0,8.4,2.5,6.7,10.8l-4.2,19.7h-1.2l4.3-19.6c1.2-5.6,0.1-9.8-5.6-9.8c-5.3,0-9.4,4.8-10.7,11.1
			l-3.9,18.4h-1.1l4.2-19.9c1.3-6.1-0.6-9.6-5.5-9.6c-5.9,0-9.8,6.1-11,11.9l-3.7,17.5h-1.1L1652.4,359.1z"/>
		<path class="st1" d="M1712.8,375.6c-0.5,2.3-1.2,5.8-1.3,6.6h-1.1c0.2-1.5,0.8-4.3,1.3-6.2c-2.5,4.9-5.9,6.7-10.9,6.7
			c-5.9,0-8.1-3.8-8.1-7.4c0-5.6,3.9-9,10.4-10.1c3.4-0.6,9.5-0.8,10.9-0.8l0.7-3.2c0.8-3.8,0.1-8.5-7.3-8.5c-5.8,0-7.9,2.6-9.1,6.8
			h-1.1c1-3.8,3.1-7.9,10.4-7.9c6.8,0,9.4,4,8.2,9.6L1712.8,375.6z M1713.8,365.4c-3.4,0.1-7.3,0.2-10.5,0.7
			c-5.3,0.9-9.4,3.5-9.4,9.1c0,3.8,2.6,6.4,7.1,6.4c5.6,0,10-3.1,11.8-11.8L1713.8,365.4z"/>
		<path class="st1" d="M1721.7,373.6c0.1,5,2.7,8.1,8.7,8.1c4.6,0,8.6-2.3,8.6-7.5c0-3.2-1.7-5.3-7.1-7.3c-6-2.3-7.5-4.4-7.5-7.5
			c0-4,3.1-7.6,8.9-7.6c6.7,0,8.8,4.4,8.7,8h-1c-0.1-2.9-1.6-7-7.9-7c-4.6,0-7.6,2.8-7.6,6.5c0,3.1,1.7,4.7,6.9,6.7
			c5.7,2.2,7.7,4.6,7.7,8.1c0,5.4-4,8.6-9.9,8.6c-5.8,0-9.7-2.9-9.6-9.1L1721.7,373.6L1721.7,373.6z"/>
		<path class="st1" d="M1746,373.6c0.1,5,2.7,8.1,8.7,8.1c4.6,0,8.6-2.3,8.6-7.5c0-3.2-1.7-5.3-7.1-7.3c-6-2.3-7.5-4.4-7.5-7.5
			c0-4,3.1-7.6,8.9-7.6c6.7,0,8.8,4.4,8.7,8h-1c-0.1-2.9-1.6-7-7.9-7c-4.6,0-7.6,2.8-7.6,6.5c0,3.1,1.7,4.7,6.9,6.7
			c5.7,2.2,7.7,4.6,7.7,8.1c0,5.4-4,8.6-9.9,8.6c-5.8,0-9.7-2.9-9.6-9.1L1746,373.6L1746,373.6z"/>
		<path class="st1" d="M1772.4,366.6c-0.5,2.3-0.5,4.1-0.5,5.2c0,6.1,2.9,9.9,8.6,9.9c5.4,0,8.5-3.2,10.5-7.1h1.1
			c-2.5,5.8-6.9,8.1-11.9,8.1c-6.5,0-9.5-4.6-9.5-10.8c0-8.4,4.2-20.2,14.7-20.2c6.6,0,9.1,4.6,9.1,9.5c0,1.6-0.2,3.3-0.7,5.3
			L1772.4,366.6L1772.4,366.6z M1792.9,365.6c0.3-1.6,0.4-2.7,0.4-4.2c0-4.8-2.4-8.6-8.1-8.6c-5.9,0-10.6,4.6-12.7,12.8H1792.9z"/>
		<path class="st1" d="M1793.6,389.5c2.5-3.2,4.9-8.8,6.1-13.6h1.1c-1.4,6.6-4.6,11.8-6,13.6H1793.6z"/>
		<path class="st1" d="M330.5,445.6c0.1,5,2.7,8.1,8.7,8.1c4.6,0,8.6-2.3,8.6-7.5c0-3.2-1.7-5.3-7.1-7.3c-6-2.3-7.5-4.4-7.5-7.5
			c0-4,3.1-7.6,8.9-7.6c6.7,0,8.8,4.4,8.7,8h-1c-0.1-2.9-1.6-7-7.9-7c-4.6,0-7.6,2.8-7.6,6.5c0,3.1,1.7,4.7,6.9,6.7
			c5.7,2.2,7.7,4.6,7.7,8.1c0,5.4-4,8.6-9.9,8.6c-5.8,0-9.7-2.9-9.6-9.1L330.5,445.6L330.5,445.6z"/>
		<path class="st1" d="M374.1,447.6c-0.5,2.3-1.2,5.8-1.3,6.6h-1.1c0.2-1.5,0.8-4.3,1.3-6.2c-2.5,4.9-5.9,6.7-10.9,6.7
			c-5.9,0-8.1-3.8-8.1-7.4c0-5.6,3.9-9,10.4-10.1c3.4-0.6,9.5-0.8,10.9-0.8l0.7-3.2c0.8-3.8,0.1-8.5-7.3-8.5c-5.8,0-7.9,2.6-9.1,6.8
			h-1.1c1-3.8,3.1-7.9,10.4-7.9c6.8,0,9.4,4,8.2,9.6L374.1,447.6z M375.1,437.4c-3.4,0.1-7.3,0.2-10.5,0.7c-5.3,0.9-9.4,3.5-9.4,9.1
			c0,3.8,2.6,6.4,7.1,6.4c5.6,0,10-3.1,11.8-11.8L375.1,437.4z"/>
		<path class="st1" d="M387.5,431.7c0.5-2.6,1.3-6.1,1.5-7.3h1.1c-0.2,1.4-0.8,4.3-1.4,7.1c1.7-3.5,4.8-7.7,11.3-7.7
			c4.7,0,9.1,2.8,7.3,11.2l-4.1,19.3h-1.1l4.1-19.4c1.3-5.9-0.8-10-6.4-10c-7.4,0-11.1,6.6-12.6,13.7l-3.3,15.8h-1.1L387.5,431.7z"
			/>
		<path class="st1" d="M413.5,445.6c0.1,5,2.7,8.1,8.7,8.1c4.6,0,8.6-2.3,8.6-7.5c0-3.2-1.7-5.3-7.1-7.3c-6-2.3-7.5-4.4-7.5-7.5
			c0-4,3.1-7.6,8.9-7.6c6.7,0,8.8,4.4,8.7,8h-1c-0.1-2.9-1.6-7-7.9-7c-4.6,0-7.6,2.8-7.6,6.5c0,3.1,1.7,4.7,6.9,6.7
			c5.7,2.2,7.7,4.6,7.7,8.1c0,5.4-4,8.6-9.9,8.6c-5.8,0-9.7-2.9-9.6-9.1L413.5,445.6L413.5,445.6z"/>
		<path class="st1" d="M473.3,446.4c-2.3,5.3-5.7,8.3-11.9,8.3c-6.3,0-9.7-4.5-9.7-11.6c0-9.4,4.9-19.3,14.5-19.3
			c6.8,0,9.1,4.9,9.1,9.2h-1.1c-0.1-4.1-2-8.2-8.2-8.2c-8.9,0-13.1,10.1-13.1,18.1c0,6.7,3.1,10.9,8.8,10.9c5.3,0,8.4-2.7,10.6-7.3
			L473.3,446.4L473.3,446.4z"/>
		<path class="st1" d="M481,438.6c-0.5,2.3-0.5,4.1-0.5,5.2c0,6.1,2.9,9.9,8.6,9.9c5.4,0,8.5-3.2,10.5-7.1h1.1
			c-2.5,5.8-6.9,8.1-11.9,8.1c-6.5,0-9.5-4.6-9.5-10.8c0-8.4,4.2-20.2,14.7-20.2c6.6,0,9.1,4.6,9.1,9.5c0,1.6-0.2,3.3-0.7,5.3
			L481,438.6L481,438.6z M501.5,437.6c0.3-1.6,0.4-2.7,0.4-4.2c0-4.8-2.4-8.6-8.1-8.6c-5.9,0-10.6,4.6-12.7,12.8H501.5z"/>
		<path class="st1" d="M506.8,454.2l9.3-44h1.1l-9.3,44H506.8z"/>
		<path class="st1" d="M537.6,447.6c-0.5,2.3-1.2,5.8-1.3,6.6h-1.1c0.2-1.5,0.8-4.3,1.3-6.2c-2.5,4.9-5.9,6.7-10.9,6.7
			c-5.9,0-8.1-3.8-8.1-7.4c0-5.6,3.9-9,10.4-10.1c3.4-0.6,9.5-0.8,10.9-0.8l0.7-3.2c0.8-3.8,0.1-8.5-7.3-8.5c-5.8,0-7.9,2.6-9.1,6.8
			h-1.1c1-3.8,3.1-7.9,10.4-7.9c6.8,0,9.4,4,8.2,9.6L537.6,447.6z M538.6,437.4c-3.4,0.1-7.3,0.2-10.5,0.7c-5.3,0.9-9.4,3.5-9.4,9.1
			c0,3.8,2.6,6.4,7.1,6.4c5.6,0,10-3.1,11.8-11.8L538.6,437.4z"/>
		<path class="st1" d="M564.5,431.7c0.5-2.6,1.3-6.1,1.5-7.3h1.1c-0.2,1.4-0.8,4.3-1.4,7.1c1.7-3.5,4.8-7.7,11.3-7.7
			c4.7,0,9.1,2.8,7.3,11.2l-4.1,19.3h-1.1l4.1-19.4c1.3-5.9-0.8-10-6.4-10c-7.4,0-11.1,6.6-12.6,13.7l-3.3,15.8h-1.1L564.5,431.7z"
			/>
		<path class="st1" d="M615.2,434.4c0,8.5-4,20.3-14.6,20.3c-6.4,0-9.7-4-9.7-11.1c0-8.1,4.3-19.9,14.8-19.9
			C611.5,423.8,615.2,427.4,615.2,434.4z M592,443.3c0,6.7,3,10.4,8.6,10.4c9.6,0,13.4-10.9,13.4-19.3c0-6-3.1-9.6-8.6-9.6
			C596,424.8,592,435.5,592,443.3z"/>
		<path class="st1" d="M641.5,446.3c-0.6,2.9-1.4,6.5-1.6,7.9h-1.1c0.1-0.6,0.7-4,1.4-7c-2.1,4.2-5.3,7.4-11.4,7.4
			c-4,0-8.9-1.9-7-10.8l4.1-19.6h1.1l-4.2,19.9c-1,4.6-0.1,9.4,6.1,9.4c5.5,0,10.5-3.5,12.4-12.5l3.5-16.9h1.1L641.5,446.3z"/>
		<path class="st1" d="M650.1,445.6c0.1,5,2.7,8.1,8.7,8.1c4.6,0,8.6-2.3,8.6-7.5c0-3.2-1.7-5.3-7.1-7.3c-6-2.3-7.5-4.4-7.5-7.5
			c0-4,3.1-7.6,8.9-7.6c6.7,0,8.8,4.4,8.7,8h-1c-0.1-2.9-1.6-7-7.9-7c-4.6,0-7.6,2.8-7.6,6.5c0,3.1,1.7,4.7,6.9,6.7
			c5.7,2.2,7.7,4.6,7.7,8.1c0,5.4-4,8.6-9.9,8.6c-5.8,0-9.7-2.9-9.6-9.1L650.1,445.6L650.1,445.6z"/>
		<path class="st1" d="M692.4,431.7c0.5-2.6,1.3-6.1,1.5-7.3h1.1c-0.2,1.4-0.8,4.3-1.4,7.1c1.7-3.5,4.8-7.7,11.3-7.7
			c4.7,0,9.1,2.8,7.3,11.2l-4.1,19.3h-1.1l4.1-19.4c1.3-5.9-0.8-10-6.4-10c-7.4,0-11.1,6.6-12.6,13.7l-3.3,15.8h-1.1L692.4,431.7z"
			/>
		<path class="st1" d="M720.5,438.6c-0.5,2.3-0.5,4.1-0.5,5.2c0,6.1,2.9,9.9,8.6,9.9c5.4,0,8.5-3.2,10.5-7.1h1.1
			c-2.5,5.8-6.9,8.1-11.9,8.1c-6.5,0-9.5-4.6-9.5-10.8c0-8.4,4.2-20.2,14.7-20.2c6.6,0,9.1,4.6,9.1,9.5c0,1.6-0.2,3.3-0.7,5.3
			L720.5,438.6L720.5,438.6z M741,437.6c0.3-1.6,0.4-2.7,0.4-4.2c0-4.8-2.4-8.6-8.1-8.6c-5.9,0-10.6,4.6-12.7,12.8H741z"/>
		<path class="st1" d="M760.2,445.6c0.1,5,2.7,8.1,8.7,8.1c4.6,0,8.6-2.3,8.6-7.5c0-3.2-1.7-5.3-7.1-7.3c-6-2.3-7.5-4.4-7.5-7.5
			c0-4,3.1-7.6,8.9-7.6c6.7,0,8.8,4.4,8.7,8h-1c-0.1-2.9-1.6-7-7.9-7c-4.6,0-7.6,2.8-7.6,6.5c0,3.1,1.7,4.7,6.9,6.7
			c5.7,2.2,7.7,4.6,7.7,8.1c0,5.4-4,8.6-9.9,8.6c-5.8,0-9.7-2.9-9.6-9.1L760.2,445.6L760.2,445.6z"/>
		<path class="st1" d="M809.2,434.4c0,8.5-4,20.3-14.6,20.3c-6.4,0-9.7-4-9.7-11.1c0-8.1,4.3-19.9,14.8-19.9
			C805.5,423.8,809.2,427.4,809.2,434.4z M786,443.3c0,6.7,3,10.4,8.6,10.4c9.6,0,13.4-10.9,13.4-19.3c0-6-3.1-9.6-8.6-9.6
			C790,424.8,786,435.5,786,443.3z"/>
		<path class="st1" d="M818.5,431.1c0.5-2.5,1.1-5.5,1.4-6.8h1.1c-0.1,0.8-0.7,4-1.3,6.4c1.3-2.5,4-7,10-7c4,0,6.7,2,6.7,7.1
			c1.2-2.8,4.5-7.1,10.1-7.1c4.6,0,8.4,2.5,6.7,10.8l-4.2,19.7h-1.2l4.3-19.6c1.2-5.6,0.1-9.8-5.6-9.8c-5.3,0-9.4,4.8-10.7,11.1
			l-3.9,18.4h-1.1l4.2-19.9c1.3-6.1-0.6-9.6-5.5-9.6c-5.9,0-9.8,6.1-11,11.9l-3.7,17.5h-1.1L818.5,431.1z"/>
		<path class="st1" d="M864.1,431.1c0.5-2.5,1.1-5.5,1.4-6.8h1.1c-0.1,0.8-0.7,4-1.3,6.4c1.3-2.5,4-7,10-7c4,0,6.7,2,6.7,7.1
			c1.2-2.8,4.5-7.1,10.1-7.1c4.6,0,8.4,2.5,6.7,10.8l-4.2,19.7h-1.2l4.3-19.6c1.2-5.6,0.1-9.8-5.6-9.8c-5.3,0-9.4,4.8-10.7,11.1
			l-3.9,18.4h-1.1l4.2-19.9c1.3-6.1-0.6-9.6-5.5-9.6c-5.9,0-9.8,6.1-11,11.9l-3.7,17.5h-1.1L864.1,431.1z"/>
		<path class="st1" d="M907.2,438.6c-0.5,2.3-0.5,4.1-0.5,5.2c0,6.1,2.9,9.9,8.6,9.9c5.4,0,8.5-3.2,10.5-7.1h1.1
			c-2.5,5.8-6.9,8.1-11.9,8.1c-6.5,0-9.5-4.6-9.5-10.8c0-8.4,4.2-20.2,14.7-20.2c6.6,0,9.1,4.6,9.1,9.5c0,1.6-0.2,3.3-0.7,5.3
			L907.2,438.6L907.2,438.6z M927.7,437.6c0.3-1.6,0.4-2.7,0.4-4.2c0-4.8-2.4-8.6-8.1-8.6c-5.9,0-10.6,4.6-12.7,12.8H927.7z"/>
		<path class="st1" d="M933.4,445.6c0.1,5,2.7,8.1,8.7,8.1c4.6,0,8.6-2.3,8.6-7.5c0-3.2-1.7-5.3-7.1-7.3c-6-2.3-7.5-4.4-7.5-7.5
			c0-4,3.1-7.6,8.9-7.6c6.7,0,8.8,4.4,8.7,8h-1c-0.1-2.9-1.6-7-7.9-7c-4.6,0-7.6,2.8-7.6,6.5c0,3.1,1.7,4.7,6.9,6.7
			c5.7,2.2,7.7,4.6,7.7,8.1c0,5.4-4,8.6-9.9,8.6c-5.8,0-9.7-2.9-9.6-9.1L933.4,445.6L933.4,445.6z"/>
		<path class="st1" d="M991.6,447.1c-1.6,3.3-4.7,7.6-11.3,7.6c-5.2,0-8.9-3.6-8.9-10.9c0-8.3,5-20.1,15.1-20.1c7,0,8.5,5.2,8.6,7.2
			c0.5-2.8,1.1-4.9,1.5-6.6h1.1c-0.4,1.4-1.3,5.8-1.8,8l-7.3,34.4h-1.1L991.6,447.1z M972.5,443.8c0,5.8,2.5,9.9,8,9.9
			c6.3,0,10.8-4.7,13-14.8c2.2-10-1-14.1-7.2-14.1C977.5,424.8,972.5,435.5,972.5,443.8z"/>
		<path class="st1" d="M1023.1,446.3c-0.6,2.9-1.4,6.5-1.6,7.9h-1.1c0.1-0.6,0.7-4,1.4-7c-2.1,4.2-5.3,7.4-11.4,7.4
			c-4,0-8.9-1.9-7-10.8l4.1-19.6h1.1l-4.2,19.9c-1,4.6-0.1,9.4,6.1,9.4c5.5,0,10.5-3.5,12.4-12.5l3.5-16.9h1.1L1023.1,446.3z"/>
		<path class="st1" d="M1033.8,438.6c-0.5,2.3-0.5,4.1-0.5,5.2c0,6.1,2.9,9.9,8.6,9.9c5.4,0,8.5-3.2,10.5-7.1h1.1
			c-2.5,5.8-6.9,8.1-11.9,8.1c-6.5,0-9.5-4.6-9.5-10.8c0-8.4,4.2-20.2,14.7-20.2c6.6,0,9.1,4.6,9.1,9.5c0,1.6-0.2,3.3-0.7,5.3
			L1033.8,438.6L1033.8,438.6z M1054.3,437.6c0.3-1.6,0.4-2.7,0.4-4.2c0-4.8-2.4-8.6-8.1-8.6c-5.9,0-10.6,4.6-12.7,12.8H1054.3z"/>
		<path class="st1" d="M1073.2,454.2l9.3-44h1.1l-9.3,44H1073.2z"/>
		<path class="st1" d="M1086.7,438.6c-0.5,2.3-0.5,4.1-0.5,5.2c0,6.1,2.9,9.9,8.6,9.9c5.4,0,8.5-3.2,10.5-7.1h1.1
			c-2.5,5.8-6.9,8.1-11.9,8.1c-6.5,0-9.5-4.6-9.5-10.8c0-8.4,4.2-20.2,14.7-20.2c6.6,0,9.1,4.6,9.1,9.5c0,1.6-0.2,3.3-0.7,5.3
			L1086.7,438.6L1086.7,438.6z M1107.3,437.6c0.3-1.6,0.4-2.7,0.4-4.2c0-4.8-2.4-8.6-8.1-8.6c-5.9,0-10.6,4.6-12.7,12.8H1107.3z"/>
		<path class="st1" d="M1112.9,445.6c0.1,5,2.7,8.1,8.7,8.1c4.6,0,8.6-2.3,8.6-7.5c0-3.2-1.7-5.3-7.1-7.3c-6-2.3-7.5-4.4-7.5-7.5
			c0-4,3.1-7.6,8.9-7.6c6.7,0,8.8,4.4,8.7,8h-1c-0.1-2.9-1.6-7-7.9-7c-4.6,0-7.6,2.8-7.6,6.5c0,3.1,1.7,4.7,6.9,6.7
			c5.7,2.2,7.7,4.6,7.7,8.1c0,5.4-4,8.6-9.9,8.6c-5.8,0-9.7-2.9-9.6-9.1L1112.9,445.6L1112.9,445.6z"/>
		<path class="st1" d="M1154.6,434.6c1.4-6.5,1.6-8,2-10.3h1.1c-0.2,1.1-0.4,2.7-1.7,8.5c2.7-5.5,8.1-8.9,12.3-9l-0.2,1.2
			c-6.1,0.5-11.6,6-13.2,13.6l-3.3,15.6h-1.1L1154.6,434.6z"/>
		<path class="st1" d="M1193,434.4c0,8.5-4,20.3-14.6,20.3c-6.4,0-9.7-4-9.7-11.1c0-8.1,4.3-19.9,14.8-19.9
			C1189.3,423.8,1193,427.4,1193,434.4z M1169.8,443.3c0,6.7,3,10.4,8.6,10.4c9.6,0,13.4-10.9,13.4-19.3c0-6-3.1-9.6-8.6-9.6
			C1173.8,424.8,1169.8,435.5,1169.8,443.3z"/>
		<path class="st1" d="M1219.3,446.3c-0.6,2.9-1.4,6.5-1.6,7.9h-1.1c0.1-0.6,0.7-4,1.4-7c-2.1,4.2-5.3,7.4-11.4,7.4
			c-4,0-8.9-1.9-7-10.8l4.1-19.6h1.1l-4.2,19.9c-1,4.6-0.1,9.4,6.1,9.4c5.5,0,10.5-3.5,12.4-12.5l3.5-16.9h1.1L1219.3,446.3z"/>
		<path class="st1" d="M1247.2,447.6c-0.5,2.3-1.2,5.8-1.3,6.6h-1.1c0.2-1.5,0.8-4.3,1.3-6.2c-2.5,4.9-5.9,6.7-10.9,6.7
			c-5.9,0-8.1-3.8-8.1-7.4c0-5.6,3.9-9,10.4-10.1c3.4-0.6,9.5-0.8,10.9-0.8l0.7-3.2c0.8-3.8,0.1-8.5-7.3-8.5c-5.8,0-7.9,2.6-9.1,6.8
			h-1.1c1-3.8,3.1-7.9,10.4-7.9c6.8,0,9.4,4,8.2,9.6L1247.2,447.6z M1248.2,437.4c-3.4,0.1-7.3,0.2-10.5,0.7
			c-5.3,0.9-9.4,3.5-9.4,9.1c0,3.8,2.6,6.4,7.1,6.4c5.6,0,10-3.1,11.8-11.8L1248.2,437.4z"/>
		<path class="st1" d="M1276.3,453.6c-1.8,8.5-4.3,13.6-13.3,13.6c-7.6,0-9.7-4.7-9.6-8.3h1.1c0.1,4.4,3,7.3,8.7,7.3
			c8.1,0,10.3-4.9,11.9-12.7l1.4-6.3c-2,4.2-5.8,7.1-10.9,7.1c-5.3,0-9.1-3.7-9.1-11c0-7.9,4.5-19.5,14.7-19.5
			c6.3,0,8.3,4.1,8.6,7.4c0.5-2.2,1.3-5.9,1.6-6.8h1.1c-0.4,1.2-1,4.1-1.9,8.2L1276.3,453.6z M1257.7,443.2c0,6.8,3.4,10,8.1,10
			c7.8,0,10.9-6.7,12.5-14.2c1.7-8,0.7-14.3-7.3-14.3C1262.2,424.8,1257.7,435.5,1257.7,443.2z"/>
		<path class="st1" d="M1288.5,438.6c-0.5,2.3-0.5,4.1-0.5,5.2c0,6.1,2.9,9.9,8.6,9.9c5.4,0,8.5-3.2,10.5-7.1h1.1
			c-2.5,5.8-6.9,8.1-11.9,8.1c-6.5,0-9.5-4.6-9.5-10.8c0-8.4,4.2-20.2,14.7-20.2c6.6,0,9.1,4.6,9.1,9.5c0,1.6-0.2,3.3-0.7,5.3
			L1288.5,438.6L1288.5,438.6z M1309,437.6c0.3-1.6,0.4-2.7,0.4-4.2c0-4.8-2.4-8.6-8.1-8.6c-5.9,0-10.6,4.6-12.7,12.8H1309z"/>
		<path class="st1" d="M1314.7,445.6c0.1,5,2.7,8.1,8.7,8.1c4.6,0,8.6-2.3,8.6-7.5c0-3.2-1.7-5.3-7.1-7.3c-6-2.3-7.5-4.4-7.5-7.5
			c0-4,3.1-7.6,8.9-7.6c6.7,0,8.8,4.4,8.7,8h-1c-0.1-2.9-1.6-7-7.9-7c-4.6,0-7.6,2.8-7.6,6.5c0,3.1,1.7,4.7,6.9,6.7
			c5.7,2.2,7.7,4.6,7.7,8.1c0,5.4-4,8.6-9.9,8.6c-5.8,0-9.7-2.9-9.6-9.1L1314.7,445.6L1314.7,445.6z"/>
		<path class="st1" d="M1382.2,410.3l-7.8,36.9c-0.5,2.1-1.1,5.5-1.3,7.1h-1c0-0.7,0.6-4.1,1.3-7.3c-2.2,4.4-5.3,7.7-11.6,7.7
			c-5.8,0-8.8-4-8.8-11.2c0-7.7,4.5-19.8,15.1-19.8c5.7,0,8.4,3.5,8.6,7.9l4.4-21.4L1382.2,410.3L1382.2,410.3z M1354.1,443.4
			c0,6.7,2.8,10.3,8,10.3c6.2,0,10.8-4.6,13-14.9c2.3-10.8-1.7-14-7.3-14C1358.7,424.8,1354.1,435.8,1354.1,443.4z"/>
		<path class="st1" d="M1404.8,446.3c-0.6,2.9-1.4,6.5-1.6,7.9h-1.1c0.1-0.6,0.7-4,1.4-7c-2.1,4.2-5.3,7.4-11.4,7.4
			c-4,0-8.9-1.9-7-10.8l4.1-19.6h1.1l-4.2,19.9c-1,4.6-0.1,9.4,6.1,9.4c5.5,0,10.5-3.5,12.4-12.5l3.5-16.9h1.1L1404.8,446.3z"/>
		<path class="st1" d="M1431.5,431.1c0.5-2.5,1.1-5.5,1.4-6.8h1.1c-0.1,0.8-0.7,4-1.3,6.4c1.3-2.5,4-7,10-7c4,0,6.7,2,6.7,7.1
			c1.2-2.8,4.5-7.1,10.1-7.1c4.6,0,8.4,2.5,6.7,10.8l-4.2,19.7h-1.2l4.3-19.6c1.2-5.6,0.1-9.8-5.6-9.8c-5.3,0-9.4,4.8-10.7,11.1
			l-3.9,18.4h-1.1l4.2-19.9c1.3-6.1-0.6-9.6-5.5-9.6c-5.9,0-9.8,6.1-11,11.9l-3.7,17.5h-1.1L1431.5,431.1z"/>
		<path class="st1" d="M1474.6,438.6c-0.5,2.3-0.5,4.1-0.5,5.2c0,6.1,2.9,9.9,8.6,9.9c5.4,0,8.5-3.2,10.5-7.1h1.1
			c-2.5,5.8-6.9,8.1-11.9,8.1c-6.5,0-9.5-4.6-9.5-10.8c0-8.4,4.2-20.2,14.7-20.2c6.6,0,9.1,4.6,9.1,9.5c0,1.6-0.2,3.3-0.7,5.3
			L1474.6,438.6L1474.6,438.6z M1495.2,437.6c0.3-1.6,0.4-2.7,0.4-4.2c0-4.8-2.4-8.6-8.1-8.6c-5.9,0-10.6,4.6-12.7,12.8H1495.2z
			 M1498.8,409.1l-10.1,9.2h-1.4l10.1-9.2H1498.8z"/>
		<path class="st1" d="M1522.7,446.4c-2.3,5.3-5.7,8.3-11.9,8.3c-6.3,0-9.7-4.5-9.7-11.6c0-9.4,4.9-19.3,14.5-19.3
			c6.8,0,9.1,4.9,9.1,9.2h-1.1c-0.1-4.1-2-8.2-8.2-8.2c-8.9,0-13.1,10.1-13.1,18.1c0,6.7,3.1,10.9,8.8,10.9c5.3,0,8.4-2.7,10.6-7.3
			L1522.7,446.4L1522.7,446.4z"/>
		<path class="st1" d="M1547.6,447.6c-0.5,2.3-1.2,5.8-1.3,6.6h-1.1c0.2-1.5,0.8-4.3,1.3-6.2c-2.5,4.9-5.9,6.7-10.9,6.7
			c-5.9,0-8.1-3.8-8.1-7.4c0-5.6,3.9-9,10.4-10.1c3.4-0.6,9.5-0.8,10.9-0.8l0.7-3.2c0.8-3.8,0.1-8.5-7.3-8.5c-5.8,0-7.9,2.6-9.1,6.8
			h-1.1c1-3.8,3.1-7.9,10.4-7.9c6.8,0,9.4,4,8.2,9.6L1547.6,447.6z M1548.6,437.4c-3.4,0.1-7.3,0.2-10.5,0.7
			c-5.3,0.9-9.4,3.5-9.4,9.1c0,3.8,2.6,6.4,7.1,6.4c5.6,0,10-3.1,11.8-11.8L1548.6,437.4z"/>
		<path class="st1" d="M1561,431.7c0.5-2.6,1.3-6.1,1.5-7.3h1.1c-0.2,1.4-0.8,4.3-1.4,7.1c1.7-3.5,4.8-7.7,11.3-7.7
			c4.7,0,9.1,2.8,7.3,11.2l-4.1,19.3h-1.1l4.1-19.4c1.3-5.9-0.8-10-6.4-10c-7.4,0-11.1,6.6-12.6,13.7l-3.3,15.8h-1.1L1561,431.7z"/>
		<path class="st1" d="M1593,424.4h1.1l-6.3,29.9h-1.1L1593,424.4z M1596,410.3h1.1l-1.1,5.1h-1.1L1596,410.3z"/>
		<path class="st1" d="M1598.2,445.6c0.1,5,2.7,8.1,8.7,8.1c4.6,0,8.6-2.3,8.6-7.5c0-3.2-1.7-5.3-7.1-7.3c-6-2.3-7.5-4.4-7.5-7.5
			c0-4,3.1-7.6,8.9-7.6c6.7,0,8.8,4.4,8.7,8h-1c-0.1-2.9-1.6-7-7.9-7c-4.6,0-7.6,2.8-7.6,6.5c0,3.1,1.7,4.7,6.9,6.7
			c5.7,2.2,7.7,4.6,7.7,8.1c0,5.4-4,8.6-9.9,8.6c-5.8,0-9.7-2.9-9.6-9.1L1598.2,445.6L1598.2,445.6z"/>
		<path class="st1" d="M1627,431.1c0.5-2.5,1.1-5.5,1.4-6.8h1.1c-0.1,0.8-0.7,4-1.3,6.4c1.3-2.5,4-7,10-7c4,0,6.7,2,6.7,7.1
			c1.2-2.8,4.5-7.1,10.1-7.1c4.6,0,8.4,2.5,6.7,10.8l-4.2,19.7h-1.2l4.3-19.6c1.2-5.6,0.1-9.8-5.6-9.8c-5.3,0-9.4,4.8-10.7,11.1
			l-3.9,18.4h-1.1l4.2-19.9c1.3-6.1-0.6-9.6-5.5-9.6c-5.9,0-9.8,6.1-11,11.9l-3.7,17.5h-1.1L1627,431.1z"/>
		<path class="st1" d="M1670.2,438.6c-0.5,2.3-0.5,4.1-0.5,5.2c0,6.1,2.9,9.9,8.6,9.9c5.4,0,8.5-3.2,10.5-7.1h1.1
			c-2.5,5.8-6.9,8.1-11.9,8.1c-6.5,0-9.5-4.6-9.5-10.8c0-8.4,4.2-20.2,14.7-20.2c6.6,0,9.1,4.6,9.1,9.5c0,1.6-0.2,3.3-0.7,5.3
			L1670.2,438.6L1670.2,438.6z M1690.7,437.6c0.3-1.6,0.4-2.7,0.4-4.2c0-4.8-2.4-8.6-8.1-8.6c-5.9,0-10.6,4.6-12.7,12.8H1690.7z"/>
		<path class="st1" d="M1739.6,410.3l-7.8,36.9c-0.5,2.1-1.1,5.5-1.3,7.1h-1c0-0.7,0.6-4.1,1.3-7.3c-2.2,4.4-5.3,7.7-11.6,7.7
			c-5.8,0-8.8-4-8.8-11.2c0-7.7,4.5-19.8,15.1-19.8c5.7,0,8.4,3.5,8.6,7.9l4.4-21.4L1739.6,410.3L1739.6,410.3z M1711.4,443.4
			c0,6.7,2.8,10.3,8,10.3c6.2,0,10.8-4.6,13-14.9c2.3-10.8-1.7-14-7.3-14C1716.1,424.8,1711.4,435.8,1711.4,443.4z"/>
		<path class="st1" d="M1742.7,438.6c-0.5,2.3-0.5,4.1-0.5,5.2c0,6.1,2.9,9.9,8.6,9.9c5.4,0,8.5-3.2,10.5-7.1h1.1
			c-2.5,5.8-6.9,8.1-11.9,8.1c-6.5,0-9.5-4.6-9.5-10.8c0-8.4,4.2-20.2,14.7-20.2c6.6,0,9.1,4.6,9.1,9.5c0,1.6-0.2,3.3-0.7,5.3
			L1742.7,438.6L1742.7,438.6z M1763.2,437.6c0.3-1.6,0.4-2.7,0.4-4.2c0-4.8-2.4-8.6-8.1-8.6c-5.9,0-10.6,4.6-12.7,12.8H1763.2z"/>
		<path class="st1" d="M330.2,526.2l9.3-44h1.1l-9.3,44H330.2z"/>
		<path class="st1" d="M360.9,519.6c-0.5,2.3-1.2,5.8-1.3,6.6h-1.1c0.2-1.5,0.8-4.3,1.3-6.2c-2.5,4.9-5.9,6.7-10.9,6.7
			c-5.9,0-8.1-3.8-8.1-7.4c0-5.6,3.9-9,10.4-10.1c3.4-0.6,9.5-0.8,10.9-0.8l0.7-3.2c0.8-3.8,0.1-8.5-7.3-8.5c-5.8,0-7.9,2.6-9.1,6.8
			h-1.1c1-3.8,3.1-7.9,10.4-7.9c6.8,0,9.4,4,8.2,9.6L360.9,519.6z M361.9,509.4c-3.4,0.1-7.3,0.2-10.5,0.7c-5.3,0.9-9.4,3.5-9.4,9.1
			c0,3.8,2.6,6.4,7.1,6.4c5.6,0,10-3.1,11.8-11.8L361.9,509.4z"/>
		<path class="st1" d="M388,503.1c0.5-2.5,1.1-5.5,1.4-6.8h1.1c-0.1,0.8-0.7,4-1.3,6.4c1.3-2.5,4-7,10-7c4,0,6.7,2,6.7,7.1
			c1.2-2.8,4.5-7.1,10.1-7.1c4.6,0,8.4,2.5,6.7,10.8l-4.2,19.7h-1.2l4.3-19.6c1.2-5.6,0.1-9.8-5.6-9.8c-5.3,0-9.4,4.8-10.7,11.1
			l-3.9,18.4h-1.1l4.2-19.9c1.3-6.1-0.6-9.6-5.5-9.6c-5.9,0-9.8,6.1-11,11.9l-3.7,17.5h-1.1L388,503.1z"/>
		<path class="st1" d="M448.3,519.6c-0.5,2.3-1.2,5.8-1.3,6.6h-1.1c0.2-1.5,0.8-4.3,1.3-6.2c-2.5,4.9-5.9,6.7-10.9,6.7
			c-5.9,0-8.1-3.8-8.1-7.4c0-5.6,3.9-9,10.4-10.1c3.4-0.6,9.5-0.8,10.9-0.8l0.7-3.2c0.8-3.8,0.1-8.5-7.3-8.5c-5.8,0-7.9,2.6-9.1,6.8
			h-1.1c1-3.8,3.1-7.9,10.4-7.9c6.8,0,9.4,4,8.2,9.6L448.3,519.6z M449.4,509.4c-3.4,0.1-7.3,0.2-10.5,0.7c-5.3,0.9-9.4,3.5-9.4,9.1
			c0,3.8,2.6,6.4,7.1,6.4c5.6,0,10-3.1,11.8-11.8L449.4,509.4z"/>
		<path class="st1" d="M479.2,518.4c-2.3,5.3-5.7,8.3-11.9,8.3c-6.3,0-9.7-4.5-9.7-11.6c0-9.4,4.9-19.3,14.5-19.3
			c6.8,0,9.1,4.9,9.1,9.2H480c-0.1-4.1-2-8.2-8.2-8.2c-8.9,0-13.1,10.1-13.1,18.1c0,6.7,3.1,10.9,8.8,10.9c5.3,0,8.4-2.7,10.6-7.3
			H479.2z"/>
		<path class="st1" d="M494.9,482.3l-4.4,20.9c1.6-3.1,4.6-7.4,11.2-7.4c5.8,0,8.9,3.5,7.4,10.9l-4.1,19.6h-1.1l4.1-19.4
			c1.4-6.4-0.4-10.1-6.4-10.1c-6.9,0-10.8,5.7-12.2,12.5l-3.6,16.9h-1.1l9.3-44H494.9z"/>
		<path class="st1" d="M521.2,496.4h1.1l-6.3,29.9h-1.1L521.2,496.4z M524.2,482.3h1.1l-1.1,5.1h-1.1L524.2,482.3z"/>
		<path class="st1" d="M530.8,503.7c0.5-2.6,1.3-6.1,1.5-7.3h1.1c-0.2,1.4-0.8,4.3-1.4,7.1c1.7-3.5,4.8-7.7,11.3-7.7
			c4.7,0,9.1,2.8,7.3,11.2l-4.1,19.3h-1.1l4.1-19.4c1.3-5.9-0.8-10-6.4-10c-7.4,0-11.1,6.6-12.6,13.7l-3.3,15.8h-1.1L530.8,503.7z"
			/>
		<path class="st1" d="M559,510.6c-0.5,2.3-0.5,4.1-0.5,5.2c0,6.1,2.9,9.9,8.6,9.9c5.4,0,8.5-3.2,10.5-7.1h1.1
			c-2.5,5.8-6.9,8.1-11.9,8.1c-6.5,0-9.5-4.6-9.5-10.8c0-8.4,4.2-20.2,14.7-20.2c6.6,0,9.1,4.6,9.1,9.5c0,1.6-0.2,3.3-0.7,5.3
			L559,510.6L559,510.6z M579.5,509.6c0.3-1.6,0.4-2.7,0.4-4.2c0-4.8-2.4-8.6-8.1-8.6c-5.9,0-10.6,4.6-12.7,12.8H579.5z"/>
		<path class="st1" d="M599.8,496.4h5.3l2-9.1h1.1l-1.9,9.1h6.9l-0.2,1h-7l-4.9,22.9c-0.7,2.9-0.4,5.3,3,5.3c0.8,0,2.2-0.1,3.5-0.6
			l-0.2,1.1c-0.9,0.4-2.6,0.6-3.4,0.6c-3.5,0-5-1.6-4-6.7l4.9-22.7h-5.3L599.8,496.4z"/>
		<path class="st1" d="M637.3,506.4c0,8.5-4,20.3-14.6,20.3c-6.4,0-9.7-4-9.7-11.1c0-8.1,4.3-19.9,14.8-19.9
			C633.6,495.8,637.3,499.4,637.3,506.4z M614.1,515.3c0,6.7,3,10.4,8.6,10.4c9.6,0,13.4-10.9,13.4-19.3c0-6-3.1-9.6-8.6-9.6
			C618.1,496.8,614.1,507.5,614.1,515.3z"/>
		<path class="st1" d="M643.2,496.4h5.3l2-9.1h1.1l-1.9,9.1h6.9l-0.2,1h-7l-4.9,22.9c-0.7,2.9-0.4,5.3,3,5.3c0.8,0,2.2-0.1,3.5-0.6
			l-0.2,1.1c-0.9,0.4-2.6,0.6-3.4,0.6c-3.5,0-5-1.6-4-6.7l4.9-22.7h-5.3L643.2,496.4z"/>
		<path class="st1" d="M675.3,519.6c-0.5,2.3-1.2,5.8-1.3,6.6h-1.1c0.2-1.5,0.8-4.3,1.3-6.2c-2.5,4.9-5.9,6.7-10.9,6.7
			c-5.9,0-8.1-3.8-8.1-7.4c0-5.6,3.9-9,10.4-10.1c3.4-0.6,9.5-0.8,10.9-0.8l0.7-3.2c0.8-3.8,0.1-8.5-7.3-8.5c-5.8,0-7.9,2.6-9.1,6.8
			h-1.1c1-3.8,3.1-7.9,10.4-7.9c6.8,0,9.4,4,8.2,9.6L675.3,519.6z M676.3,509.4c-3.4,0.1-7.3,0.2-10.5,0.7c-5.3,0.9-9.4,3.5-9.4,9.1
			c0,3.8,2.6,6.4,7.1,6.4c5.6,0,10-3.1,11.8-11.8L676.3,509.4z"/>
		<path class="st1" d="M683.9,526.2l9.3-44h1.1l-9.3,44H683.9z"/>
		<path class="st1" d="M701.3,496.4h1.1l-6.3,29.9H695L701.3,496.4z M704.3,482.3h1.1l-1.1,5.1h-1.1L704.3,482.3z"/>
		<path class="st1" d="M707.6,496.4h5.3l2-9.1h1.1l-1.9,9.1h6.9l-0.2,1h-7l-4.9,22.9c-0.7,2.9-0.4,5.3,3,5.3c0.8,0,2.2-0.1,3.5-0.6
			l-0.2,1.1c-0.9,0.4-2.6,0.6-3.4,0.6c-3.5,0-5-1.6-4-6.7l4.9-22.7h-5.3L707.6,496.4z"/>
		<path class="st1" d="M739.7,519.6c-0.5,2.3-1.2,5.8-1.3,6.6h-1.1c0.2-1.5,0.8-4.3,1.3-6.2c-2.5,4.9-5.9,6.7-10.9,6.7
			c-5.9,0-8.1-3.8-8.1-7.4c0-5.6,3.9-9,10.4-10.1c3.4-0.6,9.5-0.8,10.9-0.8l0.7-3.2c0.8-3.8,0.1-8.5-7.3-8.5c-5.8,0-7.9,2.6-9.1,6.8
			H724c1-3.8,3.1-7.9,10.4-7.9c6.8,0,9.4,4,8.2,9.6L739.7,519.6z M740.7,509.4c-3.4,0.1-7.3,0.2-10.5,0.7c-5.3,0.9-9.4,3.5-9.4,9.1
			c0,3.8,2.6,6.4,7.1,6.4c5.6,0,10-3.1,11.8-11.8L740.7,509.4z"/>
		<path class="st1" d="M754.6,496.4h1.1l-6.3,29.9h-1.1L754.6,496.4z M757.6,482.3h1.1l-1.1,5.1h-1.1L757.6,482.3z"/>
		<path class="st1" d="M763.6,506.6c1.4-6.5,1.6-8,2-10.3h1.1c-0.2,1.1-0.4,2.7-1.7,8.5c2.7-5.5,8.1-8.9,12.3-9l-0.2,1.2
			c-6.1,0.5-11.6,6-13.2,13.6l-3.3,15.6h-1.1L763.6,506.6z"/>
		<path class="st1" d="M779.5,510.6c-0.5,2.3-0.5,4.1-0.5,5.2c0,6.1,2.9,9.9,8.6,9.9c5.4,0,8.5-3.2,10.5-7.1h1.1
			c-2.5,5.8-6.9,8.1-11.9,8.1c-6.5,0-9.5-4.6-9.5-10.8c0-8.4,4.2-20.2,14.7-20.2c6.6,0,9.1,4.6,9.1,9.5c0,1.6-0.2,3.3-0.7,5.3
			L779.5,510.6L779.5,510.6z M800,509.6c0.3-1.6,0.4-2.7,0.4-4.2c0-4.8-2.4-8.6-8.1-8.6c-5.9,0-10.6,4.6-12.7,12.8H800z"/>
		<path class="st1" d="M804.3,526.2l1.3-6.4h1.1l-1.3,6.4H804.3z"/>
	</g>
</g>
<line class="st2" x1="104.1" y1="97.7" x2="913.1" y2="97.7"/>
<line class="st2" x1="1171.1" y1="758.2" x2="1980.1" y2="751.2"/>
<g>
	<path class="st1" d="M228.7,259.7c-2.3,14.6-21.3,30.9-42.6,28c-20.7-2.9-31.8-23-33.5-38.4c-1.9-17.3,8-30.1,10.9-33.9
		c11.3-14.6,26.7-18.5,32-19.7c22.2-5.2,46.2,3.1,46.4,9.5c0.2,5.6-18,5.2-22.6,17.1C214.5,234.9,231.1,244.4,228.7,259.7z"/>
	<path class="st1" d="M339.1,259.7c-2.3,14.6-21.3,30.9-42.6,28c-20.7-2.9-31.8-23-33.5-38.4c-1.9-17.3,8-30.1,10.9-33.9
		c11.3-14.6,26.7-18.5,32-19.7c22.2-5.2,46.2,3.1,46.4,9.5c0.2,5.6-18,5.2-22.6,17.1C324.9,234.9,341.6,244.4,339.1,259.7z"/>
</g>
<g>
	<path class="st1" d="M1849.9,565.4c2.4-14.9,21.8-31.5,43.5-28.6c21.2,2.9,32.5,23.5,34.2,39.2c1.9,17.7-8.2,30.8-11.2,34.6
		c-11.6,14.9-27.3,18.9-32.7,20.1c-22.7,5.3-47.2-3.1-47.4-9.7c-0.2-5.7,18.4-5.3,23.1-17.5C1864.4,590.8,1847.4,581.1,1849.9,565.4
		z"/>
	<path class="st1" d="M1741.4,565.4c2.4-14.9,21.8-31.5,43.5-28.6c21.2,2.9,32.5,23.5,34.2,39.2c1.9,17.7-8.2,30.8-11.2,34.6
		c-11.6,14.9-27.3,18.9-32.7,20.1c-22.7,5.3-47.2-3.2-47.4-9.7c-0.2-5.7,18.4-5.3,23.1-17.5C1755.9,590.8,1738.9,581.1,1741.4,565.4
		z"/>
</g>
</svg>
