<?xml version="1.0" encoding="utf-8"?>
<!-- Generator: Adobe Illustrator 24.1.0, SVG Export Plug-In . SVG Version: 6.00 Build 0)  -->
<svg version="1.1" id="Calque_1" xmlns="http://www.w3.org/2000/svg" xmlns:xlink="http://www.w3.org/1999/xlink" x="0px" y="0px"
	 viewBox="0 0 1920 1080" style="enable-background:new 0 0 1920 1080;" xml:space="preserve">
<style type="text/css">
	.st0{fill:#4169E1;}
	.st1{fill:#FF8E96;}
	.st2{fill:#FF8E96;stroke:#FF8E96;stroke-miterlimit:10;}
</style>
<g>
	<rect x="0.5" y="0.5" class="st0" width="1919" height="1079"/>
	<path d="M1919,1v1078H1V1H1919 M1920,0H0v1080h1920V0L1920,0z"/>
</g>
<g>
	<g>
		<path class="st1" d="M265.9,351.78h-20.46l-4.32,20.7h22.74l-0.48,1.02h-23.64l8.88-41.88h22.68l-0.24,1.02h-21.54l-3.84,18.12
			h20.46L265.9,351.78z"/>
		<path class="st1" d="M275.56,350.94c0.54-2.58,1.26-6.12,1.5-7.32h1.08c-0.24,1.44-0.78,4.26-1.44,7.08
			c1.74-3.54,4.8-7.68,11.34-7.68c4.68,0,9.12,2.82,7.32,11.22l-4.08,19.26h-1.14l4.08-19.44c1.26-5.94-0.78-10.02-6.36-10.02
			c-7.44,0-11.1,6.6-12.6,13.68l-3.3,15.78h-1.14L275.56,350.94z"/>
		<path class="st1" d="M302.74,343.62h5.28l1.98-9.12h1.08l-1.92,9.12h6.9l-0.18,1.02h-6.96L304,367.55c-0.66,2.94-0.36,5.34,3,5.34
			c0.78,0,2.16-0.12,3.48-0.6l-0.24,1.08c-0.9,0.42-2.64,0.6-3.36,0.6c-3.48,0-5.04-1.56-3.96-6.66l4.92-22.68h-5.34L302.74,343.62z
			"/>
		<path class="st1" d="M319.36,353.88c1.38-6.48,1.62-8.04,2.04-10.26h1.08c-0.18,1.08-0.42,2.7-1.68,8.46c2.7-5.52,8.1-8.94,12.3-9
			l-0.24,1.2c-6.12,0.48-11.58,6-13.2,13.62l-3.3,15.6h-1.14L319.36,353.88z"/>
		<path class="st1" d="M335.2,357.84c-0.48,2.28-0.54,4.08-0.54,5.22c0,6.06,2.88,9.9,8.58,9.9c5.4,0,8.52-3.24,10.5-7.08h1.14
			c-2.46,5.76-6.9,8.1-11.88,8.1c-6.54,0-9.48-4.62-9.48-10.8c0-8.4,4.2-20.16,14.7-20.16c6.6,0,9.06,4.62,9.06,9.54
			c0,1.56-0.18,3.3-0.66,5.28H335.2z M355.72,356.82c0.3-1.56,0.42-2.7,0.42-4.2c0-4.8-2.4-8.58-8.1-8.58
			c-5.94,0-10.56,4.56-12.66,12.78H355.72z"/>
		<path class="st1" d="M362.5,343.62h5.28l1.98-9.12h1.08l-1.92,9.12h6.9l-0.18,1.02h-6.96l-4.92,22.92c-0.66,2.94-0.36,5.34,3,5.34
			c0.78,0,2.16-0.12,3.48-0.6l-0.24,1.08c-0.9,0.42-2.64,0.6-3.36,0.6c-3.48,0-5.04-1.56-3.96-6.66l4.92-22.68h-5.34L362.5,343.62z"
			/>
		<path class="st1" d="M377.38,357.84c-0.48,2.28-0.54,4.08-0.54,5.22c0,6.06,2.88,9.9,8.58,9.9c5.4,0,8.52-3.24,10.5-7.08h1.14
			c-2.46,5.76-6.9,8.1-11.88,8.1c-6.54,0-9.48-4.62-9.48-10.8c0-8.4,4.2-20.16,14.7-20.16c6.6,0,9.06,4.62,9.06,9.54
			c0,1.56-0.18,3.3-0.66,5.28H377.38z M397.9,356.82c0.3-1.56,0.42-2.7,0.42-4.2c0-4.8-2.4-8.58-8.1-8.58
			c-5.94,0-10.56,4.56-12.66,12.78H397.9z"/>
		<path class="st1" d="M407.98,350.94c0.54-2.58,1.26-6.12,1.5-7.32h1.08c-0.24,1.44-0.78,4.26-1.44,7.08
			c1.74-3.54,4.8-7.68,11.34-7.68c4.68,0,9.12,2.82,7.32,11.22l-4.08,19.26h-1.14l4.08-19.44c1.26-5.94-0.78-10.02-6.36-10.02
			c-7.44,0-11.1,6.6-12.6,13.68l-3.3,15.78h-1.14L407.98,350.94z"/>
		<path class="st1" d="M440.01,343.62h1.14l-6.3,29.88h-1.14L440.01,343.62z M443.01,329.52h1.14l-1.08,5.1h-1.14L443.01,329.52z"/>
		<path class="st1" d="M449.01,353.88c1.38-6.48,1.62-8.04,2.04-10.26h1.08c-0.18,1.08-0.42,2.7-1.68,8.46c2.7-5.52,8.1-8.94,12.3-9
			l-0.24,1.2c-6.12,0.48-11.58,6-13.2,13.62l-3.3,15.6h-1.14L449.01,353.88z"/>
		<path class="st1" d="M476.31,364.85c0.12,4.98,2.7,8.1,8.7,8.1c4.56,0,8.58-2.34,8.58-7.5c0-3.24-1.74-5.28-7.08-7.32
			c-6-2.28-7.5-4.44-7.5-7.5c0-4.02,3.06-7.62,8.94-7.62c6.66,0,8.76,4.38,8.7,8.04h-1.02c-0.12-2.94-1.56-7.02-7.92-7.02
			c-4.62,0-7.56,2.76-7.56,6.48c0,3.06,1.74,4.74,6.9,6.72c5.7,2.16,7.68,4.56,7.68,8.1c0,5.4-4.02,8.64-9.9,8.64
			c-5.76,0-9.66-2.88-9.6-9.12H476.31z"/>
		<path class="st1" d="M525.27,353.7c0,8.46-3.96,20.28-14.64,20.28c-6.36,0-9.72-4.02-9.72-11.1c0-8.1,4.26-19.86,14.76-19.86
			C521.55,343.02,525.27,346.62,525.27,353.7z M502.05,362.58c0,6.72,3,10.38,8.64,10.38c9.6,0,13.44-10.92,13.44-19.32
			c0-6-3.12-9.6-8.64-9.6C506.07,344.04,502.05,354.78,502.05,362.58z"/>
		<path class="st1" d="M534.45,350.94c0.54-2.58,1.26-6.12,1.5-7.32h1.08c-0.24,1.44-0.78,4.26-1.44,7.08
			c1.74-3.54,4.8-7.68,11.34-7.68c4.68,0,9.12,2.82,7.32,11.22l-4.08,19.26h-1.14l4.08-19.44c1.26-5.94-0.78-10.02-6.36-10.02
			c-7.44,0-11.1,6.6-12.6,13.68l-3.3,15.78h-1.14L534.45,350.94z"/>
		<path class="st1" d="M576.15,357.84c-0.48,2.28-0.54,4.08-0.54,5.22c0,6.06,2.88,9.9,8.58,9.9c5.4,0,8.52-3.24,10.5-7.08h1.14
			c-2.46,5.76-6.9,8.1-11.88,8.1c-6.54,0-9.48-4.62-9.48-10.8c0-8.4,4.2-20.16,14.7-20.16c6.6,0,9.06,4.62,9.06,9.54
			c0,1.56-0.18,3.3-0.66,5.28H576.15z M596.67,356.82c0.3-1.56,0.42-2.7,0.42-4.2c0-4.8-2.4-8.58-8.1-8.58
			c-5.94,0-10.56,4.56-12.66,12.78H596.67z"/>
		<path class="st1" d="M602.31,364.85c0.12,4.98,2.7,8.1,8.7,8.1c4.56,0,8.58-2.34,8.58-7.5c0-3.24-1.74-5.28-7.08-7.32
			c-6-2.28-7.5-4.44-7.5-7.5c0-4.02,3.06-7.62,8.94-7.62c6.66,0,8.76,4.38,8.7,8.04h-1.02c-0.12-2.94-1.56-7.02-7.92-7.02
			c-4.62,0-7.56,2.76-7.56,6.48c0,3.06,1.74,4.74,6.9,6.72c5.7,2.16,7.68,4.56,7.68,8.1c0,5.4-4.02,8.64-9.9,8.64
			c-5.76,0-9.66-2.88-9.6-9.12H602.31z"/>
		<path class="st1" d="M628.95,365.81l-4.2,20.16h-1.14l7.2-33.66c0.84-4.08,1.44-6.84,1.8-8.7h1.02c-0.06,0.6-0.84,4.56-1.5,7.44
			c2.52-4.86,5.94-8.04,11.52-8.04c5.52,0,8.94,4.26,8.94,10.98c0,7.86-4.2,19.98-14.82,19.98
			C632.31,373.97,629.55,370.85,628.95,365.81z M651.45,354.12c0-6.78-3.24-10.08-8.04-10.08c-6.18,0-10.86,5.16-12.9,14.7
			c-1.8,8.4,0.24,14.22,7.44,14.22C647.19,372.95,651.45,361.86,651.45,354.12z"/>
		<path class="st1" d="M660.99,353.88c1.38-6.48,1.62-8.04,2.04-10.26h1.08c-0.18,1.08-0.42,2.7-1.68,8.46c2.7-5.52,8.1-8.94,12.3-9
			l-0.24,1.2c-6.12,0.48-11.58,6-13.2,13.62l-3.3,15.6h-1.14L660.99,353.88z"/>
		<path class="st1" d="M680.73,343.62h1.14l-6.3,29.88h-1.14L680.73,343.62z M683.73,329.52h1.14l-1.08,5.1h-1.14L683.73,329.52z"/>
		<path class="st1" d="M687.03,343.62h5.28l1.98-9.12h1.08l-1.92,9.12h6.9l-0.18,1.02h-6.96l-4.92,22.92
			c-0.66,2.94-0.36,5.34,3,5.34c0.78,0,2.16-0.12,3.48-0.6l-0.24,1.08c-0.9,0.42-2.64,0.6-3.36,0.6c-3.48,0-5.04-1.56-3.96-6.66
			l4.92-22.68h-5.34L687.03,343.62z"/>
		<path class="st1" d="M735.27,365.63c-2.28,5.28-5.7,8.34-11.88,8.34c-6.3,0-9.72-4.5-9.72-11.64c0-9.36,4.86-19.32,14.46-19.32
			c6.78,0,9.12,4.92,9.06,9.24h-1.08c-0.12-4.14-1.98-8.22-8.22-8.22c-8.94,0-13.14,10.14-13.14,18.06c0,6.66,3.06,10.86,8.76,10.86
			c5.34,0,8.4-2.7,10.62-7.32H735.27z"/>
		<path class="st1" d="M744.69,353.88c1.38-6.48,1.62-8.04,2.04-10.26h1.08c-0.18,1.08-0.42,2.7-1.68,8.46c2.7-5.52,8.1-8.94,12.3-9
			l-0.24,1.2c-6.12,0.48-11.58,6-13.2,13.62l-3.3,15.6h-1.14L744.69,353.88z"/>
		<path class="st1" d="M764.43,343.62h1.14l-6.3,29.88h-1.14L764.43,343.62z M767.43,329.52h1.14l-1.08,5.1h-1.14L767.43,329.52z"/>
		<path class="st1" d="M770.73,343.62h5.28l1.98-9.12h1.08l-1.92,9.12h6.9l-0.18,1.02h-6.96l-4.92,22.92
			c-0.66,2.94-0.36,5.34,3,5.34c0.78,0,2.16-0.12,3.48-0.6l-0.24,1.08c-0.9,0.42-2.64,0.6-3.36,0.6c-3.48,0-5.04-1.56-3.96-6.66
			l4.92-22.68h-5.34L770.73,343.62z"/>
		<path class="st1" d="M789.51,343.62h1.14l-6.3,29.88h-1.14L789.51,343.62z M792.51,329.52h1.14l-1.08,5.1h-1.14L792.51,329.52z"/>
		<path class="st1" d="M815.07,366.35c-1.56,3.3-4.74,7.62-11.34,7.62c-5.22,0-8.94-3.6-8.94-10.86c0-8.34,4.98-20.1,15.12-20.1
			c6.96,0,8.46,5.16,8.64,7.2c0.54-2.76,1.08-4.92,1.5-6.6h1.08c-0.36,1.44-1.32,5.82-1.8,7.98l-7.32,34.38h-1.14L815.07,366.35z
			 M795.93,363.06c0,5.82,2.52,9.9,8.04,9.9c6.3,0,10.8-4.74,12.96-14.82c2.16-9.96-1.02-14.1-7.2-14.1
			C800.97,344.04,795.93,354.72,795.93,363.06z"/>
		<path class="st1" d="M846.57,365.57c-0.6,2.94-1.38,6.48-1.62,7.92h-1.08c0.06-0.6,0.72-3.96,1.44-6.96
			c-2.1,4.2-5.34,7.44-11.4,7.44c-4.02,0-8.88-1.92-7.02-10.8l4.14-19.56h1.14l-4.2,19.92c-1.02,4.62-0.06,9.42,6.12,9.42
			c5.52,0,10.5-3.48,12.42-12.48l3.54-16.86h1.14L846.57,365.57z"/>
		<path class="st1" d="M857.25,357.84c-0.48,2.28-0.54,4.08-0.54,5.22c0,6.06,2.88,9.9,8.58,9.9c5.4,0,8.52-3.24,10.5-7.08h1.14
			c-2.46,5.76-6.9,8.1-11.88,8.1c-6.54,0-9.48-4.62-9.48-10.8c0-8.4,4.2-20.16,14.7-20.16c6.6,0,9.06,4.62,9.06,9.54
			c0,1.56-0.18,3.3-0.66,5.28H857.25z M877.77,356.82c0.3-1.56,0.42-2.7,0.42-4.2c0-4.8-2.4-8.58-8.1-8.58
			c-5.94,0-10.56,4.56-12.66,12.78H877.77z"/>
		<path class="st1" d="M899.31,365.81l-4.2,20.16h-1.14l7.2-33.66c0.84-4.08,1.44-6.84,1.8-8.7h1.02c-0.06,0.6-0.84,4.56-1.5,7.44
			c2.52-4.86,5.94-8.04,11.52-8.04c5.52,0,8.94,4.26,8.94,10.98c0,7.86-4.2,19.98-14.82,19.98
			C902.67,373.97,899.91,370.85,899.31,365.81z M921.81,354.12c0-6.78-3.24-10.08-8.04-10.08c-6.18,0-10.86,5.16-12.9,14.7
			c-1.8,8.4,0.24,14.22,7.44,14.22C917.55,372.95,921.81,361.86,921.81,354.12z"/>
		<path class="st1" d="M929.61,357.84c-0.48,2.28-0.54,4.08-0.54,5.22c0,6.06,2.88,9.9,8.58,9.9c5.4,0,8.52-3.24,10.5-7.08h1.14
			c-2.46,5.76-6.9,8.1-11.88,8.1c-6.54,0-9.48-4.62-9.48-10.8c0-8.4,4.2-20.16,14.7-20.16c6.6,0,9.06,4.62,9.06,9.54
			c0,1.56-0.18,3.3-0.66,5.28H929.61z M950.13,356.82c0.3-1.56,0.42-2.7,0.42-4.2c0-4.8-2.4-8.58-8.1-8.58
			c-5.94,0-10.56,4.56-12.66,12.78H950.13z"/>
		<path class="st1" d="M959.61,353.88c1.38-6.48,1.62-8.04,2.04-10.26h1.08c-0.18,1.08-0.42,2.7-1.68,8.46c2.7-5.52,8.1-8.94,12.3-9
			l-0.24,1.2c-6.12,0.48-11.58,6-13.2,13.62l-3.3,15.6h-1.14L959.61,353.88z"/>
		<path class="st1" d="M977.91,350.4c0.54-2.52,1.14-5.52,1.38-6.78h1.14c-0.12,0.84-0.72,4.02-1.26,6.42
			c1.26-2.46,3.96-7.02,10.02-7.02c3.96,0,6.66,2.04,6.72,7.14c1.2-2.82,4.5-7.14,10.14-7.14c4.56,0,8.4,2.52,6.66,10.8l-4.2,19.68
			h-1.2l4.26-19.62c1.2-5.64,0.06-9.84-5.64-9.84c-5.28,0-9.36,4.8-10.68,11.1l-3.9,18.36h-1.14l4.2-19.86
			c1.26-6.06-0.6-9.6-5.46-9.6c-5.94,0-9.78,6.12-11.04,11.94l-3.72,17.52h-1.14L977.91,350.4z"/>
		<path class="st1" d="M1021.05,357.84c-0.48,2.28-0.54,4.08-0.54,5.22c0,6.06,2.88,9.9,8.58,9.9c5.4,0,8.52-3.24,10.5-7.08h1.14
			c-2.46,5.76-6.9,8.1-11.88,8.1c-6.54,0-9.48-4.62-9.48-10.8c0-8.4,4.2-20.16,14.7-20.16c6.6,0,9.06,4.62,9.06,9.54
			c0,1.56-0.18,3.3-0.66,5.28H1021.05z M1041.57,356.82c0.3-1.56,0.42-2.7,0.42-4.2c0-4.8-2.4-8.58-8.1-8.58
			c-5.94,0-10.56,4.56-12.66,12.78H1041.57z"/>
		<path class="st1" d="M1048.35,343.62h5.28l1.98-9.12h1.08l-1.92,9.12h6.9l-0.18,1.02h-6.96l-4.92,22.92
			c-0.66,2.94-0.36,5.34,3,5.34c0.78,0,2.16-0.12,3.48-0.6l-0.24,1.08c-0.9,0.42-2.64,0.6-3.36,0.6c-3.48,0-5.04-1.56-3.96-6.66
			l4.92-22.68h-5.34L1048.35,343.62z"/>
		<path class="st1" d="M1104.38,329.52l-7.8,36.9c-0.48,2.1-1.08,5.52-1.32,7.08h-1.02c0-0.72,0.6-4.08,1.26-7.26
			c-2.22,4.44-5.28,7.74-11.58,7.74c-5.76,0-8.82-3.96-8.82-11.16c0-7.68,4.5-19.8,15.12-19.8c5.7,0,8.4,3.54,8.64,7.86l4.44-21.36
			H1104.38z M1076.25,362.64c0,6.66,2.76,10.32,8.04,10.32c6.24,0,10.8-4.56,13.02-14.88c2.34-10.8-1.74-14.04-7.32-14.04
			C1080.87,344.04,1076.25,355.08,1076.25,362.64z"/>
		<path class="st1" d="M1107.51,357.84c-0.48,2.28-0.54,4.08-0.54,5.22c0,6.06,2.88,9.9,8.58,9.9c5.4,0,8.52-3.24,10.5-7.08h1.14
			c-2.46,5.76-6.9,8.1-11.88,8.1c-6.54,0-9.48-4.62-9.48-10.8c0-8.4,4.2-20.16,14.7-20.16c6.6,0,9.06,4.62,9.06,9.54
			c0,1.56-0.18,3.3-0.66,5.28H1107.51z M1128.03,356.82c0.3-1.56,0.42-2.7,0.42-4.2c0-4.8-2.4-8.58-8.1-8.58
			c-5.94,0-10.56,4.56-12.66,12.78H1128.03z"/>
		<path class="st1" d="M1147.22,364.85c0.12,4.98,2.7,8.1,8.7,8.1c4.56,0,8.58-2.34,8.58-7.5c0-3.24-1.74-5.28-7.08-7.32
			c-6-2.28-7.5-4.44-7.5-7.5c0-4.02,3.06-7.62,8.94-7.62c6.66,0,8.76,4.38,8.7,8.04h-1.02c-0.12-2.94-1.56-7.02-7.92-7.02
			c-4.62,0-7.56,2.76-7.56,6.48c0,3.06,1.74,4.74,6.9,6.72c5.7,2.16,7.68,4.56,7.68,8.1c0,5.4-4.02,8.64-9.9,8.64
			c-5.76,0-9.66-2.88-9.6-9.12H1147.22z"/>
		<path class="st1" d="M1173.62,357.84c-0.48,2.28-0.54,4.08-0.54,5.22c0,6.06,2.88,9.9,8.58,9.9c5.4,0,8.52-3.24,10.5-7.08h1.14
			c-2.46,5.76-6.9,8.1-11.88,8.1c-6.54,0-9.48-4.62-9.48-10.8c0-8.4,4.2-20.16,14.7-20.16c6.6,0,9.06,4.62,9.06,9.54
			c0,1.56-0.18,3.3-0.66,5.28H1173.62z M1194.14,356.82c0.3-1.56,0.42-2.7,0.42-4.2c0-4.8-2.4-8.58-8.1-8.58
			c-5.94,0-10.56,4.56-12.66,12.78H1194.14z"/>
		<path class="st1" d="M1243.04,329.52l-7.8,36.9c-0.48,2.1-1.08,5.52-1.32,7.08h-1.02c0-0.72,0.6-4.08,1.26-7.26
			c-2.22,4.44-5.28,7.74-11.58,7.74c-5.76,0-8.82-3.96-8.82-11.16c0-7.68,4.5-19.8,15.12-19.8c5.7,0,8.4,3.54,8.64,7.86l4.44-21.36
			H1243.04z M1214.9,362.64c0,6.66,2.76,10.32,8.04,10.32c6.24,0,10.8-4.56,13.02-14.88c2.34-10.8-1.74-14.04-7.32-14.04
			C1219.52,344.04,1214.9,355.08,1214.9,362.64z"/>
		<path class="st1" d="M1250.06,343.62h1.14l-6.3,29.88h-1.14L1250.06,343.62z M1253.06,329.52h1.14l-1.08,5.1h-1.14L1253.06,329.52
			z"/>
		<path class="st1" d="M1255.22,364.85c0.12,4.98,2.7,8.1,8.7,8.1c4.56,0,8.58-2.34,8.58-7.5c0-3.24-1.74-5.28-7.08-7.32
			c-6-2.28-7.5-4.44-7.5-7.5c0-4.02,3.06-7.62,8.94-7.62c6.66,0,8.76,4.38,8.7,8.04h-1.02c-0.12-2.94-1.56-7.02-7.92-7.02
			c-4.62,0-7.56,2.76-7.56,6.48c0,3.06,1.74,4.74,6.9,6.72c5.7,2.16,7.68,4.56,7.68,8.1c0,5.4-4.02,8.64-9.9,8.64
			c-5.76,0-9.66-2.88-9.6-9.12H1255.22z"/>
		<path class="st1" d="M1279.52,364.85c0.12,4.98,2.7,8.1,8.7,8.1c4.56,0,8.58-2.34,8.58-7.5c0-3.24-1.74-5.28-7.08-7.32
			c-6-2.28-7.5-4.44-7.5-7.5c0-4.02,3.06-7.62,8.94-7.62c6.66,0,8.76,4.38,8.7,8.04h-1.02c-0.12-2.94-1.56-7.02-7.92-7.02
			c-4.62,0-7.56,2.76-7.56,6.48c0,3.06,1.74,4.74,6.9,6.72c5.7,2.16,7.68,4.56,7.68,8.1c0,5.4-4.02,8.64-9.9,8.64
			c-5.76,0-9.66-2.88-9.6-9.12H1279.52z"/>
		<path class="st1" d="M1328.48,353.7c0,8.46-3.96,20.28-14.64,20.28c-6.36,0-9.72-4.02-9.72-11.1c0-8.1,4.26-19.86,14.76-19.86
			C1324.76,343.02,1328.48,346.62,1328.48,353.7z M1305.26,362.58c0,6.72,3,10.38,8.64,10.38c9.6,0,13.44-10.92,13.44-19.32
			c0-6-3.12-9.6-8.64-9.6C1309.28,344.04,1305.26,354.78,1305.26,362.58z"/>
		<path class="st1" d="M1355.12,365.63c-2.28,5.28-5.7,8.34-11.88,8.34c-6.3,0-9.72-4.5-9.72-11.64c0-9.36,4.86-19.32,14.46-19.32
			c6.78,0,9.12,4.92,9.06,9.24h-1.08c-0.12-4.14-1.98-8.22-8.22-8.22c-8.94,0-13.14,10.14-13.14,18.06c0,6.66,3.06,10.86,8.76,10.86
			c5.34,0,8.4-2.7,10.62-7.32H1355.12z"/>
		<path class="st1" d="M1366.7,343.62h1.14l-6.3,29.88h-1.14L1366.7,343.62z M1369.7,329.52h1.14l-1.08,5.1h-1.14L1369.7,329.52z"/>
		<path class="st1" d="M1373.96,357.84c-0.48,2.28-0.54,4.08-0.54,5.22c0,6.06,2.88,9.9,8.58,9.9c5.4,0,8.52-3.24,10.5-7.08h1.14
			c-2.46,5.76-6.9,8.1-11.88,8.1c-6.54,0-9.48-4.62-9.48-10.8c0-8.4,4.2-20.16,14.7-20.16c6.6,0,9.06,4.62,9.06,9.54
			c0,1.56-0.18,3.3-0.66,5.28H1373.96z M1394.48,356.82c0.3-1.56,0.42-2.7,0.42-4.2c0-4.8-2.4-8.58-8.1-8.58
			c-5.94,0-10.56,4.56-12.66,12.78H1394.48z"/>
		<path class="st1" d="M1403.96,353.88c1.38-6.48,1.62-8.04,2.04-10.26h1.08c-0.18,1.08-0.42,2.7-1.68,8.46
			c2.7-5.52,8.1-8.94,12.3-9l-0.24,1.2c-6.12,0.48-11.58,6-13.2,13.62l-3.3,15.6h-1.14L1403.96,353.88z"/>
		<path class="st1" d="M1460.96,329.52l-7.8,36.9c-0.48,2.1-1.08,5.52-1.32,7.08h-1.02c0-0.72,0.6-4.08,1.26-7.26
			c-2.22,4.44-5.28,7.74-11.58,7.74c-5.76,0-8.82-3.96-8.82-11.16c0-7.68,4.5-19.8,15.12-19.8c5.7,0,8.4,3.54,8.64,7.86l4.44-21.36
			H1460.96z M1432.82,362.64c0,6.66,2.76,10.32,8.04,10.32c6.24,0,10.8-4.56,13.02-14.88c2.34-10.8-1.74-14.04-7.32-14.04
			C1437.44,344.04,1432.82,355.08,1432.82,362.64z"/>
		<path class="st1" d="M1464.08,357.84c-0.48,2.28-0.54,4.08-0.54,5.22c0,6.06,2.88,9.9,8.58,9.9c5.4,0,8.52-3.24,10.5-7.08h1.14
			c-2.46,5.76-6.9,8.1-11.88,8.1c-6.54,0-9.48-4.62-9.48-10.8c0-8.4,4.2-20.16,14.7-20.16c6.6,0,9.06,4.62,9.06,9.54
			c0,1.56-0.18,3.3-0.66,5.28H1464.08z M1484.6,356.82c0.3-1.56,0.42-2.7,0.42-4.2c0-4.8-2.4-8.58-8.1-8.58
			c-5.94,0-10.56,4.56-12.66,12.78H1484.6z"/>
		<path class="st1" d="M1503.5,373.49l9.3-43.98h1.14l-9.3,43.98H1503.5z"/>
		<path class="st1" d="M1534.22,366.9c-0.48,2.34-1.2,5.76-1.32,6.6h-1.08c0.18-1.5,0.84-4.26,1.32-6.24
			c-2.46,4.86-5.88,6.72-10.86,6.72c-5.88,0-8.1-3.84-8.1-7.38c0-5.58,3.9-9,10.38-10.14c3.42-0.6,9.48-0.78,10.92-0.78l0.66-3.18
			c0.78-3.78,0.06-8.46-7.32-8.46c-5.76,0-7.92,2.58-9.12,6.84h-1.14c1.02-3.78,3.12-7.86,10.44-7.86c6.84,0,9.42,4.02,8.22,9.6
			L1534.22,366.9z M1535.24,356.7c-3.42,0.06-7.32,0.18-10.5,0.72c-5.28,0.9-9.42,3.54-9.42,9.12c0,3.78,2.64,6.42,7.14,6.42
			c5.64,0,9.96-3.12,11.82-11.76L1535.24,356.7z"/>
		<path class="st1" d="M1561.28,350.4c0.54-2.52,1.14-5.52,1.38-6.78h1.14c-0.12,0.84-0.72,4.02-1.26,6.42
			c1.26-2.46,3.96-7.02,10.02-7.02c3.96,0,6.66,2.04,6.72,7.14c1.2-2.82,4.5-7.14,10.14-7.14c4.56,0,8.4,2.52,6.66,10.8l-4.2,19.68
			h-1.2l4.26-19.62c1.2-5.64,0.06-9.84-5.64-9.84c-5.28,0-9.36,4.8-10.68,11.1l-3.9,18.36h-1.14l4.2-19.86
			c1.26-6.06-0.6-9.6-5.46-9.6c-5.94,0-9.78,6.12-11.04,11.94l-3.72,17.52h-1.14L1561.28,350.4z"/>
		<path class="st1" d="M1621.64,366.9c-0.48,2.34-1.2,5.76-1.32,6.6h-1.08c0.18-1.5,0.84-4.26,1.32-6.24
			c-2.46,4.86-5.88,6.72-10.86,6.72c-5.88,0-8.1-3.84-8.1-7.38c0-5.58,3.9-9,10.38-10.14c3.42-0.6,9.48-0.78,10.92-0.78l0.66-3.18
			c0.78-3.78,0.06-8.46-7.32-8.46c-5.76,0-7.92,2.58-9.12,6.84h-1.14c1.02-3.78,3.12-7.86,10.44-7.86c6.84,0,9.42,4.02,8.22,9.6
			L1621.64,366.9z M1622.66,356.7c-3.42,0.06-7.32,0.18-10.5,0.72c-5.28,0.9-9.42,3.54-9.42,9.12c0,3.78,2.64,6.42,7.14,6.42
			c5.64,0,9.96-3.12,11.82-11.76L1622.66,356.7z"/>
		<path class="st1" d="M1630.58,364.85c0.12,4.98,2.7,8.1,8.7,8.1c4.56,0,8.58-2.34,8.58-7.5c0-3.24-1.74-5.28-7.08-7.32
			c-6-2.28-7.5-4.44-7.5-7.5c0-4.02,3.06-7.62,8.94-7.62c6.66,0,8.76,4.38,8.7,8.04h-1.02c-0.12-2.94-1.56-7.02-7.92-7.02
			c-4.62,0-7.56,2.76-7.56,6.48c0,3.06,1.74,4.74,6.9,6.72c5.7,2.16,7.68,4.56,7.68,8.1c0,5.4-4.02,8.64-9.9,8.64
			c-5.76,0-9.66-2.88-9.6-9.12H1630.58z"/>
		<path class="st1" d="M1654.88,364.85c0.12,4.98,2.7,8.1,8.7,8.1c4.56,0,8.58-2.34,8.58-7.5c0-3.24-1.74-5.28-7.08-7.32
			c-6-2.28-7.5-4.44-7.5-7.5c0-4.02,3.06-7.62,8.94-7.62c6.66,0,8.76,4.38,8.7,8.04h-1.02c-0.12-2.94-1.56-7.02-7.92-7.02
			c-4.62,0-7.56,2.76-7.56,6.48c0,3.06,1.74,4.74,6.9,6.72c5.7,2.16,7.68,4.56,7.68,8.1c0,5.4-4.02,8.64-9.9,8.64
			c-5.76,0-9.66-2.88-9.6-9.12H1654.88z"/>
		<path class="st1" d="M1681.28,357.84c-0.48,2.28-0.54,4.08-0.54,5.22c0,6.06,2.88,9.9,8.58,9.9c5.4,0,8.52-3.24,10.5-7.08h1.14
			c-2.46,5.76-6.9,8.1-11.88,8.1c-6.54,0-9.48-4.62-9.48-10.8c0-8.4,4.2-20.16,14.7-20.16c6.6,0,9.06,4.62,9.06,9.54
			c0,1.56-0.18,3.3-0.66,5.28H1681.28z M1701.8,356.82c0.3-1.56,0.42-2.7,0.42-4.2c0-4.8-2.4-8.58-8.1-8.58
			c-5.94,0-10.56,4.56-12.66,12.78H1701.8z"/>
		<path class="st1" d="M1702.46,380.75c2.52-3.18,4.92-8.82,6.12-13.62h1.08c-1.44,6.6-4.62,11.82-6,13.62H1702.46z"/>
		<path class="st1" d="M239.38,436.85c0.12,4.98,2.7,8.1,8.7,8.1c4.56,0,8.58-2.34,8.58-7.5c0-3.24-1.74-5.28-7.08-7.32
			c-6-2.28-7.5-4.44-7.5-7.5c0-4.02,3.06-7.62,8.94-7.62c6.66,0,8.76,4.38,8.7,8.04h-1.02c-0.12-2.94-1.56-7.02-7.92-7.02
			c-4.62,0-7.56,2.76-7.56,6.48c0,3.06,1.74,4.74,6.9,6.72c5.7,2.16,7.68,4.56,7.68,8.1c0,5.4-4.02,8.64-9.9,8.64
			c-5.76,0-9.66-2.88-9.6-9.12H239.38z"/>
		<path class="st1" d="M283,438.9c-0.48,2.34-1.2,5.76-1.32,6.6h-1.08c0.18-1.5,0.84-4.26,1.32-6.24
			c-2.46,4.86-5.88,6.72-10.86,6.72c-5.88,0-8.1-3.84-8.1-7.38c0-5.58,3.9-9,10.38-10.14c3.42-0.6,9.48-0.78,10.92-0.78l0.66-3.18
			c0.78-3.78,0.06-8.46-7.32-8.46c-5.76,0-7.92,2.58-9.12,6.84h-1.14c1.02-3.78,3.12-7.86,10.44-7.86c6.84,0,9.42,4.02,8.22,9.6
			L283,438.9z M284.02,428.7c-3.42,0.06-7.32,0.18-10.5,0.72c-5.28,0.9-9.42,3.54-9.42,9.12c0,3.78,2.64,6.42,7.14,6.42
			c5.64,0,9.96-3.12,11.82-11.76L284.02,428.7z"/>
		<path class="st1" d="M296.38,422.94c0.54-2.58,1.26-6.12,1.5-7.32h1.08c-0.24,1.44-0.78,4.26-1.44,7.08
			c1.74-3.54,4.8-7.68,11.34-7.68c4.68,0,9.12,2.82,7.32,11.22l-4.08,19.26h-1.14l4.08-19.44c1.26-5.94-0.78-10.02-6.36-10.02
			c-7.44,0-11.1,6.6-12.6,13.68l-3.3,15.78h-1.14L296.38,422.94z"/>
		<path class="st1" d="M322.42,436.85c0.12,4.98,2.7,8.1,8.7,8.1c4.56,0,8.58-2.34,8.58-7.5c0-3.24-1.74-5.28-7.08-7.32
			c-6-2.28-7.5-4.44-7.5-7.5c0-4.02,3.06-7.62,8.94-7.62c6.66,0,8.76,4.38,8.7,8.04h-1.02c-0.12-2.94-1.56-7.02-7.92-7.02
			c-4.62,0-7.56,2.76-7.56,6.48c0,3.06,1.74,4.74,6.9,6.72c5.7,2.16,7.68,4.56,7.68,8.1c0,5.4-4.02,8.64-9.9,8.64
			c-5.76,0-9.66-2.88-9.6-9.12H322.42z"/>
		<path class="st1" d="M382.18,437.63c-2.28,5.28-5.7,8.34-11.88,8.34c-6.3,0-9.72-4.5-9.72-11.64c0-9.36,4.86-19.32,14.46-19.32
			c6.78,0,9.12,4.92,9.06,9.24h-1.08c-0.12-4.14-1.98-8.22-8.22-8.22c-8.94,0-13.14,10.14-13.14,18.06c0,6.66,3.06,10.86,8.76,10.86
			c5.34,0,8.4-2.7,10.62-7.32H382.18z"/>
		<path class="st1" d="M389.86,429.84c-0.48,2.28-0.54,4.08-0.54,5.22c0,6.06,2.88,9.9,8.58,9.9c5.4,0,8.52-3.24,10.5-7.08h1.14
			c-2.46,5.76-6.9,8.1-11.88,8.1c-6.54,0-9.48-4.62-9.48-10.8c0-8.4,4.2-20.16,14.7-20.16c6.6,0,9.06,4.62,9.06,9.54
			c0,1.56-0.18,3.3-0.66,5.28H389.86z M410.38,428.82c0.3-1.56,0.42-2.7,0.42-4.2c0-4.8-2.4-8.58-8.1-8.58
			c-5.94,0-10.56,4.56-12.66,12.78H410.38z"/>
		<path class="st1" d="M415.72,445.49l9.3-43.98h1.14l-9.3,43.98H415.72z"/>
		<path class="st1" d="M446.44,438.9c-0.48,2.34-1.2,5.76-1.32,6.6h-1.08c0.18-1.5,0.84-4.26,1.32-6.24
			c-2.46,4.86-5.88,6.72-10.86,6.72c-5.88,0-8.1-3.84-8.1-7.38c0-5.58,3.9-9,10.38-10.14c3.42-0.6,9.48-0.78,10.92-0.78l0.66-3.18
			c0.78-3.78,0.06-8.46-7.32-8.46c-5.76,0-7.92,2.58-9.12,6.84h-1.14c1.02-3.78,3.12-7.86,10.44-7.86c6.84,0,9.42,4.02,8.22,9.6
			L446.44,438.9z M447.46,428.7c-3.42,0.06-7.32,0.18-10.5,0.72c-5.28,0.9-9.42,3.54-9.42,9.12c0,3.78,2.64,6.42,7.14,6.42
			c5.64,0,9.96-3.12,11.82-11.76L447.46,428.7z"/>
		<path class="st1" d="M473.38,422.94c0.54-2.58,1.26-6.12,1.5-7.32h1.08c-0.24,1.44-0.78,4.26-1.44,7.08
			c1.74-3.54,4.8-7.68,11.34-7.68c4.68,0,9.12,2.82,7.32,11.22l-4.08,19.26h-1.14l4.08-19.44c1.26-5.94-0.78-10.02-6.36-10.02
			c-7.44,0-11.1,6.6-12.6,13.68l-3.3,15.78h-1.14L473.38,422.94z"/>
		<path class="st1" d="M524.07,425.7c0,8.46-3.96,20.28-14.64,20.28c-6.36,0-9.72-4.02-9.72-11.1c0-8.1,4.26-19.86,14.76-19.86
			C520.35,415.02,524.07,418.62,524.07,425.7z M500.85,434.58c0,6.72,3,10.38,8.64,10.38c9.6,0,13.44-10.92,13.44-19.32
			c0-6-3.12-9.6-8.64-9.6C504.88,416.04,500.85,426.78,500.85,434.58z"/>
		<path class="st1" d="M550.35,437.57c-0.6,2.94-1.38,6.48-1.62,7.92h-1.08c0.06-0.6,0.72-3.96,1.44-6.96
			c-2.1,4.2-5.34,7.44-11.4,7.44c-4.02,0-8.88-1.92-7.02-10.8l4.14-19.56h1.14l-4.2,19.92c-1.02,4.62-0.06,9.42,6.12,9.42
			c5.52,0,10.5-3.48,12.42-12.48l3.54-16.86h1.14L550.35,437.57z"/>
		<path class="st1" d="M558.93,436.85c0.12,4.98,2.7,8.1,8.7,8.1c4.56,0,8.58-2.34,8.58-7.5c0-3.24-1.74-5.28-7.08-7.32
			c-6-2.28-7.5-4.44-7.5-7.5c0-4.02,3.06-7.62,8.94-7.62c6.66,0,8.76,4.38,8.7,8.04h-1.02c-0.12-2.94-1.56-7.02-7.92-7.02
			c-4.62,0-7.56,2.76-7.56,6.48c0,3.06,1.74,4.74,6.9,6.72c5.7,2.16,7.68,4.56,7.68,8.1c0,5.4-4.02,8.64-9.9,8.64
			c-5.76,0-9.66-2.88-9.6-9.12H558.93z"/>
		<path class="st1" d="M601.23,422.94c0.54-2.58,1.26-6.12,1.5-7.32h1.08c-0.24,1.44-0.78,4.26-1.44,7.08
			c1.74-3.54,4.8-7.68,11.34-7.68c4.68,0,9.12,2.82,7.32,11.22l-4.08,19.26h-1.14l4.08-19.44c1.26-5.94-0.78-10.02-6.36-10.02
			c-7.44,0-11.1,6.6-12.6,13.68l-3.3,15.78h-1.14L601.23,422.94z"/>
		<path class="st1" d="M629.37,429.84c-0.48,2.28-0.54,4.08-0.54,5.22c0,6.06,2.88,9.9,8.58,9.9c5.4,0,8.52-3.24,10.5-7.08h1.14
			c-2.46,5.76-6.9,8.1-11.88,8.1c-6.54,0-9.48-4.62-9.48-10.8c0-8.4,4.2-20.16,14.7-20.16c6.6,0,9.06,4.62,9.06,9.54
			c0,1.56-0.18,3.3-0.66,5.28H629.37z M649.89,428.82c0.3-1.56,0.42-2.7,0.42-4.2c0-4.8-2.4-8.58-8.1-8.58
			c-5.94,0-10.56,4.56-12.66,12.78H649.89z"/>
		<path class="st1" d="M669.09,436.85c0.12,4.98,2.7,8.1,8.7,8.1c4.56,0,8.58-2.34,8.58-7.5c0-3.24-1.74-5.28-7.08-7.32
			c-6-2.28-7.5-4.44-7.5-7.5c0-4.02,3.06-7.62,8.94-7.62c6.66,0,8.76,4.38,8.7,8.04h-1.02c-0.12-2.94-1.56-7.02-7.92-7.02
			c-4.62,0-7.56,2.76-7.56,6.48c0,3.06,1.74,4.74,6.9,6.72c5.7,2.16,7.68,4.56,7.68,8.1c0,5.4-4.02,8.64-9.9,8.64
			c-5.76,0-9.66-2.88-9.6-9.12H669.09z"/>
		<path class="st1" d="M718.05,425.7c0,8.46-3.96,20.28-14.64,20.28c-6.36,0-9.72-4.02-9.72-11.1c0-8.1,4.26-19.86,14.76-19.86
			C714.33,415.02,718.05,418.62,718.05,425.7z M694.83,434.58c0,6.72,3,10.38,8.64,10.38c9.6,0,13.44-10.92,13.44-19.32
			c0-6-3.12-9.6-8.64-9.6C698.85,416.04,694.83,426.78,694.83,434.58z"/>
		<path class="st1" d="M727.35,422.4c0.54-2.52,1.14-5.52,1.38-6.78h1.14c-0.12,0.84-0.72,4.02-1.26,6.42
			c1.26-2.46,3.96-7.02,10.02-7.02c3.96,0,6.66,2.04,6.72,7.14c1.2-2.82,4.5-7.14,10.14-7.14c4.56,0,8.4,2.52,6.66,10.8l-4.2,19.68
			h-1.2l4.26-19.62c1.2-5.64,0.06-9.84-5.64-9.84c-5.28,0-9.36,4.8-10.68,11.1l-3.9,18.36h-1.14l4.2-19.86
			c1.26-6.06-0.6-9.6-5.46-9.6c-5.94,0-9.78,6.12-11.04,11.94l-3.72,17.52h-1.14L727.35,422.4z"/>
		<path class="st1" d="M772.95,422.4c0.54-2.52,1.14-5.52,1.38-6.78h1.14c-0.12,0.84-0.72,4.02-1.26,6.42
			c1.26-2.46,3.96-7.02,10.02-7.02c3.96,0,6.66,2.04,6.72,7.14c1.2-2.82,4.5-7.14,10.14-7.14c4.56,0,8.4,2.52,6.66,10.8l-4.2,19.68
			h-1.2l4.26-19.62c1.2-5.64,0.06-9.84-5.64-9.84c-5.28,0-9.36,4.8-10.68,11.1l-3.9,18.36h-1.14l4.2-19.86
			c1.26-6.06-0.6-9.6-5.46-9.6c-5.94,0-9.78,6.12-11.04,11.94l-3.72,17.52h-1.14L772.95,422.4z"/>
		<path class="st1" d="M816.09,429.84c-0.48,2.28-0.54,4.08-0.54,5.22c0,6.06,2.88,9.9,8.58,9.9c5.4,0,8.52-3.24,10.5-7.08h1.14
			c-2.46,5.76-6.9,8.1-11.88,8.1c-6.54,0-9.48-4.62-9.48-10.8c0-8.4,4.2-20.16,14.7-20.16c6.6,0,9.06,4.62,9.06,9.54
			c0,1.56-0.18,3.3-0.66,5.28H816.09z M836.61,428.82c0.3-1.56,0.42-2.7,0.42-4.2c0-4.8-2.4-8.58-8.1-8.58
			c-5.94,0-10.56,4.56-12.66,12.78H836.61z"/>
		<path class="st1" d="M842.25,436.85c0.12,4.98,2.7,8.1,8.7,8.1c4.56,0,8.58-2.34,8.58-7.5c0-3.24-1.74-5.28-7.08-7.32
			c-6-2.28-7.5-4.44-7.5-7.5c0-4.02,3.06-7.62,8.94-7.62c6.66,0,8.76,4.38,8.7,8.04h-1.02c-0.12-2.94-1.56-7.02-7.92-7.02
			c-4.62,0-7.56,2.76-7.56,6.48c0,3.06,1.74,4.74,6.9,6.72c5.7,2.16,7.68,4.56,7.68,8.1c0,5.4-4.02,8.64-9.9,8.64
			c-5.76,0-9.66-2.88-9.6-9.12H842.25z"/>
		<path class="st1" d="M900.51,438.35c-1.56,3.3-4.74,7.62-11.34,7.62c-5.22,0-8.94-3.6-8.94-10.86c0-8.34,4.98-20.1,15.12-20.1
			c6.96,0,8.46,5.16,8.64,7.2c0.54-2.76,1.08-4.92,1.5-6.6h1.08c-0.36,1.44-1.32,5.82-1.8,7.98l-7.32,34.38h-1.14L900.51,438.35z
			 M881.37,435.06c0,5.82,2.52,9.9,8.04,9.9c6.3,0,10.8-4.74,12.96-14.82c2.16-9.96-1.02-14.1-7.2-14.1
			C886.41,416.04,881.37,426.72,881.37,435.06z"/>
		<path class="st1" d="M932.01,437.57c-0.6,2.94-1.38,6.48-1.62,7.92h-1.08c0.06-0.6,0.72-3.96,1.44-6.96
			c-2.1,4.2-5.34,7.44-11.4,7.44c-4.02,0-8.88-1.92-7.02-10.8l4.14-19.56h1.14l-4.2,19.92c-1.02,4.62-0.06,9.42,6.12,9.42
			c5.52,0,10.5-3.48,12.42-12.48l3.54-16.86h1.14L932.01,437.57z"/>
		<path class="st1" d="M942.69,429.84c-0.48,2.28-0.54,4.08-0.54,5.22c0,6.06,2.88,9.9,8.58,9.9c5.4,0,8.52-3.24,10.5-7.08h1.14
			c-2.46,5.76-6.9,8.1-11.88,8.1c-6.54,0-9.48-4.62-9.48-10.8c0-8.4,4.2-20.16,14.7-20.16c6.6,0,9.06,4.62,9.06,9.54
			c0,1.56-0.18,3.3-0.66,5.28H942.69z M963.21,428.82c0.3-1.56,0.42-2.7,0.42-4.2c0-4.8-2.4-8.58-8.1-8.58
			c-5.94,0-10.56,4.56-12.66,12.78H963.21z"/>
		<path class="st1" d="M982.11,445.49l9.3-43.98h1.14l-9.3,43.98H982.11z"/>
		<path class="st1" d="M995.61,429.84c-0.48,2.28-0.54,4.08-0.54,5.22c0,6.06,2.88,9.9,8.58,9.9c5.4,0,8.52-3.24,10.5-7.08h1.14
			c-2.46,5.76-6.9,8.1-11.88,8.1c-6.54,0-9.48-4.62-9.48-10.8c0-8.4,4.2-20.16,14.7-20.16c6.6,0,9.06,4.62,9.06,9.54
			c0,1.56-0.18,3.3-0.66,5.28H995.61z M1016.13,428.82c0.3-1.56,0.42-2.7,0.42-4.2c0-4.8-2.4-8.58-8.1-8.58
			c-5.94,0-10.56,4.56-12.66,12.78H1016.13z"/>
		<path class="st1" d="M1021.77,436.85c0.12,4.98,2.7,8.1,8.7,8.1c4.56,0,8.58-2.34,8.58-7.5c0-3.24-1.74-5.28-7.08-7.32
			c-6-2.28-7.5-4.44-7.5-7.5c0-4.02,3.06-7.62,8.94-7.62c6.66,0,8.76,4.38,8.7,8.04h-1.02c-0.12-2.94-1.56-7.02-7.92-7.02
			c-4.62,0-7.56,2.76-7.56,6.48c0,3.06,1.74,4.74,6.9,6.72c5.7,2.16,7.68,4.56,7.68,8.1c0,5.4-4.02,8.64-9.9,8.64
			c-5.76,0-9.66-2.88-9.6-9.12H1021.77z"/>
		<path class="st1" d="M1063.47,425.88c1.38-6.48,1.62-8.04,2.04-10.26h1.08c-0.18,1.08-0.42,2.7-1.68,8.46
			c2.7-5.52,8.1-8.94,12.3-9l-0.24,1.2c-6.12,0.48-11.58,6-13.2,13.62l-3.3,15.6h-1.14L1063.47,425.88z"/>
		<path class="st1" d="M1101.87,425.7c0,8.46-3.96,20.28-14.64,20.28c-6.36,0-9.72-4.02-9.72-11.1c0-8.1,4.26-19.86,14.76-19.86
			C1098.15,415.02,1101.87,418.62,1101.87,425.7z M1078.65,434.58c0,6.72,3,10.38,8.64,10.38c9.6,0,13.44-10.92,13.44-19.32
			c0-6-3.12-9.6-8.64-9.6C1082.67,416.04,1078.65,426.78,1078.65,434.58z"/>
		<path class="st1" d="M1128.15,437.57c-0.6,2.94-1.38,6.48-1.62,7.92h-1.08c0.06-0.6,0.72-3.96,1.44-6.96
			c-2.1,4.2-5.34,7.44-11.4,7.44c-4.02,0-8.88-1.92-7.02-10.8l4.14-19.56h1.14l-4.2,19.92c-1.02,4.62-0.06,9.42,6.12,9.42
			c5.52,0,10.5-3.48,12.42-12.48l3.54-16.86h1.14L1128.15,437.57z"/>
		<path class="st1" d="M1156.05,438.9c-0.48,2.34-1.2,5.76-1.32,6.6h-1.08c0.18-1.5,0.84-4.26,1.32-6.24
			c-2.46,4.86-5.88,6.72-10.86,6.72c-5.88,0-8.1-3.84-8.1-7.38c0-5.58,3.9-9,10.38-10.14c3.42-0.6,9.48-0.78,10.92-0.78l0.66-3.18
			c0.78-3.78,0.06-8.46-7.32-8.46c-5.76,0-7.92,2.58-9.12,6.84h-1.14c1.02-3.78,3.12-7.86,10.44-7.86c6.84,0,9.42,4.02,8.22,9.6
			L1156.05,438.9z M1157.07,428.7c-3.42,0.06-7.32,0.18-10.5,0.72c-5.28,0.9-9.42,3.54-9.42,9.12c0,3.78,2.64,6.42,7.14,6.42
			c5.64,0,9.96-3.12,11.82-11.76L1157.07,428.7z"/>
		<path class="st1" d="M1185.15,444.83c-1.8,8.52-4.32,13.62-13.26,13.62c-7.56,0-9.66-4.68-9.6-8.28h1.08
			c0.12,4.38,3,7.26,8.7,7.26c8.1,0,10.26-4.86,11.94-12.72l1.38-6.3c-1.98,4.2-5.76,7.08-10.86,7.08c-5.34,0-9.12-3.66-9.12-10.98
			c0-7.92,4.5-19.5,14.7-19.5c6.3,0,8.28,4.08,8.64,7.38c0.48-2.16,1.32-5.94,1.56-6.78h1.14c-0.36,1.2-0.96,4.08-1.86,8.16
			L1185.15,444.83z M1166.55,434.46c0,6.84,3.42,10.02,8.1,10.02c7.8,0,10.92-6.72,12.48-14.16c1.74-8.04,0.66-14.28-7.26-14.28
			C1171.05,416.04,1166.55,426.78,1166.55,434.46z"/>
		<path class="st1" d="M1197.39,429.84c-0.48,2.28-0.54,4.08-0.54,5.22c0,6.06,2.88,9.9,8.58,9.9c5.4,0,8.52-3.24,10.5-7.08h1.14
			c-2.46,5.76-6.9,8.1-11.88,8.1c-6.54,0-9.48-4.62-9.48-10.8c0-8.4,4.2-20.16,14.7-20.16c6.6,0,9.06,4.62,9.06,9.54
			c0,1.56-0.18,3.3-0.66,5.28H1197.39z M1217.91,428.82c0.3-1.56,0.42-2.7,0.42-4.2c0-4.8-2.4-8.58-8.1-8.58
			c-5.94,0-10.56,4.56-12.66,12.78H1217.91z"/>
		<path class="st1" d="M1223.55,436.85c0.12,4.98,2.7,8.1,8.7,8.1c4.56,0,8.58-2.34,8.58-7.5c0-3.24-1.74-5.28-7.08-7.32
			c-6-2.28-7.5-4.44-7.5-7.5c0-4.02,3.06-7.62,8.94-7.62c6.66,0,8.76,4.38,8.7,8.04h-1.02c-0.12-2.94-1.56-7.02-7.92-7.02
			c-4.62,0-7.56,2.76-7.56,6.48c0,3.06,1.74,4.74,6.9,6.72c5.7,2.16,7.68,4.56,7.68,8.1c0,5.4-4.02,8.64-9.9,8.64
			c-5.76,0-9.66-2.88-9.6-9.12H1223.55z"/>
		<path class="st1" d="M1291.11,401.52l-7.8,36.9c-0.48,2.1-1.08,5.52-1.32,7.08h-1.02c0-0.72,0.6-4.08,1.26-7.26
			c-2.22,4.44-5.28,7.74-11.58,7.74c-5.76,0-8.82-3.96-8.82-11.16c0-7.68,4.5-19.8,15.12-19.8c5.7,0,8.4,3.54,8.64,7.86l4.44-21.36
			H1291.11z M1262.97,434.64c0,6.66,2.76,10.32,8.04,10.32c6.24,0,10.8-4.56,13.02-14.88c2.34-10.8-1.74-14.04-7.32-14.04
			C1267.59,416.04,1262.97,427.08,1262.97,434.64z"/>
		<path class="st1" d="M1313.67,437.57c-0.6,2.94-1.38,6.48-1.62,7.92h-1.08c0.06-0.6,0.72-3.96,1.44-6.96
			c-2.1,4.2-5.34,7.44-11.4,7.44c-4.02,0-8.88-1.92-7.02-10.8l4.14-19.56h1.14l-4.2,19.92c-1.02,4.62-0.06,9.42,6.12,9.42
			c5.52,0,10.5-3.48,12.42-12.48l3.54-16.86h1.14L1313.67,437.57z"/>
		<path class="st1" d="M1340.37,422.4c0.54-2.52,1.14-5.52,1.38-6.78h1.14c-0.12,0.84-0.72,4.02-1.26,6.42
			c1.26-2.46,3.96-7.02,10.02-7.02c3.96,0,6.66,2.04,6.72,7.14c1.2-2.82,4.5-7.14,10.14-7.14c4.56,0,8.4,2.52,6.66,10.8l-4.2,19.68
			h-1.2l4.26-19.62c1.2-5.64,0.06-9.84-5.64-9.84c-5.28,0-9.36,4.8-10.68,11.1l-3.9,18.36h-1.14l4.2-19.86
			c1.26-6.06-0.6-9.6-5.46-9.6c-5.94,0-9.78,6.12-11.04,11.94l-3.72,17.52h-1.14L1340.37,422.4z"/>
		<path class="st1" d="M1383.51,429.84c-0.48,2.28-0.54,4.08-0.54,5.22c0,6.06,2.88,9.9,8.58,9.9c5.4,0,8.52-3.24,10.5-7.08h1.14
			c-2.46,5.76-6.9,8.1-11.88,8.1c-6.54,0-9.48-4.62-9.48-10.8c0-8.4,4.2-20.16,14.7-20.16c6.6,0,9.06,4.62,9.06,9.54
			c0,1.56-0.18,3.3-0.66,5.28H1383.51z M1404.03,428.82c0.3-1.56,0.42-2.7,0.42-4.2c0-4.8-2.4-8.58-8.1-8.58
			c-5.94,0-10.56,4.56-12.66,12.78H1404.03z M1407.63,400.38l-10.14,9.18h-1.44l10.08-9.18H1407.63z"/>
		<path class="st1" d="M1431.56,437.63c-2.28,5.28-5.7,8.34-11.88,8.34c-6.3,0-9.72-4.5-9.72-11.64c0-9.36,4.86-19.32,14.46-19.32
			c6.78,0,9.12,4.92,9.06,9.24h-1.08c-0.12-4.14-1.98-8.22-8.22-8.22c-8.94,0-13.14,10.14-13.14,18.06c0,6.66,3.06,10.86,8.76,10.86
			c5.34,0,8.4-2.7,10.62-7.32H1431.56z"/>
		<path class="st1" d="M1456.46,438.9c-0.48,2.34-1.2,5.76-1.32,6.6h-1.08c0.18-1.5,0.84-4.26,1.32-6.24
			c-2.46,4.86-5.88,6.72-10.86,6.72c-5.88,0-8.1-3.84-8.1-7.38c0-5.58,3.9-9,10.38-10.14c3.42-0.6,9.48-0.78,10.92-0.78l0.66-3.18
			c0.78-3.78,0.06-8.46-7.32-8.46c-5.76,0-7.92,2.58-9.12,6.84h-1.14c1.02-3.78,3.12-7.86,10.44-7.86c6.84,0,9.42,4.02,8.22,9.6
			L1456.46,438.9z M1457.49,428.7c-3.42,0.06-7.32,0.18-10.5,0.72c-5.28,0.9-9.42,3.54-9.42,9.12c0,3.78,2.64,6.42,7.14,6.42
			c5.64,0,9.96-3.12,11.82-11.76L1457.49,428.7z"/>
		<path class="st1" d="M1469.84,422.94c0.54-2.58,1.26-6.12,1.5-7.32h1.08c-0.24,1.44-0.78,4.26-1.44,7.08
			c1.74-3.54,4.8-7.68,11.34-7.68c4.68,0,9.12,2.82,7.32,11.22l-4.08,19.26h-1.14l4.08-19.44c1.26-5.94-0.78-10.02-6.36-10.02
			c-7.44,0-11.1,6.6-12.6,13.68l-3.3,15.78h-1.14L1469.84,422.94z"/>
		<path class="st1" d="M1501.88,415.62h1.14l-6.3,29.88h-1.14L1501.88,415.62z M1504.88,401.52h1.14l-1.08,5.1h-1.14L1504.88,401.52
			z"/>
		<path class="st1" d="M1507.04,436.85c0.12,4.98,2.7,8.1,8.7,8.1c4.56,0,8.58-2.34,8.58-7.5c0-3.24-1.74-5.28-7.08-7.32
			c-6-2.28-7.5-4.44-7.5-7.5c0-4.02,3.06-7.62,8.94-7.62c6.66,0,8.76,4.38,8.7,8.04h-1.02c-0.12-2.94-1.56-7.02-7.92-7.02
			c-4.62,0-7.56,2.76-7.56,6.48c0,3.06,1.74,4.74,6.9,6.72c5.7,2.16,7.68,4.56,7.68,8.1c0,5.4-4.02,8.64-9.9,8.64
			c-5.76,0-9.66-2.88-9.6-9.12H1507.04z"/>
		<path class="st1" d="M1535.9,422.4c0.54-2.52,1.14-5.52,1.38-6.78h1.14c-0.12,0.84-0.72,4.02-1.26,6.42
			c1.26-2.46,3.96-7.02,10.02-7.02c3.96,0,6.66,2.04,6.72,7.14c1.2-2.82,4.5-7.14,10.14-7.14c4.56,0,8.4,2.52,6.66,10.8l-4.2,19.68
			h-1.2l4.26-19.62c1.2-5.64,0.06-9.84-5.64-9.84c-5.28,0-9.36,4.8-10.68,11.1l-3.9,18.36h-1.14l4.2-19.86
			c1.26-6.06-0.6-9.6-5.46-9.6c-5.94,0-9.78,6.12-11.04,11.94l-3.72,17.52h-1.14L1535.9,422.4z"/>
		<path class="st1" d="M1579.04,429.84c-0.48,2.28-0.54,4.08-0.54,5.22c0,6.06,2.88,9.9,8.58,9.9c5.4,0,8.52-3.24,10.5-7.08h1.14
			c-2.46,5.76-6.9,8.1-11.88,8.1c-6.54,0-9.48-4.62-9.48-10.8c0-8.4,4.2-20.16,14.7-20.16c6.6,0,9.06,4.62,9.06,9.54
			c0,1.56-0.18,3.3-0.66,5.28H1579.04z M1599.56,428.82c0.3-1.56,0.42-2.7,0.42-4.2c0-4.8-2.4-8.58-8.1-8.58
			c-5.94,0-10.56,4.56-12.66,12.78H1599.56z"/>
		<path class="st1" d="M1648.46,401.52l-7.8,36.9c-0.48,2.1-1.08,5.52-1.32,7.08h-1.02c0-0.72,0.6-4.08,1.26-7.26
			c-2.22,4.44-5.28,7.74-11.58,7.74c-5.76,0-8.82-3.96-8.82-11.16c0-7.68,4.5-19.8,15.12-19.8c5.7,0,8.4,3.54,8.64,7.86l4.44-21.36
			H1648.46z M1620.32,434.64c0,6.66,2.76,10.32,8.04,10.32c6.24,0,10.8-4.56,13.02-14.88c2.34-10.8-1.74-14.04-7.32-14.04
			C1624.94,416.04,1620.32,427.08,1620.32,434.64z"/>
		<path class="st1" d="M1651.58,429.84c-0.48,2.28-0.54,4.08-0.54,5.22c0,6.06,2.88,9.9,8.58,9.9c5.4,0,8.52-3.24,10.5-7.08h1.14
			c-2.46,5.76-6.9,8.1-11.88,8.1c-6.54,0-9.48-4.62-9.48-10.8c0-8.4,4.2-20.16,14.7-20.16c6.6,0,9.06,4.62,9.06,9.54
			c0,1.56-0.18,3.3-0.66,5.28H1651.58z M1672.1,428.82c0.3-1.56,0.42-2.7,0.42-4.2c0-4.8-2.4-8.58-8.1-8.58
			c-5.94,0-10.56,4.56-12.66,12.78H1672.1z"/>
		<path class="st1" d="M239.08,517.49l9.3-43.98h1.14l-9.3,43.98H239.08z"/>
		<path class="st1" d="M269.8,510.9c-0.48,2.34-1.2,5.76-1.32,6.6h-1.08c0.18-1.5,0.84-4.26,1.32-6.24
			c-2.46,4.86-5.88,6.72-10.86,6.72c-5.88,0-8.1-3.84-8.1-7.38c0-5.58,3.9-9,10.38-10.14c3.42-0.6,9.48-0.78,10.92-0.78l0.66-3.18
			c0.78-3.78,0.06-8.46-7.32-8.46c-5.76,0-7.92,2.58-9.12,6.84h-1.14c1.02-3.78,3.12-7.86,10.44-7.86c6.84,0,9.42,4.02,8.22,9.6
			L269.8,510.9z M270.82,500.7c-3.42,0.06-7.32,0.18-10.5,0.72c-5.28,0.9-9.42,3.54-9.42,9.12c0,3.78,2.64,6.42,7.14,6.42
			c5.64,0,9.96-3.12,11.82-11.76L270.82,500.7z"/>
		<path class="st1" d="M296.86,494.4c0.54-2.52,1.14-5.52,1.38-6.78h1.14c-0.12,0.84-0.72,4.02-1.26,6.42
			c1.26-2.46,3.96-7.02,10.02-7.02c3.96,0,6.66,2.04,6.72,7.14c1.2-2.82,4.5-7.14,10.14-7.14c4.56,0,8.4,2.52,6.66,10.8l-4.2,19.68
			h-1.2l4.26-19.62c1.2-5.64,0.06-9.84-5.64-9.84c-5.28,0-9.36,4.8-10.68,11.1l-3.9,18.36h-1.14l4.2-19.86
			c1.26-6.06-0.6-9.6-5.46-9.6c-5.94,0-9.78,6.12-11.04,11.94l-3.72,17.52H292L296.86,494.4z"/>
		<path class="st1" d="M357.22,510.9c-0.48,2.34-1.2,5.76-1.32,6.6h-1.08c0.18-1.5,0.84-4.26,1.32-6.24
			c-2.46,4.86-5.88,6.72-10.86,6.72c-5.88,0-8.1-3.84-8.1-7.38c0-5.58,3.9-9,10.38-10.14c3.42-0.6,9.48-0.78,10.92-0.78l0.66-3.18
			c0.78-3.78,0.06-8.46-7.32-8.46c-5.76,0-7.92,2.58-9.12,6.84h-1.14c1.02-3.78,3.12-7.86,10.44-7.86c6.84,0,9.42,4.02,8.22,9.6
			L357.22,510.9z M358.24,500.7c-3.42,0.06-7.32,0.18-10.5,0.72c-5.28,0.9-9.42,3.54-9.42,9.12c0,3.78,2.64,6.42,7.14,6.42
			c5.64,0,9.96-3.12,11.82-11.76L358.24,500.7z"/>
		<path class="st1" d="M388.06,509.63c-2.28,5.28-5.7,8.34-11.88,8.34c-6.3,0-9.72-4.5-9.72-11.64c0-9.36,4.86-19.32,14.46-19.32
			c6.78,0,9.12,4.92,9.06,9.24h-1.08c-0.12-4.14-1.98-8.22-8.22-8.22c-8.94,0-13.14,10.14-13.14,18.06c0,6.66,3.06,10.86,8.76,10.86
			c5.34,0,8.4-2.7,10.62-7.32H388.06z"/>
		<path class="st1" d="M403.78,473.52l-4.44,20.94c1.56-3.12,4.62-7.44,11.22-7.44c5.82,0,8.94,3.48,7.38,10.86l-4.14,19.62h-1.14
			l4.08-19.38c1.38-6.42-0.36-10.08-6.42-10.08c-6.9,0-10.8,5.7-12.24,12.54l-3.6,16.92h-1.14l9.3-43.98H403.78z"/>
		<path class="st1" d="M430.12,487.62h1.14l-6.3,29.88h-1.14L430.12,487.62z M433.12,473.52h1.14l-1.08,5.1h-1.14L433.12,473.52z"/>
		<path class="st1" d="M439.71,494.94c0.54-2.58,1.26-6.12,1.5-7.32h1.08c-0.24,1.44-0.78,4.26-1.44,7.08
			c1.74-3.54,4.8-7.68,11.34-7.68c4.68,0,9.12,2.82,7.32,11.22l-4.08,19.26h-1.14l4.08-19.44c1.26-5.94-0.78-10.02-6.36-10.02
			c-7.44,0-11.1,6.6-12.6,13.68l-3.3,15.78h-1.14L439.71,494.94z"/>
		<path class="st1" d="M467.85,501.84c-0.48,2.28-0.54,4.08-0.54,5.22c0,6.06,2.88,9.9,8.58,9.9c5.4,0,8.52-3.24,10.5-7.08h1.14
			c-2.46,5.76-6.9,8.1-11.88,8.1c-6.54,0-9.48-4.62-9.48-10.8c0-8.4,4.2-20.16,14.7-20.16c6.6,0,9.06,4.62,9.06,9.54
			c0,1.56-0.18,3.3-0.66,5.28H467.85z M488.37,500.82c0.3-1.56,0.42-2.7,0.42-4.2c0-4.8-2.4-8.58-8.1-8.58
			c-5.94,0-10.56,4.56-12.66,12.78H488.37z"/>
		<path class="st1" d="M508.71,487.62h5.28l1.98-9.12h1.08l-1.92,9.12h6.9l-0.18,1.02h-6.96l-4.92,22.92
			c-0.66,2.94-0.36,5.34,3,5.34c0.78,0,2.16-0.12,3.48-0.6l-0.24,1.08c-0.9,0.42-2.64,0.6-3.36,0.6c-3.48,0-5.04-1.56-3.96-6.66
			l4.92-22.68h-5.34L508.71,487.62z"/>
		<path class="st1" d="M546.15,497.7c0,8.46-3.96,20.28-14.64,20.28c-6.36,0-9.72-4.02-9.72-11.1c0-8.1,4.26-19.86,14.76-19.86
			C542.43,487.02,546.15,490.62,546.15,497.7z M522.93,506.58c0,6.72,3,10.38,8.64,10.38c9.6,0,13.44-10.92,13.44-19.32
			c0-6-3.12-9.6-8.64-9.6C526.95,488.04,522.93,498.78,522.93,506.58z"/>
		<path class="st1" d="M552.03,487.62h5.28l1.98-9.12h1.08l-1.92,9.12h6.9l-0.18,1.02h-6.96l-4.92,22.92
			c-0.66,2.94-0.36,5.34,3,5.34c0.78,0,2.16-0.12,3.48-0.6l-0.24,1.08c-0.9,0.42-2.64,0.6-3.36,0.6c-3.48,0-5.04-1.56-3.96-6.66
			l4.92-22.68h-5.34L552.03,487.62z"/>
		<path class="st1" d="M584.13,510.9c-0.48,2.34-1.2,5.76-1.32,6.6h-1.08c0.18-1.5,0.84-4.26,1.32-6.24
			c-2.46,4.86-5.88,6.72-10.86,6.72c-5.88,0-8.1-3.84-8.1-7.38c0-5.58,3.9-9,10.38-10.14c3.42-0.6,9.48-0.78,10.92-0.78l0.66-3.18
			c0.78-3.78,0.06-8.46-7.32-8.46c-5.76,0-7.92,2.58-9.12,6.84h-1.14c1.02-3.78,3.12-7.86,10.44-7.86c6.84,0,9.42,4.02,8.22,9.6
			L584.13,510.9z M585.15,500.7c-3.42,0.06-7.32,0.18-10.5,0.72c-5.28,0.9-9.42,3.54-9.42,9.12c0,3.78,2.64,6.42,7.14,6.42
			c5.64,0,9.96-3.12,11.82-11.76L585.15,500.7z"/>
		<path class="st1" d="M592.77,517.49l9.3-43.98h1.14l-9.3,43.98H592.77z"/>
		<path class="st1" d="M610.17,487.62h1.14l-6.3,29.88h-1.14L610.17,487.62z M613.17,473.52h1.14l-1.08,5.1h-1.14L613.17,473.52z"/>
		<path class="st1" d="M616.47,487.62h5.28l1.98-9.12h1.08l-1.92,9.12h6.9l-0.18,1.02h-6.96l-4.92,22.92
			c-0.66,2.94-0.36,5.34,3,5.34c0.78,0,2.16-0.12,3.48-0.6l-0.24,1.08c-0.9,0.42-2.64,0.6-3.36,0.6c-3.48,0-5.04-1.56-3.96-6.66
			l4.92-22.68h-5.34L616.47,487.62z"/>
		<path class="st1" d="M648.57,510.9c-0.48,2.34-1.2,5.76-1.32,6.6h-1.08c0.18-1.5,0.84-4.26,1.32-6.24
			c-2.46,4.86-5.88,6.72-10.86,6.72c-5.88,0-8.1-3.84-8.1-7.38c0-5.58,3.9-9,10.38-10.14c3.42-0.6,9.48-0.78,10.92-0.78l0.66-3.18
			c0.78-3.78,0.06-8.46-7.32-8.46c-5.76,0-7.92,2.58-9.12,6.84h-1.14c1.02-3.78,3.12-7.86,10.44-7.86c6.84,0,9.42,4.02,8.22,9.6
			L648.57,510.9z M649.59,500.7c-3.42,0.06-7.32,0.18-10.5,0.72c-5.28,0.9-9.42,3.54-9.42,9.12c0,3.78,2.64,6.42,7.14,6.42
			c5.64,0,9.96-3.12,11.82-11.76L649.59,500.7z"/>
		<path class="st1" d="M663.51,487.62h1.14l-6.3,29.88h-1.14L663.51,487.62z M666.51,473.52h1.14l-1.08,5.1h-1.14L666.51,473.52z"/>
		<path class="st1" d="M672.51,497.88c1.38-6.48,1.62-8.04,2.04-10.26h1.08c-0.18,1.08-0.42,2.7-1.68,8.46c2.7-5.52,8.1-8.94,12.3-9
			l-0.24,1.2c-6.12,0.48-11.58,6-13.2,13.62l-3.3,15.6h-1.14L672.51,497.88z"/>
		<path class="st1" d="M688.35,501.84c-0.48,2.28-0.54,4.08-0.54,5.22c0,6.06,2.88,9.9,8.58,9.9c5.4,0,8.52-3.24,10.5-7.08h1.14
			c-2.46,5.76-6.9,8.1-11.88,8.1c-6.54,0-9.48-4.62-9.48-10.8c0-8.4,4.2-20.16,14.7-20.16c6.6,0,9.06,4.62,9.06,9.54
			c0,1.56-0.18,3.3-0.66,5.28H688.35z M708.87,500.82c0.3-1.56,0.42-2.7,0.42-4.2c0-4.8-2.4-8.58-8.1-8.58
			c-5.94,0-10.56,4.56-12.66,12.78H708.87z"/>
		<path class="st1" d="M713.19,517.49l1.32-6.42h1.14l-1.32,6.42H713.19z"/>
	</g>
</g>
<line class="st2" x1="12.98" y1="89" x2="822.02" y2="89"/>
<line class="st2" x1="1080" y1="749.5" x2="1889" y2="742.5"/>
<g>
	<path class="st1" d="M137.57,250.96c-2.3,14.6-21.33,30.88-42.59,27.96c-20.73-2.85-31.84-22.96-33.51-38.37
		c-1.87-17.32,8.05-30.15,10.92-33.86c11.3-14.61,26.69-18.46,32.04-19.71c22.21-5.19,46.15,3.09,46.37,9.49
		c0.19,5.62-18.04,5.2-22.64,17.15C123.34,226.15,139.99,235.63,137.57,250.96z"/>
	<path class="st1" d="M248.02,250.96c-2.3,14.6-21.33,30.88-42.59,27.96c-20.73-2.85-31.84-22.96-33.51-38.37
		c-1.87-17.32,8.05-30.15,10.92-33.86c11.3-14.61,26.69-18.46,32.03-19.71c22.21-5.19,46.15,3.09,46.37,9.49
		c0.19,5.62-18.04,5.2-22.64,17.15C233.79,226.15,250.44,235.63,248.02,250.96z"/>
</g>
<g>
	<path class="st1" d="M1758.73,556.67c2.36-14.92,21.81-31.55,43.53-28.59c21.2,2.91,32.54,23.47,34.25,39.23
		c1.91,17.7-8.23,30.82-11.16,34.61c-11.55,14.94-27.28,18.87-32.74,20.14c-22.7,5.33-47.17-3.14-47.4-9.68
		c-0.2-5.74,18.44-5.32,23.14-17.53C1773.29,582.03,1756.26,572.34,1758.73,556.67z"/>
	<path class="st1" d="M1650.27,556.68c2.36-14.92,21.81-31.55,43.53-28.59c21.2,2.91,32.54,23.47,34.25,39.23
		c1.91,17.7-8.23,30.82-11.16,34.61c-11.55,14.94-27.28,18.87-32.74,20.14c-22.68,5.31-47.17-3.16-47.4-9.7
		c-0.2-5.74,18.44-5.32,23.14-17.53C1664.82,582.04,1647.8,572.35,1650.27,556.68z"/>
</g>
</svg>
